<svg width="71" height="15" viewBox="0 0 71 15" fill="none" xmlns="http://www.w3.org/2000/svg">
<path d="M3.29222 0.311035L7.99757 7.49485V0.311035H11.7142V13.8649H8.42195L3.7166 6.66141V13.8649H0V0.311035H3.29222Z" fill="white"/>
<path d="M28.9876 7.08757C28.9876 10.9989 25.6188 14.1554 21.7075 14.1554C17.7962 14.1554 14.4078 10.9967 14.4078 7.08757C14.4078 3.17847 17.7962 0 21.7075 0C25.6188 0 28.9876 3.17628 28.9876 7.08757ZM25.4263 7.08757C25.4263 5.03567 23.7616 3.37097 21.7097 3.37097C19.6578 3.37097 17.9909 5.03348 17.9909 7.08757C17.9909 9.13946 19.6556 10.7867 21.7075 10.7867C23.7594 10.7867 25.4263 9.13946 25.4263 7.08757Z" fill="white"/>
<path d="M42.5425 3.44575H38.5722V13.8627H34.8731V3.44575H30.9027V0.311035H42.5403V3.44575H42.5425Z" fill="white"/>
<path d="M52.4003 11.463H48.1018L47.2684 13.8649H43.1449L48.2571 0.311035H52.2275L57.3594 13.8649H53.2359L52.4003 11.463ZM51.2956 8.32611L50.25 5.34452L49.2043 8.32611H51.2956Z" fill="white"/>
<path d="M70.9893 9.83769C70.9893 12.2002 69.4208 13.8649 65.8399 13.8649H60.0889V0.311035H65.6255C68.5502 0.311035 70.1165 1.80292 70.1165 4.04732C70.1165 4.8217 69.8058 5.9439 68.8586 6.64172C70.4271 7.26079 70.9893 8.59736 70.9893 9.83769ZM63.7858 3.44575V5.30514H65.6452C66.4786 5.30514 66.8658 4.89827 66.8658 4.37545C66.8658 3.85263 66.4786 3.44575 65.6452 3.44575H63.7858ZM67.6599 9.58393C67.6599 8.94518 67.1371 8.44205 66.1877 8.44205H63.7858V10.7258H66.1877C67.1371 10.728 67.6599 10.2052 67.6599 9.58393Z" fill="white"/>
</svg>
