<svg width="90" height="36" viewBox="0 0 90 36" fill="none" xmlns="http://www.w3.org/2000/svg">
<path d="M24.7424 1.10177C24.7424 1.4288 24.2752 2.40986 23.3409 4.04498C23.154 4.372 22.1613 6.05384 20.3626 9.09048C19.0545 11.3096 18.1552 12.898 17.6647 13.8557C17.1041 14.9068 16.5084 16.2149 15.8777 17.78C15.0835 19.7888 14.2893 21.7977 13.4951 23.8065C13.1915 24.4139 12.8294 24.9161 12.409 25.3132C12.0119 25.6869 11.6264 25.8738 11.2527 25.8738C10.949 25.8738 10.6921 25.7103 10.4819 25.3832C10.295 25.0562 10.2015 24.5307 10.2015 23.8065C10.2015 21.1436 10.4585 18.3055 10.9724 15.2922C11.5096 12.2556 12.0819 9.20728 12.6893 6.14727C10.6804 9.25399 8.91682 12.1738 7.39849 14.9068C5.81009 17.78 4.63047 20.1976 3.85963 22.1597C3.57933 22.9306 3.29902 23.6897 3.01872 24.4372C2.50482 25.6752 1.95589 26.2942 1.37192 26.2942C0.951463 26.2242 0.741234 25.9322 0.741234 25.4183C0.741234 24.6007 1.22009 23.1758 2.1778 21.1436C2.55154 20.3728 2.92528 19.6019 3.29902 18.8311C4.58376 16.2616 6.28895 13.2717 8.4146 9.86132C10.6337 6.31079 12.3272 3.88147 13.4951 2.57338C14.1258 1.84925 14.6631 1.48719 15.1069 1.48719C15.5974 1.48719 15.8427 1.74414 15.8427 2.25803C15.8427 2.46826 15.796 2.65513 15.7025 2.81864C14.7448 4.87422 13.9273 8.14445 13.2499 12.6293C12.6893 16.3668 12.409 19.3567 12.409 21.5991C12.6425 21.0619 13.1915 19.8706 14.0558 18.0252C14.7799 16.5069 15.3288 15.3039 15.7025 14.4163C16.4267 12.8746 17.0574 11.5665 17.5946 10.492C18.2487 9.16056 18.9728 7.75903 19.767 6.28743C20.5845 4.81582 21.3671 3.47269 22.1145 2.25803C22.862 1.02002 23.5511 0.401007 24.1818 0.401007C24.5555 0.377648 24.7424 0.611236 24.7424 1.10177Z" fill="white"/>
<path d="M29.2035 7.30353C29.2035 7.86414 28.9115 8.44812 28.3275 9.05545C27.7669 9.63942 27.2764 9.9314 26.8559 9.9314C26.3654 9.9314 26.1201 9.63942 26.1201 9.05545C26.1201 8.51819 26.4004 7.9459 26.961 7.33857C27.5216 6.73124 28.0122 6.42758 28.4326 6.42758C28.9465 6.42758 29.2035 6.71956 29.2035 7.30353ZM25.5945 13.8907C25.5945 14.2411 25.4427 14.6032 25.139 14.9769C24.5084 15.7244 23.6908 17.1609 22.6864 19.2866C21.6819 21.3889 21.1097 22.8371 20.9695 23.6313C20.8293 24.4255 20.514 24.7993 20.0235 24.7526C19.8366 24.7526 19.6731 24.6241 19.5329 24.3671C19.3928 24.1102 19.3227 23.8299 19.3227 23.5262C19.3227 22.3583 19.86 20.7465 20.9345 18.691C21.8455 16.939 22.8732 15.3273 24.0178 13.8557C24.1346 13.7155 24.2748 13.5754 24.4383 13.4352C24.6252 13.2951 24.8237 13.225 25.0339 13.225C25.4077 13.2717 25.5945 13.4936 25.5945 13.8907Z" fill="white"/>
<path d="M36.7928 17.3945C36.7928 18.2121 36.1738 19.3917 34.9358 20.9334C33.4875 22.732 31.7823 24.1452 29.8202 25.173C29.026 26.9016 28.2902 28.3615 27.6128 29.5528C26.6317 31.2813 25.7324 32.5661 24.9149 33.407C23.8637 34.4815 22.8242 35.0188 21.7965 35.0188C20.6519 35.0188 20.0796 34.283 20.0796 32.8113C20.0796 31.6201 20.8154 30.2652 22.287 28.7469C23.7586 27.2286 25.7091 25.8621 28.1384 24.6474C28.5121 24.0868 28.7691 23.6664 28.9092 23.3861C29.1428 22.9189 29.2596 22.5101 29.2596 22.1597C28.7457 22.7203 28.2435 23.1408 27.753 23.4211C27.2624 23.6781 26.7952 23.8065 26.3514 23.8065C25.4171 23.8065 24.9499 23.2459 24.9499 22.1247C24.9499 20.6531 25.8492 18.691 27.6478 16.2383C29.5633 13.6454 31.2918 12.349 32.8335 12.349C33.3941 12.349 33.8379 12.5242 34.1649 12.8746C34.492 13.225 34.6555 13.6571 34.6555 14.171C34.6555 14.5214 34.5971 14.8484 34.4803 15.1521C34.3869 15.4324 34.2117 15.7361 33.9547 16.0631C34.3518 16.0631 34.527 16.1682 34.4803 16.3784C33.7328 17.5464 33.0554 18.6326 32.4481 19.637C31.7473 20.7816 31.3268 21.7977 31.1867 22.6853C32.3546 21.7977 33.3824 20.7932 34.2701 19.672C34.9942 18.761 35.7183 17.8384 36.4424 16.904C36.676 16.904 36.7928 17.0675 36.7928 17.3945ZM32.6583 14.9068C32.6583 14.5331 32.4714 14.3462 32.0977 14.3462C31.4436 14.3462 30.4042 15.2222 28.9793 16.9741C27.461 18.8428 26.7018 20.3144 26.7018 21.3889C26.7018 21.9261 26.912 22.1948 27.3325 22.1948C27.753 22.1948 28.2318 21.9378 28.7691 21.4239C29.3997 20.84 30.1122 19.8823 30.9064 18.5508C30.5093 18.4807 30.3107 18.3873 30.3107 18.2705C30.6845 17.85 31.0816 17.3945 31.502 16.904C31.9459 16.3901 32.2962 15.8412 32.5532 15.2572L32.6583 14.9068ZM27.3325 26.8198C26.5149 26.8198 25.3937 27.5206 23.9688 28.9221C22.5206 30.347 21.7965 31.4682 21.7965 32.2858C21.7965 32.4726 21.8782 32.6362 22.0417 32.7763C22.2052 32.9165 22.3921 32.9865 22.6023 32.9865C23.233 32.9865 24.0155 32.2507 24.9499 30.7791C25.7441 29.4477 26.5383 28.1279 27.3325 26.8198Z" fill="white"/>
<path d="M47.7683 17.7099C47.7683 18.6676 47.1492 19.929 45.9112 21.494C44.5331 23.2226 43.2133 24.0868 41.9519 24.0868C41.5315 24.0868 41.2161 23.9467 41.0059 23.6664C40.819 23.3627 40.7256 22.9656 40.7256 22.4751C40.7256 21.6575 40.9942 20.6531 41.5314 19.4618C42.0687 18.2705 42.7695 17.0558 43.6337 15.8178C40.9475 17.9201 39.0087 20.4429 37.8174 23.3861C37.3969 24.3905 36.9414 24.8927 36.4509 24.8927C35.937 24.8927 35.6801 24.5774 35.6801 23.9467C35.6801 23.4094 36.0772 22.2415 36.8714 20.4429C37.5254 18.9946 38.1678 17.6865 38.7985 16.5186C40.5037 13.4352 42.314 9.75621 44.2294 5.48155C45.117 3.49605 45.9112 2.5033 46.612 2.5033C47.2427 2.5033 47.558 2.81864 47.558 3.44933C47.558 3.86979 47.0441 4.95597 46.0163 6.70788C45.0119 8.45979 43.9958 10.2117 42.968 11.9636C41.73 14.1126 40.9358 15.666 40.5854 16.6237C41.6833 15.5258 42.7228 14.6849 43.7038 14.1009C44.5214 13.6104 45.1871 13.3651 45.701 13.3651C46.2616 13.3651 46.5419 13.5987 46.5419 14.0659C46.5419 14.2061 46.4835 14.4163 46.3667 14.6966C45.3156 16.3551 44.5331 17.5931 44.0192 18.4106C43.0848 19.929 42.6176 20.9217 42.6176 21.3889C42.6176 21.7159 42.7695 21.8794 43.0731 21.8794C43.5637 21.8794 44.0192 21.6575 44.4396 21.2137C44.4863 21.167 45.1287 20.1859 46.3667 18.2705C46.7872 17.6865 47.1609 17.3945 47.4879 17.3945C47.6748 17.3945 47.7683 17.4997 47.7683 17.7099Z" fill="white"/>
<path d="M59.6481 10.8424C59.7416 11.4731 59.251 11.8585 58.1765 11.9987C56.3078 12.2556 55.0464 12.5125 54.3924 12.7695C53.131 15.082 52.1616 17.1026 51.4842 18.8311C50.9236 20.2326 50.6433 21.2604 50.6433 21.9145C50.6433 22.4284 50.8419 22.6853 51.2389 22.6853C51.7061 22.6853 52.3135 22.2999 53.0609 21.529C53.8318 20.7348 54.4625 19.8355 54.953 18.8311C55.1399 18.4106 55.3735 18.2004 55.6538 18.2004C56.0275 18.1537 56.2144 18.3639 56.2144 18.8311C56.2144 19.8122 55.5603 21.0035 54.2522 22.405C52.9675 23.7832 51.7879 24.4723 50.7134 24.4723C50.1294 24.4723 49.6272 24.2503 49.2067 23.8065C48.7863 23.3627 48.576 22.7671 48.576 22.0196C48.576 20.8984 48.9848 19.4151 49.8024 17.5697C50.4097 16.2149 51.1105 14.8951 51.9047 13.6104C51.4141 13.7973 51.0404 13.8907 50.7835 13.8907C50.2462 13.8907 49.9776 13.6104 49.9776 13.0498C49.9776 12.606 50.3046 12.3023 50.9586 12.1388C51.636 11.9753 52.3251 11.8118 53.0259 11.6483C54.1938 9.75621 55.0698 8.48316 55.6538 7.82911C56.2377 7.1517 56.7633 6.813 57.2305 6.813C57.5809 6.76628 57.7561 6.97651 57.7561 7.44369C57.7561 7.81743 57.5108 8.343 57.0203 9.02041C56.2961 10.0248 55.8757 10.6322 55.7589 10.8424C56.3195 10.7022 56.8334 10.5854 57.3006 10.492C57.7677 10.3986 58.1999 10.3519 58.597 10.3519C59.2977 10.3519 59.6481 10.5154 59.6481 10.8424Z" fill="white"/>
<path d="M71.5179 2.81864C71.5179 4.64063 70.1981 7.25682 67.5585 10.6672C65.1759 13.7506 62.7116 16.285 60.1655 18.2705C59.418 19.9056 59.0443 21.0035 59.0443 21.5641C59.0443 21.9845 59.1494 22.1948 59.3596 22.1948C59.7567 22.1948 60.3407 21.7743 61.1115 20.9334C61.9057 20.0691 62.4196 19.2749 62.6532 18.5508C62.8634 18.0836 63.1204 17.85 63.424 17.85C63.5875 17.85 63.7277 17.9201 63.8445 18.0603C63.9846 18.1771 64.0547 18.3522 64.0547 18.5858C64.0547 19.4268 63.3306 20.5713 61.8824 22.0196C60.4341 23.4678 59.3246 24.1919 58.5537 24.1919C57.6894 24.1919 57.2573 23.6197 57.2573 22.4751C57.2573 22.1714 57.3157 21.786 57.4325 21.3188C58.6238 17.2544 60.4458 13.2016 62.8985 9.16056C65.1876 5.39979 67.2198 2.92376 68.9951 1.73246C69.5324 1.40543 69.9762 1.24192 70.3266 1.24192C70.7003 1.24192 70.9923 1.39376 71.2025 1.69742C71.4127 1.97773 71.5179 2.35147 71.5179 2.81864ZM69.801 3.55445C69.801 3.22742 69.6725 3.06391 69.4156 3.06391C68.8316 3.06391 67.5936 4.4888 65.7015 7.33857C63.8095 10.165 62.5247 12.6177 61.8473 14.6966C63.5292 13.4586 65.2927 11.5081 67.1381 8.84522C68.9134 6.29911 69.801 4.53552 69.801 3.55445Z" fill="white"/>
<path d="M74.1646 7.30353C74.1646 7.86414 73.8726 8.44812 73.2887 9.05545C72.728 9.63942 72.2375 9.9314 71.8171 9.9314C71.3265 9.9314 71.0813 9.63942 71.0813 9.05545C71.0813 8.51819 71.3615 7.9459 71.9222 7.33857C72.4828 6.73124 72.9733 6.42758 73.3938 6.42758C73.9077 6.42758 74.1646 6.71956 74.1646 7.30353ZM70.5557 13.8907C70.5557 14.2411 70.4038 14.6032 70.1002 14.9769C69.4695 15.7244 68.6519 17.1609 67.6475 19.2866C66.6431 21.3889 66.0708 22.8371 65.9306 23.6313C65.7905 24.4255 65.4751 24.7993 64.9846 24.7526C64.7977 24.7526 64.6342 24.6241 64.4941 24.3671C64.3539 24.1102 64.2838 23.8299 64.2838 23.5262C64.2838 22.3583 64.8211 20.7465 65.8956 18.691C66.8066 16.939 67.8344 15.3273 68.979 13.8557C69.0957 13.7155 69.2359 13.5754 69.3994 13.4352C69.5863 13.2951 69.7848 13.225 69.9951 13.225C70.3688 13.2717 70.5557 13.4936 70.5557 13.8907Z" fill="white"/>
<path d="M83.4007 2.22299C83.4007 2.57338 83.1905 2.9588 82.7701 3.37926C81.7423 4.40704 80.5276 5.98376 79.1261 8.10941C77.7245 10.2351 76.5449 12.2439 75.5872 14.136C76.1945 13.8557 76.7668 13.6221 77.3041 13.4352C78.145 13.1549 78.8808 13.0148 79.5115 13.0148C80.0487 13.0148 80.5042 13.1432 80.878 13.4002C81.2751 13.6571 81.497 13.9725 81.5437 14.3462C81.5437 14.5564 81.3919 14.7667 81.0882 14.9769C80.8079 15.1871 80.5393 15.2922 80.2823 15.2922C80.1889 15.2922 79.8969 15.1638 79.4064 14.9068C79.1494 14.7667 78.8808 14.6966 78.6005 14.6966C78.1567 14.6966 77.4442 14.8601 76.4632 15.1871C75.4821 15.4908 74.7346 15.8762 74.2207 16.3434C75.0616 16.6237 75.6806 17.2427 76.0778 18.2004C76.4048 18.9946 76.5683 19.929 76.5683 21.0035C76.5683 25.6052 75.6339 29.1674 73.7652 31.6901C72.3403 33.6055 70.8571 34.5633 69.3154 34.5633C68.7548 34.5633 68.2759 34.2713 67.8788 33.6873C67.4584 33.1267 67.2481 32.4142 67.2481 31.55C67.2481 30.8259 67.3299 30.0667 67.4934 29.2725C67.6569 28.5016 67.8788 27.6841 68.1591 26.8198C68.673 25.2548 69.5022 23.1758 70.6468 20.583C71.114 19.5319 71.3826 18.8545 71.4527 18.5508C71.3593 18.5742 71.2425 18.5858 71.1023 18.5858C70.7286 18.5858 70.5417 18.4574 70.5417 18.2004C70.5417 17.8968 70.7753 17.4763 71.2425 16.939C71.7097 16.4018 72.3287 15.8412 73.0995 15.2572C74.174 13.2484 74.9799 11.7651 75.5171 10.8074C76.4048 9.21896 77.3158 7.68895 78.2501 6.21735C79.2078 4.72239 80.0721 3.50773 80.8429 2.57338C81.1233 2.22299 81.4269 1.96605 81.7539 1.80254C82.081 1.61566 82.3846 1.52223 82.6649 1.52223C83.1555 1.52223 83.4007 1.75582 83.4007 2.22299ZM74.9916 21.2838C74.9916 20.4195 74.8865 19.6954 74.6762 19.1114C74.466 18.5274 74.1273 18.1654 73.6601 18.0252C72.9827 19.4034 72.025 21.7042 70.787 24.9278C69.5723 28.1513 68.965 30.0784 68.965 30.7091C68.965 31.223 69.0584 31.6084 69.2453 31.8653C69.4322 32.1456 69.6424 32.2858 69.876 32.2858C70.8337 32.2858 71.8848 31.2346 73.0294 29.1323C74.3375 26.7497 74.9916 24.1336 74.9916 21.2838Z" fill="white"/>
<path d="M89.2023 18.9362C89.2023 19.7538 88.3497 20.8516 86.6445 22.2298C84.8225 23.7014 83.1874 24.4372 81.7392 24.4372C81.015 24.4372 80.3727 24.1686 79.8121 23.6313C79.2748 23.0707 79.0062 22.3933 79.0062 21.5991C79.0062 20.5947 79.3098 19.4968 79.9172 18.3055C80.4311 17.2777 81.015 16.4485 81.6691 15.8178C82.6034 14.8367 83.421 14.1477 84.1218 13.7506C84.8225 13.3301 85.4065 13.1199 85.8737 13.1199C86.3175 13.1199 86.6795 13.26 86.9598 13.5403C87.2402 13.8206 87.3803 14.1593 87.3803 14.5564C87.3803 15.3039 86.9832 16.2032 86.189 17.2544C85.605 18.0486 84.9276 18.761 84.1568 19.3917C83.8064 19.7421 83.3042 20.0808 82.6501 20.4078C82.183 20.6414 81.6691 20.8516 81.1085 21.0385C81.1085 21.5991 81.2253 22.0196 81.4588 22.2999C81.7158 22.5568 82.0662 22.6853 82.51 22.6853C83.2341 22.6853 84.1218 22.3349 85.1729 21.6342C86.2474 20.9334 87.1934 20.0925 88.011 19.1114C88.3847 18.6676 88.665 18.4457 88.8519 18.4457C89.0855 18.4457 89.2023 18.6092 89.2023 18.9362ZM85.6284 15.5375C85.6284 15.2572 85.4882 15.0937 85.2079 15.047C84.8342 15.047 84.3904 15.3039 83.8765 15.8178C83.4794 16.1916 83.0239 16.7171 82.51 17.3945C82.0195 18.0486 81.6457 18.6209 81.3888 19.1114C82.1596 19.1114 83.0589 18.6676 84.0867 17.78C85.1145 16.8923 85.6284 16.1448 85.6284 15.5375Z" fill="white"/>
</svg>
