<svg width="212" height="60" viewBox="0 0 212 60" fill="none" xmlns="http://www.w3.org/2000/svg">
<path d="M24.6408 6.45038C25.8495 6.1871 27.1061 6.03152 28.3746 5.95971V0C26.5675 0.071804 24.8083 0.311135 23.097 0.69409L24.6408 6.45038Z" fill="url(#paint0_linear)"/>
<path d="M13.7388 12.0272C14.6723 11.1895 15.6655 10.4235 16.7306 9.72943L13.7507 4.55957C12.2429 5.51696 10.8307 6.60598 9.52628 7.80271L13.7388 12.0272Z" fill="url(#paint1_linear)"/>
<path d="M18.8244 8.52077C19.9374 7.94634 21.0982 7.46763 22.3069 7.08467L20.7631 1.31641C19.0518 1.85494 17.4122 2.5371 15.8445 3.36285L18.8244 8.52077Z" fill="url(#paint2_linear)"/>
<path d="M9.7296 16.7302C10.4117 15.6771 11.1776 14.6718 12.0273 13.7384L7.81482 9.52588C6.61809 10.8303 5.52907 12.2425 4.57168 13.7503L9.7296 16.7302Z" fill="url(#paint3_linear)"/>
<path d="M5.95973 28.3867C6.01957 27.1062 6.18711 25.8616 6.4504 24.6529L0.694108 23.1091C0.311153 24.8205 0.0837714 26.5797 0 28.3867H5.95973Z" fill="url(#paint4_linear)"/>
<path d="M7.07274 22.3071C7.46766 21.0984 7.94637 19.9375 8.50884 18.8246L3.3509 15.8447C2.52515 17.4124 1.843 19.052 1.30447 20.7633L7.07274 22.3071Z" fill="url(#paint5_linear)"/>
<path d="M55.8277 15.8447L50.6697 18.8246C51.2442 19.9375 51.7229 21.0984 52.1058 22.3071L57.8741 20.7633C57.3356 19.052 56.6414 17.4005 55.8277 15.8447Z" fill="url(#paint6_linear)"/>
<path d="M47.1513 13.7384C47.989 14.6718 48.7549 15.6651 49.449 16.7302L54.6189 13.7503C53.6615 12.2425 52.5725 10.8303 51.3757 9.52588L47.1513 13.7384Z" fill="url(#paint7_linear)"/>
<path opacity="0.43" d="M36.8716 7.08467C38.0803 7.47959 39.2412 7.9583 40.3541 8.52077L43.334 3.36285C41.7663 2.5371 40.1268 1.85494 38.4154 1.31641L36.8716 7.08467Z" fill="#406EB2"/>
<path opacity="0.43" d="M42.4481 9.72945C43.5013 10.4116 44.5065 11.1775 45.44 12.0272L49.6525 7.81471C48.348 6.61797 46.9359 5.52892 45.428 4.57153L42.4481 9.72945Z" fill="#406EB2"/>
<path opacity="0.43" d="M30.8036 5.95971C32.0841 6.01955 33.3287 6.1871 34.5374 6.45038L36.0812 0.69409C34.3699 0.311135 32.6107 0.0837714 30.8036 0V5.95971Z" fill="#406EB2"/>
<path d="M6.4504 34.5378C6.18711 33.3291 6.03153 32.0725 5.95973 30.804H0C0.071804 32.611 0.311153 34.3702 0.694108 36.0816L6.4504 34.5378Z" fill="url(#paint8_linear)"/>
<path d="M8.52085 40.3538C7.94641 39.2409 7.46772 38.08 7.08477 36.8713L1.31652 38.4151C1.85505 40.1264 2.53718 41.766 3.36293 43.3337L8.52085 40.3538Z" fill="url(#paint9_linear)"/>
<path d="M45.44 47.1514C44.5065 47.9891 43.5132 48.755 42.4481 49.4491L45.428 54.619C46.9359 53.6616 48.348 52.5726 49.6525 51.3758L45.44 47.1514Z" fill="url(#paint10_linear)"/>
<path d="M52.1058 36.8833C51.7109 38.092 51.2322 39.2528 50.6697 40.3658L55.8277 43.3457C56.6534 41.778 57.3356 40.1384 57.8741 38.4271L52.1058 36.8833Z" fill="url(#paint11_linear)"/>
<path d="M40.3541 50.6577C39.2412 51.2321 38.0803 51.7109 36.8716 52.0938L38.4154 57.862C40.1268 57.3235 41.7663 56.6414 43.334 55.8156L40.3541 50.6577Z" fill="url(#paint12_linear)"/>
<path d="M52.7282 24.6407C52.9915 25.8494 53.1471 27.106 53.2189 28.3745H59.1786C59.1068 26.5675 58.8674 24.8083 58.4845 23.0969L52.7282 24.6407Z" fill="url(#paint13_linear)"/>
<path d="M53.2189 30.804C53.159 32.0845 52.9915 33.3291 52.7282 34.5378L58.4845 36.0816C58.8674 34.3702 59.0948 32.611 59.1786 30.804H53.2189Z" fill="url(#paint14_linear)"/>
<path d="M49.449 42.4602C48.7669 43.5133 48.0009 44.5186 47.1513 45.452L51.3638 49.6646C52.5605 48.3601 53.6495 46.948 54.6069 45.4401L49.449 42.4602Z" fill="url(#paint15_linear)"/>
<path d="M16.7306 49.4491C15.6775 48.7669 14.6723 48.001 13.7388 47.1514L9.52628 51.3639C10.8307 52.5606 12.2429 53.6496 13.7507 54.607L16.7306 49.4491Z" fill="url(#paint16_linear)"/>
<path d="M12.0272 45.4398C11.1895 44.5064 10.4236 43.5131 9.72954 42.448L4.55964 45.4279C5.51703 46.9357 6.60606 48.3479 7.8028 49.6523L12.0272 45.4398Z" fill="url(#paint17_linear)"/>
<path d="M28.3746 53.2189C27.0941 53.1591 25.8495 52.9916 24.6408 52.7283L23.097 58.4846C24.8083 58.8675 26.5675 59.0949 28.3746 59.1786V53.2189Z" fill="url(#paint18_linear)"/>
<path d="M22.3069 52.1057C21.0982 51.7108 19.9374 51.2321 18.8244 50.6697L15.8445 55.8276C17.4122 56.6533 19.0518 57.3355 20.7631 57.874L22.3069 52.1057Z" fill="url(#paint19_linear)"/>
<path d="M34.5374 52.7283C33.3287 52.9916 32.0721 53.1471 30.8036 53.2189V59.1786C32.6107 59.1068 34.3699 58.8675 36.0812 58.4846L34.5374 52.7283Z" fill="url(#paint20_linear)"/>
<path d="M103.314 6.45038C104.523 6.1871 105.779 6.03152 107.048 5.95971V0C105.241 0.071804 103.481 0.311135 101.77 0.69409L103.314 6.45038Z" fill="url(#paint21_linear)"/>
<path d="M92.3992 12.0272C93.3326 11.1895 94.3259 10.4235 95.391 9.72943L92.4112 4.55957C90.9033 5.51696 89.4911 6.60598 88.1867 7.80271L92.3992 12.0272Z" fill="url(#paint22_linear)"/>
<path d="M97.4854 8.52052C98.5984 7.94609 99.7592 7.46738 100.968 7.08443L99.4241 1.31616C97.7128 1.85469 96.0733 2.53686 94.5056 3.3626L97.4854 8.52052Z" fill="url(#paint23_linear)"/>
<path d="M88.4021 16.7302C89.0842 15.6771 89.8501 14.6718 90.6998 13.7384L86.4873 9.52588C85.2905 10.8303 84.2015 12.2425 83.2441 13.7503L88.4021 16.7302Z" fill="url(#paint24_linear)"/>
<path d="M84.6324 28.3865C84.6923 27.106 84.8598 25.8613 85.1231 24.6526L79.3668 23.1089C78.9838 24.8202 78.7564 26.5794 78.6727 28.3865H84.6324Z" fill="url(#paint25_linear)"/>
<path d="M85.7454 22.3071C86.1403 21.0984 86.619 19.9375 87.1815 18.8246L82.0235 15.8447C81.1978 17.4124 80.5157 19.052 79.9771 20.7633L85.7454 22.3071Z" fill="url(#paint26_linear)"/>
<path opacity="0.43" d="M134.488 15.8447L129.33 18.8246C129.905 19.9375 130.383 21.0984 130.766 22.3071L136.535 20.7633C135.996 19.052 135.314 17.4005 134.488 15.8447Z" fill="#406EB2"/>
<path opacity="0.43" d="M125.812 13.7384C126.65 14.6718 127.416 15.6651 128.11 16.7302L133.28 13.7503C132.323 12.2425 131.234 10.8303 130.037 9.52588L125.812 13.7384Z" fill="#406EB2"/>
<path opacity="0.43" d="M115.544 7.08443C116.753 7.47935 117.914 7.95806 119.027 8.52052L122.006 3.3626C120.439 2.53686 118.799 1.85469 117.088 1.31616L115.544 7.08443Z" fill="#406EB2"/>
<path opacity="0.43" d="M121.121 9.72921C122.174 10.4113 123.18 11.1773 124.113 12.027L128.326 7.81446C127.021 6.61773 125.609 5.52868 124.101 4.57129L121.121 9.72921Z" fill="#406EB2"/>
<path opacity="0.43" d="M109.465 5.95971C110.745 6.01955 111.99 6.1871 113.198 6.45038L114.742 0.69409C113.031 0.311135 111.272 0.0837714 109.465 0V5.95971Z" fill="#406EB2"/>
<path d="M85.1114 34.5378C84.8481 33.3291 84.6926 32.0725 84.6208 30.804H78.661C78.7328 32.611 78.9722 34.3702 79.3551 36.0816L85.1114 34.5378Z" fill="url(#paint27_linear)"/>
<path d="M87.1815 40.3538C86.607 39.2409 86.1283 38.08 85.7454 36.8713L79.9771 38.4151C80.5157 40.1264 81.1978 41.766 82.0235 43.3337L87.1815 40.3538Z" fill="url(#paint28_linear)"/>
<path d="M124.101 47.1514C123.168 47.9891 122.174 48.755 121.109 49.4491L124.089 54.619C125.597 53.6616 127.009 52.5726 128.314 51.3758L124.101 47.1514Z" fill="url(#paint29_linear)"/>
<path d="M130.766 36.8833C130.371 38.092 129.893 39.2528 129.33 40.3658L134.488 43.3457C135.314 41.778 135.996 40.1384 136.535 38.4271L130.766 36.8833Z" fill="url(#paint30_linear)"/>
<path d="M119.027 50.6577C117.914 51.2321 116.753 51.7109 115.544 52.0938L117.088 57.862C118.799 57.3235 120.439 56.6414 122.006 55.8156L119.027 50.6577Z" fill="url(#paint31_linear)"/>
<path opacity="0.43" d="M131.389 24.6407C131.653 25.8494 131.808 27.106 131.88 28.3745H137.84C137.768 26.5675 137.528 24.8083 137.146 23.0969L131.389 24.6407Z" fill="#406EB2"/>
<path d="M131.88 30.804C131.82 32.0845 131.653 33.3291 131.389 34.5378L137.146 36.0816C137.528 34.3702 137.756 32.611 137.84 30.804H131.88Z" fill="url(#paint32_linear)"/>
<path d="M128.11 42.4602C127.428 43.5133 126.662 44.5186 125.812 45.452L130.025 49.6646C131.222 48.3601 132.311 46.948 133.268 45.4401L128.11 42.4602Z" fill="url(#paint33_linear)"/>
<path d="M95.391 49.4491C94.3379 48.7669 93.3326 48.001 92.3992 47.1514L88.1867 51.3639C89.4911 52.5606 90.9033 53.6496 92.4112 54.607L95.391 49.4491Z" fill="url(#paint34_linear)"/>
<path d="M90.6883 45.4398C89.8506 44.5064 89.0847 43.5131 88.3906 42.448L83.2207 45.4279C84.1781 46.9357 85.2671 48.3479 86.4638 49.6523L90.6883 45.4398Z" fill="url(#paint35_linear)"/>
<path d="M107.048 53.2189C105.767 53.1591 104.523 52.9916 103.314 52.7283L101.77 58.4846C103.481 58.8675 105.241 59.0949 107.048 59.1786V53.2189Z" fill="url(#paint36_linear)"/>
<path d="M100.968 52.1057C99.7592 51.7108 98.5984 51.2321 97.4854 50.6697L94.5056 55.8276C96.0733 56.6533 97.7128 57.3355 99.4241 57.874L100.968 52.1057Z" fill="url(#paint37_linear)"/>
<path d="M113.198 52.7283C111.99 52.9916 110.733 53.1471 109.465 53.2189V59.1786C111.272 59.1068 113.031 58.8675 114.742 58.4846L113.198 52.7283Z" fill="url(#paint38_linear)"/>
<path d="M185.434 6.45038C186.643 6.1871 187.899 6.03152 189.168 5.95971V0C187.361 0.071804 185.601 0.311135 183.89 0.69409L185.434 6.45038Z" fill="url(#paint39_linear)"/>
<path d="M174.531 12.0272C175.465 11.1895 176.458 10.4235 177.523 9.72943L174.543 4.55957C173.035 5.51696 171.623 6.60598 170.319 7.80271L174.531 12.0272Z" fill="url(#paint40_linear)"/>
<path d="M179.606 8.52052C180.719 7.94609 181.879 7.46738 183.088 7.08443L181.544 1.31616C179.833 1.85469 178.194 2.53686 176.626 3.3626L179.606 8.52052Z" fill="url(#paint41_linear)"/>
<path d="M170.523 16.7302C171.205 15.6771 171.971 14.6718 172.82 13.7384L168.608 9.52588C167.411 10.8303 166.322 12.2425 165.365 13.7503L170.523 16.7302Z" fill="url(#paint42_linear)"/>
<path d="M166.753 28.3865C166.813 27.106 166.98 25.8613 167.244 24.6526L161.487 23.1089C161.104 24.8202 160.877 26.5794 160.793 28.3865H166.753Z" fill="url(#paint43_linear)"/>
<path d="M167.866 22.3071C168.261 21.0984 168.739 19.9375 169.302 18.8246L164.144 15.8447C163.318 17.4124 162.636 19.052 162.098 20.7633L167.866 22.3071Z" fill="url(#paint44_linear)"/>
<path opacity="0.43" d="M216.609 15.8447L211.451 18.8246C212.025 19.9375 212.504 21.0984 212.887 22.3071L218.655 20.7633C218.117 19.052 217.435 17.4005 216.609 15.8447Z" fill="#406EB2"/>
<path opacity="0.43" d="M207.933 13.7384C208.771 14.6718 209.536 15.6651 210.231 16.7302L215.4 13.7503C214.443 12.2425 213.354 10.8303 212.157 9.52588L207.933 13.7384Z" fill="#406EB2"/>
<path opacity="0.43" d="M197.665 7.08443C198.873 7.47935 200.034 7.95806 201.147 8.52052L204.127 3.3626C202.559 2.53686 200.92 1.85469 199.209 1.31616L197.665 7.08443Z" fill="#406EB2"/>
<path opacity="0.43" d="M203.241 9.72921C204.294 10.4113 205.299 11.1773 206.233 12.027L210.445 7.81446C209.141 6.61773 207.729 5.52868 206.221 4.57129L203.241 9.72921Z" fill="#406EB2"/>
<path opacity="0.43" d="M191.586 5.95971C192.866 6.01955 194.111 6.1871 195.319 6.45038L196.863 0.69409C195.152 0.311135 193.393 0.0837714 191.586 0V5.95971Z" fill="#406EB2"/>
<path d="M167.231 34.5378C166.968 33.3291 166.813 32.0725 166.741 30.804H160.781C160.853 32.611 161.092 34.3702 161.475 36.0816L167.231 34.5378Z" fill="url(#paint45_linear)"/>
<path d="M169.302 40.3538C168.728 39.2409 168.249 38.08 167.866 36.8713L162.098 38.4151C162.636 40.1264 163.318 41.766 164.144 43.3337L169.302 40.3538Z" fill="url(#paint46_linear)"/>
<path opacity="0.43" d="M206.221 47.1514C205.288 47.9891 204.294 48.755 203.229 49.4491L206.209 54.619C207.717 53.6616 209.129 52.5726 210.434 51.3758L206.221 47.1514Z" fill="#406EB2"/>
<path opacity="0.43" d="M212.887 36.8833C212.492 38.092 212.013 39.2528 211.451 40.3658L216.609 43.3457C217.435 41.778 218.117 40.1384 218.655 38.4271L212.887 36.8833Z" fill="#406EB2"/>
<path opacity="0.43" d="M201.147 50.6577C200.034 51.2321 198.873 51.7109 197.665 52.0938L199.209 57.862C200.92 57.3235 202.559 56.6414 204.127 55.8156L201.147 50.6577Z" fill="#406EB2"/>
<path opacity="0.43" d="M210.231 42.4602C209.548 43.5133 208.782 44.5186 207.933 45.452L212.145 49.6646C213.342 48.3601 214.431 46.948 215.388 45.4401L210.231 42.4602Z" fill="#406EB2"/>
<path d="M177.512 49.4491C176.459 48.7669 175.453 48.001 174.52 47.1514L170.307 51.3639C171.612 52.5606 173.024 53.6496 174.532 54.607L177.512 49.4491Z" fill="url(#paint47_linear)"/>
<path d="M172.808 45.4398C171.97 44.5064 171.205 43.5131 170.51 42.448L165.341 45.4279C166.298 46.9357 167.387 48.3479 168.584 49.6523L172.808 45.4398Z" fill="url(#paint48_linear)"/>
<path d="M189.168 53.2189C187.887 53.1591 186.643 52.9916 185.434 52.7283L183.89 58.4846C185.601 58.8675 187.361 59.0949 189.168 59.1786V53.2189Z" fill="url(#paint49_linear)"/>
<path d="M183.088 52.1057C181.879 51.7108 180.719 51.2321 179.606 50.6697L176.626 55.8276C178.194 56.6533 179.833 57.3355 181.544 57.874L183.088 52.1057Z" fill="url(#paint50_linear)"/>
<path opacity="0.43" d="M195.319 52.7283C194.111 52.9916 192.854 53.1471 191.586 53.2189V59.1786C193.393 59.1068 195.152 58.8675 196.863 58.4846L195.319 52.7283Z" fill="#406EB2"/>
<path d="M21.5865 29.8138C21.5865 30.3137 21.4535 30.7585 21.1875 31.1483C20.9261 31.5382 20.5707 31.8431 20.1212 32.0633C20.644 32.288 21.0568 32.6159 21.3595 33.047C21.6668 33.4781 21.8204 33.9665 21.8204 34.5123C21.8204 35.3791 21.5269 36.0693 20.9399 36.5829C20.3574 37.0966 19.5892 37.3534 18.6353 37.3534C17.6722 37.3534 16.8994 37.0966 16.317 36.5829C15.7392 36.0647 15.4502 35.3745 15.4502 34.5123C15.4502 33.9711 15.597 33.4827 15.8905 33.047C16.1886 32.6113 16.5991 32.2811 17.1219 32.0564C16.677 31.8363 16.3262 31.5313 16.0694 31.1415C15.8125 30.7516 15.6841 30.3091 15.6841 29.8138C15.6841 28.9699 15.9547 28.3003 16.4959 27.805C17.037 27.3097 17.7502 27.0621 18.6353 27.0621C19.5158 27.0621 20.2267 27.3097 20.7679 27.805C21.3136 28.3003 21.5865 28.9699 21.5865 29.8138ZM20.5477 34.4848C20.5477 33.9253 20.3689 33.4689 20.0112 33.1158C19.658 32.7627 19.1948 32.5861 18.6215 32.5861C18.0483 32.5861 17.5874 32.7604 17.2388 33.1089C16.8949 33.4575 16.7229 33.9161 16.7229 34.4848C16.7229 35.0534 16.8903 35.5006 17.2251 35.8262C17.5644 36.1518 18.0345 36.3146 18.6353 36.3146C19.2315 36.3146 19.6993 36.1518 20.0387 35.8262C20.378 35.496 20.5477 35.0489 20.5477 34.4848ZM18.6353 28.1077C18.1354 28.1077 17.7295 28.2636 17.4177 28.5755C17.1104 28.8828 16.9568 29.3024 16.9568 29.8344C16.9568 30.3435 17.1081 30.7562 17.4108 31.0727C17.7181 31.3845 18.1262 31.5405 18.6353 31.5405C19.1444 31.5405 19.5502 31.3845 19.8529 31.0727C20.1602 30.7562 20.3138 30.3435 20.3138 29.8344C20.3138 29.3253 20.1556 28.9103 19.8392 28.5893C19.5227 28.2682 19.1214 28.1077 18.6353 28.1077ZM29.704 32.9438C29.704 34.4343 29.4495 35.5419 28.9404 36.2665C28.4313 36.9911 27.6356 37.3534 26.5533 37.3534C25.4847 37.3534 24.6936 37.0003 24.18 36.294C23.6663 35.5831 23.4003 34.5237 23.382 33.1158V31.4166C23.382 29.9445 23.6365 28.8507 24.1456 28.1352C24.6546 27.4198 25.4526 27.0621 26.5395 27.0621C27.6173 27.0621 28.4107 27.4083 28.9198 28.1008C29.4288 28.7888 29.6902 29.8527 29.704 31.2928V32.9438ZM28.4313 31.2034C28.4313 30.1256 28.28 29.3414 27.9773 28.8507C27.6746 28.3554 27.1954 28.1077 26.5395 28.1077C25.8883 28.1077 25.4136 28.3531 25.1155 28.8438C24.8174 29.3345 24.6638 30.0889 24.6546 31.1071V33.1433C24.6546 34.2256 24.8106 35.0259 25.1224 35.5442C25.4389 36.0578 25.9158 36.3146 26.5533 36.3146C27.1816 36.3146 27.6471 36.0716 27.9498 35.5854C28.2571 35.0993 28.4176 34.3334 28.4313 33.2878V31.2034ZM31.2243 29.1258C31.2243 28.5251 31.4146 28.0298 31.7953 27.6399C32.1805 27.2501 32.6735 27.0552 33.2743 27.0552C33.8843 27.0552 34.3773 27.2524 34.7534 27.6468C35.134 28.0366 35.3243 28.5434 35.3243 29.1671V29.6555C35.3243 30.2609 35.1317 30.7562 34.7465 31.1415C34.3658 31.5221 33.8797 31.7124 33.2881 31.7124C32.6919 31.7124 32.1989 31.5221 31.809 31.1415C31.4192 30.7562 31.2243 30.2449 31.2243 29.6074V29.1258ZM32.1736 29.6555C32.1736 30.0133 32.2745 30.3091 32.4763 30.543C32.6781 30.7723 32.9487 30.8869 33.2881 30.8869C33.6137 30.8869 33.8751 30.7746 34.0723 30.5498C34.2741 30.3251 34.375 30.0178 34.375 29.628V29.1258C34.375 28.7681 34.2764 28.4723 34.0792 28.2384C33.882 28.0045 33.6137 27.8876 33.2743 27.8876C32.9349 27.8876 32.6667 28.0045 32.4694 28.2384C32.2722 28.4723 32.1736 28.7773 32.1736 29.1534V29.6555ZM36.1017 34.7599C36.1017 34.1591 36.292 33.6661 36.6727 33.2809C37.0579 32.8911 37.5509 32.6962 38.1517 32.6962C38.7525 32.6962 39.2455 32.8888 39.6307 33.274C40.016 33.6593 40.2086 34.1706 40.2086 34.8081V35.2965C40.2086 35.8973 40.016 36.3926 39.6307 36.7824C39.2501 37.1677 38.7617 37.3603 38.1655 37.3603C37.5693 37.3603 37.0762 37.17 36.6864 36.7893C36.2966 36.4041 36.1017 35.8927 36.1017 35.2552V34.7599ZM37.051 35.2965C37.051 35.6588 37.1519 35.9569 37.3537 36.1908C37.5555 36.4201 37.8261 36.5348 38.1655 36.5348C38.4957 36.5348 38.7594 36.4224 38.9566 36.1977C39.1538 35.9684 39.2524 35.6588 39.2524 35.269V34.7599C39.2524 34.3976 39.1515 34.1018 38.9497 33.8725C38.7525 33.6432 38.4865 33.5286 38.1517 33.5286C37.8261 33.5286 37.5601 33.6432 37.3537 33.8725C37.1519 34.0972 37.051 34.4022 37.051 34.7875V35.2965ZM33.577 36.4591L32.8547 36.0051L37.7458 28.1765L38.4681 28.6305L33.577 36.4591Z" fill="#F5F7F6"/>
<path d="M15.9791 22.6697V17.9479H17.3119C17.7227 17.9479 18.0859 18.0387 18.4016 18.2203C18.7172 18.4019 18.9604 18.6603 19.1312 18.9954C19.3042 19.3305 19.3918 19.7153 19.3939 20.1499V20.4515C19.3939 20.8968 19.3074 21.2871 19.1345 21.6222C18.9637 21.9573 18.7183 22.2146 18.3983 22.394C18.0805 22.5735 17.7097 22.6654 17.286 22.6697H15.9791ZM16.6017 18.4603V22.1605H17.2568C17.7368 22.1605 18.1097 22.0114 18.3756 21.713C18.6437 21.4146 18.7778 20.9898 18.7778 20.4385V20.1629C18.7778 19.6267 18.6513 19.2105 18.3983 18.9143C18.1475 18.6159 17.7908 18.4646 17.3281 18.4603H16.6017ZM22.8736 21.4373H20.8954L20.4511 22.6697H19.809L21.6121 17.9479H22.1569L23.9633 22.6697H23.3244L22.8736 21.4373ZM21.0835 20.925H22.6888L21.8845 18.7165L21.0835 20.925ZM27.4398 18.4603H25.922V22.6697H25.3026V18.4603H23.7882V17.9479H27.4398V18.4603ZM30.4882 21.4373H28.51L28.0657 22.6697H27.4236L29.2267 17.9479H29.7715L31.5778 22.6697H30.9389L30.4882 21.4373ZM28.698 20.925H30.3033L29.4991 18.7165L28.698 20.925ZM36.6661 20.6558C36.6661 21.3584 36.5461 21.8806 36.3061 22.2221C36.0661 22.5637 35.691 22.7345 35.1808 22.7345C34.677 22.7345 34.3041 22.5681 34.0619 22.2351C33.8198 21.9 33.6944 21.4006 33.6858 20.7369V19.9358C33.6858 19.2418 33.8057 18.7262 34.0457 18.3889C34.2857 18.0517 34.6619 17.883 35.1743 17.883C35.6824 17.883 36.0564 18.0463 36.2964 18.3727C36.5363 18.697 36.6596 19.1986 36.6661 19.8775V20.6558ZM36.0661 19.8353C36.0661 19.3272 35.9948 18.9575 35.8521 18.7262C35.7094 18.4927 35.4835 18.376 35.1743 18.376C34.8673 18.376 34.6435 18.4916 34.503 18.723C34.3625 18.9543 34.29 19.3099 34.2857 19.7899V20.7498C34.2857 21.2601 34.3592 21.6373 34.5062 21.8816C34.6554 22.1238 34.8803 22.2448 35.1808 22.2448C35.477 22.2448 35.6964 22.1303 35.8391 21.9011C35.984 21.6719 36.0596 21.3109 36.0661 20.8179V19.8353ZM39.4064 22.6697H38.8032V18.6711L37.5936 19.1154V18.5705L39.3123 17.9252H39.4064V22.6697Z" fill="#F5F7F6"/>
<path d="M102.308 27.9151L98.1598 37.2158H96.8252L100.96 28.2453H95.5388V27.1997H102.308V27.9151ZM104.337 32.194L104.846 27.1997H109.978V28.376H105.926L105.624 31.1071C106.114 30.8181 106.672 30.6737 107.295 30.6737C108.208 30.6737 108.933 30.9764 109.469 31.5817C110.006 32.1825 110.274 32.9966 110.274 34.0239C110.274 35.0557 109.994 35.8698 109.435 36.466C108.88 37.0576 108.103 37.3534 107.103 37.3534C106.218 37.3534 105.495 37.108 104.936 36.6173C104.376 36.1266 104.058 35.4479 103.98 34.5811H105.183C105.261 35.1543 105.466 35.5877 105.796 35.8812C106.126 36.1702 106.562 36.3146 107.103 36.3146C107.694 36.3146 108.158 36.1128 108.492 35.7093C108.832 35.3057 109.001 34.7485 109.001 34.0376C109.001 33.368 108.818 32.8315 108.451 32.4279C108.089 32.0197 107.605 31.8156 107 31.8156C106.445 31.8156 106.009 31.9372 105.693 32.1802L105.355 32.4554L104.337 32.194ZM111.554 29.1258C111.554 28.5251 111.744 28.0298 112.125 27.6399C112.51 27.2501 113.003 27.0552 113.604 27.0552C114.214 27.0552 114.707 27.2524 115.083 27.6468C115.463 28.0366 115.654 28.5434 115.654 29.1671V29.6555C115.654 30.2609 115.461 30.7562 115.076 31.1415C114.695 31.5221 114.209 31.7124 113.617 31.7124C113.021 31.7124 112.528 31.5221 112.138 31.1415C111.749 30.7562 111.554 30.2449 111.554 29.6074V29.1258ZM112.503 29.6555C112.503 30.0133 112.604 30.3091 112.806 30.543C113.007 30.7723 113.278 30.8869 113.617 30.8869C113.943 30.8869 114.204 30.7746 114.402 30.5498C114.603 30.3251 114.704 30.0178 114.704 29.628V29.1258C114.704 28.7681 114.606 28.4723 114.409 28.2384C114.211 28.0045 113.943 27.8876 113.604 27.8876C113.264 27.8876 112.996 28.0045 112.799 28.2384C112.602 28.4723 112.503 28.7773 112.503 29.1534V29.6555ZM116.431 34.7599C116.431 34.1591 116.621 33.6661 117.002 33.2809C117.387 32.8911 117.88 32.6962 118.481 32.6962C119.082 32.6962 119.575 32.8888 119.96 33.274C120.345 33.6593 120.538 34.1706 120.538 34.8081V35.2965C120.538 35.8973 120.345 36.3926 119.96 36.7824C119.579 37.1677 119.091 37.3603 118.495 37.3603C117.899 37.3603 117.406 37.17 117.016 36.7893C116.626 36.4041 116.431 35.8927 116.431 35.2552V34.7599ZM117.38 35.2965C117.38 35.6588 117.481 35.9569 117.683 36.1908C117.885 36.4201 118.155 36.5348 118.495 36.5348C118.825 36.5348 119.089 36.4224 119.286 36.1977C119.483 35.9684 119.582 35.6588 119.582 35.269V34.7599C119.582 34.3976 119.481 34.1018 119.279 33.8725C119.082 33.6432 118.816 33.5286 118.481 33.5286C118.155 33.5286 117.889 33.6432 117.683 33.8725C117.481 34.0972 117.38 34.4022 117.38 34.7875V35.2965ZM113.906 36.4591L113.184 36.0051L118.075 28.1765L118.797 28.6305L113.906 36.4591Z" fill="#F5F7F6"/>
<path d="M96.3088 22.6697V17.9479H97.6417C98.0525 17.9479 98.4157 18.0387 98.7313 18.2203C99.047 18.4019 99.2902 18.6603 99.461 18.9954C99.6339 19.3305 99.7215 19.7153 99.7237 20.1499V20.4515C99.7237 20.8968 99.6372 21.2871 99.4642 21.6222C99.2934 21.9573 99.048 22.2146 98.7281 22.394C98.4103 22.5735 98.0395 22.6654 97.6157 22.6697H96.3088ZM96.9315 18.4603V22.1605H97.5865C98.0665 22.1605 98.4394 22.0114 98.7054 21.713C98.9735 21.4146 99.1075 20.9898 99.1075 20.4385V20.1629C99.1075 19.6267 98.981 19.2105 98.7281 18.9143C98.4773 18.6159 98.1206 18.4646 97.6579 18.4603H96.9315ZM103.203 21.4373H101.225L100.781 22.6697H100.139L101.942 17.9479H102.487L104.293 22.6697H103.654L103.203 21.4373ZM101.413 20.925H103.019L102.214 18.7165L101.413 20.925ZM107.77 18.4603H106.252V22.6697H105.632V18.4603H104.118V17.9479H107.77V18.4603ZM110.818 21.4373H108.84L108.395 22.6697H107.753L109.556 17.9479H110.101L111.908 22.6697H111.269L110.818 21.4373ZM109.028 20.925H110.633L109.829 18.7165L109.028 20.925ZM116.996 20.6558C116.996 21.3584 116.876 21.8806 116.636 22.2221C116.396 22.5637 116.021 22.7345 115.511 22.7345C115.007 22.7345 114.634 22.5681 114.392 22.2351C114.15 21.9 114.024 21.4006 114.016 20.7369V19.9358C114.016 19.2418 114.135 18.7262 114.375 18.3889C114.615 18.0517 114.992 17.883 115.504 17.883C116.012 17.883 116.386 18.0463 116.626 18.3727C116.866 18.697 116.989 19.1986 116.996 19.8775V20.6558ZM116.396 19.8353C116.396 19.3272 116.325 18.9575 116.182 18.7262C116.039 18.4927 115.813 18.376 115.504 18.376C115.197 18.376 114.973 18.4916 114.833 18.723C114.692 18.9543 114.62 19.3099 114.615 19.7899V20.7498C114.615 21.2601 114.689 21.6373 114.836 21.8816C114.985 22.1238 115.21 22.2448 115.511 22.2448C115.807 22.2448 116.026 22.1303 116.169 21.9011C116.314 21.6719 116.389 21.3109 116.396 20.8179V19.8353ZM119.736 22.6697H119.133V18.6711L117.923 19.1154V18.5705L119.642 17.9252H119.736V22.6697Z" fill="#F5F7F6"/>
<path d="M178.221 32.194L178.73 27.1997H183.862V28.376H179.81L179.508 31.1071C179.998 30.8181 180.556 30.6737 181.179 30.6737C182.092 30.6737 182.817 30.9764 183.353 31.5817C183.89 32.1825 184.158 32.9966 184.158 34.0239C184.158 35.0557 183.878 35.8698 183.319 36.466C182.764 37.0576 181.986 37.3534 180.987 37.3534C180.102 37.3534 179.379 37.108 178.82 36.6173C178.26 36.1266 177.941 35.4479 177.863 34.5811H179.067C179.145 35.1543 179.349 35.5877 179.68 35.8812C180.01 36.1702 180.445 36.3146 180.987 36.3146C181.578 36.3146 182.041 36.1128 182.376 35.7093C182.716 35.3057 182.885 34.7485 182.885 34.0376C182.885 33.368 182.702 32.8315 182.335 32.4279C181.973 32.0197 181.489 31.8156 180.883 31.8156C180.329 31.8156 179.893 31.9372 179.576 32.1802L179.239 32.4554L178.221 32.194ZM191.828 32.9438C191.828 34.4343 191.574 35.5419 191.065 36.2665C190.556 36.9911 189.76 37.3534 188.678 37.3534C187.609 37.3534 186.818 37.0003 186.304 36.294C185.791 35.5831 185.525 34.5237 185.506 33.1158V31.4166C185.506 29.9445 185.761 28.8507 186.27 28.1352C186.779 27.4198 187.577 27.0621 188.664 27.0621C189.742 27.0621 190.535 27.4083 191.044 28.1008C191.553 28.7888 191.815 29.8527 191.828 31.2928V32.9438ZM190.556 31.2034C190.556 30.1256 190.404 29.3414 190.102 28.8507C189.799 28.3554 189.32 28.1077 188.664 28.1077C188.013 28.1077 187.538 28.3531 187.24 28.8438C186.942 29.3345 186.788 30.0889 186.779 31.1071V33.1433C186.779 34.2256 186.935 35.0259 187.247 35.5442C187.563 36.0578 188.04 36.3146 188.678 36.3146C189.306 36.3146 189.771 36.0716 190.074 35.5854C190.381 35.0993 190.542 34.3334 190.556 33.2878V31.2034ZM193.349 29.1258C193.349 28.5251 193.539 28.0298 193.92 27.6399C194.305 27.2501 194.798 27.0552 195.399 27.0552C196.009 27.0552 196.502 27.2524 196.878 27.6468C197.258 28.0366 197.449 28.5434 197.449 29.1671V29.6555C197.449 30.2609 197.256 30.7562 196.871 31.1415C196.49 31.5221 196.004 31.7124 195.412 31.7124C194.816 31.7124 194.323 31.5221 193.933 31.1415C193.544 30.7562 193.349 30.2449 193.349 29.6074V29.1258ZM194.298 29.6555C194.298 30.0133 194.399 30.3091 194.601 30.543C194.802 30.7723 195.073 30.8869 195.412 30.8869C195.738 30.8869 195.999 30.7746 196.197 30.5498C196.398 30.3251 196.499 30.0178 196.499 29.628V29.1258C196.499 28.7681 196.401 28.4723 196.204 28.2384C196.006 28.0045 195.738 27.8876 195.399 27.8876C195.059 27.8876 194.791 28.0045 194.594 28.2384C194.397 28.4723 194.298 28.7773 194.298 29.1534V29.6555ZM198.226 34.7599C198.226 34.1591 198.416 33.6661 198.797 33.2809C199.182 32.8911 199.675 32.6962 200.276 32.6962C200.877 32.6962 201.37 32.8888 201.755 33.274C202.14 33.6593 202.333 34.1706 202.333 34.8081V35.2965C202.333 35.8973 202.14 36.3926 201.755 36.7824C201.374 37.1677 200.886 37.3603 200.29 37.3603C199.694 37.3603 199.201 37.17 198.811 36.7893C198.421 36.4041 198.226 35.8927 198.226 35.2552V34.7599ZM199.175 35.2965C199.175 35.6588 199.276 35.9569 199.478 36.1908C199.68 36.4201 199.95 36.5348 200.29 36.5348C200.62 36.5348 200.884 36.4224 201.081 36.1977C201.278 35.9684 201.377 35.6588 201.377 35.269V34.7599C201.377 34.3976 201.276 34.1018 201.074 33.8725C200.877 33.6432 200.611 33.5286 200.276 33.5286C199.95 33.5286 199.684 33.6432 199.478 33.8725C199.276 34.0972 199.175 34.4022 199.175 34.7875V35.2965ZM195.701 36.4591L194.979 36.0051L199.87 28.1765L200.592 28.6305L195.701 36.4591Z" fill="#F5F7F6"/>
<path d="M178.104 22.6697V17.9479H179.437C179.848 17.9479 180.211 18.0387 180.527 18.2203C180.842 18.4019 181.085 18.6603 181.256 18.9954C181.429 19.3305 181.517 19.7153 181.519 20.1499V20.4515C181.519 20.8968 181.432 21.2871 181.259 21.6222C181.089 21.9573 180.843 22.2146 180.523 22.394C180.205 22.5735 179.835 22.6654 179.411 22.6697H178.104ZM178.727 18.4603V22.1605H179.382C179.862 22.1605 180.235 22.0114 180.501 21.713C180.769 21.4146 180.903 20.9898 180.903 20.4385V20.1629C180.903 19.6267 180.776 19.2105 180.523 18.9143C180.272 18.6159 179.916 18.4646 179.453 18.4603H178.727ZM184.999 21.4373H183.02L182.576 22.6697H181.934L183.737 17.9479H184.282L186.088 22.6697H185.449L184.999 21.4373ZM183.208 20.925H184.814L184.009 18.7165L183.208 20.925ZM189.565 18.4603H188.047V22.6697H187.428V18.4603H185.913V17.9479H189.565V18.4603ZM192.613 21.4373H190.635L190.191 22.6697H189.549L191.352 17.9479H191.896L193.703 22.6697H193.064L192.613 21.4373ZM190.823 20.925H192.428L191.624 18.7165L190.823 20.925ZM198.791 20.6558C198.791 21.3584 198.671 21.8806 198.431 22.2221C198.191 22.5637 197.816 22.7345 197.306 22.7345C196.802 22.7345 196.429 22.5681 196.187 22.2351C195.945 21.9 195.819 21.4006 195.811 20.7369V19.9358C195.811 19.2418 195.931 18.7262 196.171 18.3889C196.411 18.0517 196.787 17.883 197.299 17.883C197.807 17.883 198.181 18.0463 198.421 18.3727C198.661 18.697 198.785 19.1986 198.791 19.8775V20.6558ZM198.191 19.8353C198.191 19.3272 198.12 18.9575 197.977 18.7262C197.834 18.4927 197.608 18.376 197.299 18.376C196.992 18.376 196.768 18.4916 196.628 18.723C196.487 18.9543 196.415 19.3099 196.411 19.7899V20.7498C196.411 21.2601 196.484 21.6373 196.631 21.8816C196.78 22.1238 197.005 22.2448 197.306 22.2448C197.602 22.2448 197.821 22.1303 197.964 21.9011C198.109 21.6719 198.185 21.3109 198.191 20.8179V19.8353ZM201.531 22.6697H200.928V18.6711L199.719 19.1154V18.5705L201.437 17.9252H201.531V22.6697Z" fill="#F5F7F6"/>
<defs>
<linearGradient id="paint0_linear" x1="-4.85287" y1="3.22854" x2="280.272" y2="3.22854" gradientUnits="userSpaceOnUse">
<stop offset="0.0101" stop-color="#F408AB"/>
<stop offset="1" stop-color="#27B7FF"/>
</linearGradient>
<linearGradient id="paint1_linear" x1="-4.85253" y1="8.29936" x2="280.272" y2="8.29936" gradientUnits="userSpaceOnUse">
<stop offset="0.0101" stop-color="#F408AB"/>
<stop offset="1" stop-color="#27B7FF"/>
</linearGradient>
<linearGradient id="paint2_linear" x1="-4.85322" y1="4.91835" x2="280.272" y2="4.91835" gradientUnits="userSpaceOnUse">
<stop offset="0.0101" stop-color="#F408AB"/>
<stop offset="1" stop-color="#27B7FF"/>
</linearGradient>
<linearGradient id="paint3_linear" x1="-4.85233" y1="13.1273" x2="280.265" y2="13.1273" gradientUnits="userSpaceOnUse">
<stop offset="0.0101" stop-color="#F408AB"/>
<stop offset="1" stop-color="#27B7FF"/>
</linearGradient>
<linearGradient id="paint4_linear" x1="-4.85276" y1="25.7416" x2="280.271" y2="25.7416" gradientUnits="userSpaceOnUse">
<stop offset="0.0101" stop-color="#F408AB"/>
<stop offset="1" stop-color="#27B7FF"/>
</linearGradient>
<linearGradient id="paint5_linear" x1="-4.85262" y1="19.0747" x2="280.269" y2="19.0747" gradientUnits="userSpaceOnUse">
<stop offset="0.0101" stop-color="#F408AB"/>
<stop offset="1" stop-color="#27B7FF"/>
</linearGradient>
<linearGradient id="paint6_linear" x1="52.6454" y1="19.0747" x2="81.5157" y2="19.0747" gradientUnits="userSpaceOnUse">
<stop offset="0.0101" stop-color="#F408AB"/>
<stop offset="1" stop-color="#27B7FF"/>
</linearGradient>
<linearGradient id="paint7_linear" x1="52.6454" y1="13.1273" x2="81.5157" y2="13.1273" gradientUnits="userSpaceOnUse">
<stop offset="0.0101" stop-color="#F408AB"/>
<stop offset="1" stop-color="#27B7FF"/>
</linearGradient>
<linearGradient id="paint8_linear" x1="-4.85276" y1="33.4424" x2="280.271" y2="33.4424" gradientUnits="userSpaceOnUse">
<stop offset="0.0101" stop-color="#F408AB"/>
<stop offset="1" stop-color="#27B7FF"/>
</linearGradient>
<linearGradient id="paint9_linear" x1="-4.85251" y1="40.109" x2="280.268" y2="40.109" gradientUnits="userSpaceOnUse">
<stop offset="0.0101" stop-color="#F408AB"/>
<stop offset="1" stop-color="#27B7FF"/>
</linearGradient>
<linearGradient id="paint10_linear" x1="-4.85305" y1="50.8845" x2="280.271" y2="50.8845" gradientUnits="userSpaceOnUse">
<stop offset="0.0101" stop-color="#F408AB"/>
<stop offset="1" stop-color="#27B7FF"/>
</linearGradient>
<linearGradient id="paint11_linear" x1="-4.85268" y1="40.109" x2="280.269" y2="40.109" gradientUnits="userSpaceOnUse">
<stop offset="0.0101" stop-color="#F408AB"/>
<stop offset="1" stop-color="#27B7FF"/>
</linearGradient>
<linearGradient id="paint12_linear" x1="-4.85269" y1="54.2654" x2="280.271" y2="54.2654" gradientUnits="userSpaceOnUse">
<stop offset="0.0101" stop-color="#F408AB"/>
<stop offset="1" stop-color="#27B7FF"/>
</linearGradient>
<linearGradient id="paint13_linear" x1="52.6455" y1="25.7413" x2="81.5158" y2="25.7413" gradientUnits="userSpaceOnUse">
<stop offset="0.0101" stop-color="#F408AB"/>
<stop offset="1" stop-color="#27B7FF"/>
</linearGradient>
<linearGradient id="paint14_linear" x1="-4.85305" y1="33.4424" x2="280.271" y2="33.4424" gradientUnits="userSpaceOnUse">
<stop offset="0.0101" stop-color="#F408AB"/>
<stop offset="1" stop-color="#27B7FF"/>
</linearGradient>
<linearGradient id="paint15_linear" x1="-4.85315" y1="46.0565" x2="280.27" y2="46.0565" gradientUnits="userSpaceOnUse">
<stop offset="0.0101" stop-color="#F408AB"/>
<stop offset="1" stop-color="#27B7FF"/>
</linearGradient>
<linearGradient id="paint16_linear" x1="-4.85253" y1="50.8844" x2="280.272" y2="50.8844" gradientUnits="userSpaceOnUse">
<stop offset="0.0101" stop-color="#F408AB"/>
<stop offset="1" stop-color="#27B7FF"/>
</linearGradient>
<linearGradient id="paint17_linear" x1="-4.85242" y1="46.0563" x2="280.266" y2="46.0563" gradientUnits="userSpaceOnUse">
<stop offset="0.0101" stop-color="#F408AB"/>
<stop offset="1" stop-color="#27B7FF"/>
</linearGradient>
<linearGradient id="paint18_linear" x1="-4.85287" y1="55.9554" x2="280.272" y2="55.9554" gradientUnits="userSpaceOnUse">
<stop offset="0.0101" stop-color="#F408AB"/>
<stop offset="1" stop-color="#27B7FF"/>
</linearGradient>
<linearGradient id="paint19_linear" x1="-4.85322" y1="54.2654" x2="280.272" y2="54.2654" gradientUnits="userSpaceOnUse">
<stop offset="0.0101" stop-color="#F408AB"/>
<stop offset="1" stop-color="#27B7FF"/>
</linearGradient>
<linearGradient id="paint20_linear" x1="-4.85336" y1="55.9554" x2="280.271" y2="55.9554" gradientUnits="userSpaceOnUse">
<stop offset="0.0101" stop-color="#F408AB"/>
<stop offset="1" stop-color="#27B7FF"/>
</linearGradient>
<linearGradient id="paint21_linear" x1="-4.85422" y1="3.22854" x2="280.271" y2="3.22854" gradientUnits="userSpaceOnUse">
<stop offset="0.0101" stop-color="#F408AB"/>
<stop offset="1" stop-color="#27B7FF"/>
</linearGradient>
<linearGradient id="paint22_linear" x1="-4.8543" y1="8.29936" x2="280.269" y2="8.29936" gradientUnits="userSpaceOnUse">
<stop offset="0.0101" stop-color="#F408AB"/>
<stop offset="1" stop-color="#27B7FF"/>
</linearGradient>
<linearGradient id="paint23_linear" x1="-4.85401" y1="4.9181" x2="280.269" y2="4.9181" gradientUnits="userSpaceOnUse">
<stop offset="0.0101" stop-color="#F408AB"/>
<stop offset="1" stop-color="#27B7FF"/>
</linearGradient>
<linearGradient id="paint24_linear" x1="-4.85275" y1="13.1273" x2="280.266" y2="13.1273" gradientUnits="userSpaceOnUse">
<stop offset="0.0101" stop-color="#F408AB"/>
<stop offset="1" stop-color="#27B7FF"/>
</linearGradient>
<linearGradient id="paint25_linear" x1="-4.85276" y1="25.7413" x2="280.266" y2="25.7413" gradientUnits="userSpaceOnUse">
<stop offset="0.0101" stop-color="#F408AB"/>
<stop offset="1" stop-color="#27B7FF"/>
</linearGradient>
<linearGradient id="paint26_linear" x1="-4.85404" y1="19.0747" x2="280.271" y2="19.0747" gradientUnits="userSpaceOnUse">
<stop offset="0.0101" stop-color="#F408AB"/>
<stop offset="1" stop-color="#27B7FF"/>
</linearGradient>
<linearGradient id="paint27_linear" x1="-4.85196" y1="33.4424" x2="280.266" y2="33.4424" gradientUnits="userSpaceOnUse">
<stop offset="0.0101" stop-color="#F408AB"/>
<stop offset="1" stop-color="#27B7FF"/>
</linearGradient>
<linearGradient id="paint28_linear" x1="-4.85404" y1="40.109" x2="280.271" y2="40.109" gradientUnits="userSpaceOnUse">
<stop offset="0.0101" stop-color="#F408AB"/>
<stop offset="1" stop-color="#27B7FF"/>
</linearGradient>
<linearGradient id="paint29_linear" x1="-4.85162" y1="50.8845" x2="280.267" y2="50.8845" gradientUnits="userSpaceOnUse">
<stop offset="0.0101" stop-color="#F408AB"/>
<stop offset="1" stop-color="#27B7FF"/>
</linearGradient>
<linearGradient id="paint30_linear" x1="-4.85273" y1="40.109" x2="280.267" y2="40.109" gradientUnits="userSpaceOnUse">
<stop offset="0.0101" stop-color="#F408AB"/>
<stop offset="1" stop-color="#27B7FF"/>
</linearGradient>
<linearGradient id="paint31_linear" x1="-4.85496" y1="54.2654" x2="280.27" y2="54.2654" gradientUnits="userSpaceOnUse">
<stop offset="0.0101" stop-color="#F408AB"/>
<stop offset="1" stop-color="#27B7FF"/>
</linearGradient>
<linearGradient id="paint32_linear" x1="-4.85315" y1="33.4424" x2="280.269" y2="33.4424" gradientUnits="userSpaceOnUse">
<stop offset="0.0101" stop-color="#F408AB"/>
<stop offset="1" stop-color="#27B7FF"/>
</linearGradient>
<linearGradient id="paint33_linear" x1="-4.85404" y1="46.0565" x2="280.269" y2="46.0565" gradientUnits="userSpaceOnUse">
<stop offset="0.0101" stop-color="#F408AB"/>
<stop offset="1" stop-color="#27B7FF"/>
</linearGradient>
<linearGradient id="paint34_linear" x1="-4.8543" y1="50.8844" x2="280.269" y2="50.8844" gradientUnits="userSpaceOnUse">
<stop offset="0.0101" stop-color="#F408AB"/>
<stop offset="1" stop-color="#27B7FF"/>
</linearGradient>
<linearGradient id="paint35_linear" x1="-4.85198" y1="46.0563" x2="280.266" y2="46.0563" gradientUnits="userSpaceOnUse">
<stop offset="0.0101" stop-color="#F408AB"/>
<stop offset="1" stop-color="#27B7FF"/>
</linearGradient>
<linearGradient id="paint36_linear" x1="-4.85422" y1="55.9554" x2="280.271" y2="55.9554" gradientUnits="userSpaceOnUse">
<stop offset="0.0101" stop-color="#F408AB"/>
<stop offset="1" stop-color="#27B7FF"/>
</linearGradient>
<linearGradient id="paint37_linear" x1="-4.85401" y1="54.2654" x2="280.269" y2="54.2654" gradientUnits="userSpaceOnUse">
<stop offset="0.0101" stop-color="#F408AB"/>
<stop offset="1" stop-color="#27B7FF"/>
</linearGradient>
<linearGradient id="paint38_linear" x1="-4.85454" y1="55.9554" x2="280.27" y2="55.9554" gradientUnits="userSpaceOnUse">
<stop offset="0.0101" stop-color="#F408AB"/>
<stop offset="1" stop-color="#27B7FF"/>
</linearGradient>
<linearGradient id="paint39_linear" x1="-4.85054" y1="3.22854" x2="280.268" y2="3.22854" gradientUnits="userSpaceOnUse">
<stop offset="0.0101" stop-color="#F408AB"/>
<stop offset="1" stop-color="#27B7FF"/>
</linearGradient>
<linearGradient id="paint40_linear" x1="-4.8514" y1="8.29936" x2="280.268" y2="8.29936" gradientUnits="userSpaceOnUse">
<stop offset="0.0101" stop-color="#F408AB"/>
<stop offset="1" stop-color="#27B7FF"/>
</linearGradient>
<linearGradient id="paint41_linear" x1="-4.85067" y1="4.91811" x2="280.267" y2="4.91811" gradientUnits="userSpaceOnUse">
<stop offset="0.0101" stop-color="#F408AB"/>
<stop offset="1" stop-color="#27B7FF"/>
</linearGradient>
<linearGradient id="paint42_linear" x1="-4.85386" y1="13.1273" x2="280.269" y2="13.1273" gradientUnits="userSpaceOnUse">
<stop offset="0.0101" stop-color="#F408AB"/>
<stop offset="1" stop-color="#27B7FF"/>
</linearGradient>
<linearGradient id="paint43_linear" x1="-4.85373" y1="25.7413" x2="280.269" y2="25.7413" gradientUnits="userSpaceOnUse">
<stop offset="0.0101" stop-color="#F408AB"/>
<stop offset="1" stop-color="#27B7FF"/>
</linearGradient>
<linearGradient id="paint44_linear" x1="-4.85197" y1="19.0747" x2="280.268" y2="19.0747" gradientUnits="userSpaceOnUse">
<stop offset="0.0101" stop-color="#F408AB"/>
<stop offset="1" stop-color="#27B7FF"/>
</linearGradient>
<linearGradient id="paint45_linear" x1="-4.85382" y1="33.4424" x2="280.269" y2="33.4424" gradientUnits="userSpaceOnUse">
<stop offset="0.0101" stop-color="#F408AB"/>
<stop offset="1" stop-color="#27B7FF"/>
</linearGradient>
<linearGradient id="paint46_linear" x1="-4.85197" y1="40.109" x2="280.268" y2="40.109" gradientUnits="userSpaceOnUse">
<stop offset="0.0101" stop-color="#F408AB"/>
<stop offset="1" stop-color="#27B7FF"/>
</linearGradient>
<linearGradient id="paint47_linear" x1="-4.85174" y1="50.8844" x2="280.269" y2="50.8844" gradientUnits="userSpaceOnUse">
<stop offset="0.0101" stop-color="#F408AB"/>
<stop offset="1" stop-color="#27B7FF"/>
</linearGradient>
<linearGradient id="paint48_linear" x1="-4.85346" y1="46.0563" x2="280.269" y2="46.0563" gradientUnits="userSpaceOnUse">
<stop offset="0.0101" stop-color="#F408AB"/>
<stop offset="1" stop-color="#27B7FF"/>
</linearGradient>
<linearGradient id="paint49_linear" x1="-4.85054" y1="55.9554" x2="280.268" y2="55.9554" gradientUnits="userSpaceOnUse">
<stop offset="0.0101" stop-color="#F408AB"/>
<stop offset="1" stop-color="#27B7FF"/>
</linearGradient>
<linearGradient id="paint50_linear" x1="-4.85067" y1="54.2654" x2="280.267" y2="54.2654" gradientUnits="userSpaceOnUse">
<stop offset="0.0101" stop-color="#F408AB"/>
<stop offset="1" stop-color="#27B7FF"/>
</linearGradient>
</defs>
</svg>
