<svg width="101" height="60" viewBox="0 0 101 60" fill="none" xmlns="http://www.w3.org/2000/svg">
<path d="M100.862 2.86694H-10.6219V3.20629H100.862V2.86694Z" fill="#FDFEFF"/>
<path d="M100.862 6.66479H-10.6219V7.00414H100.862V6.66479Z" fill="#FDFEFF"/>
<path d="M100.862 10.4629H-10.6219V10.8022H100.862V10.4629Z" fill="#FDFEFF"/>
<path d="M100.862 14.2654H-10.6219V14.6094H100.862V14.2654Z" fill="#FDFEFF"/>
<path d="M100.862 18.0635H-10.6219V18.4075H100.862V18.0635Z" fill="#FDFEFF"/>
<path d="M100.862 21.8613H-10.6219V22.2053H100.862V21.8613Z" fill="#FDFEFF"/>
<path d="M100.862 25.6592H-10.6219V25.9985H100.862V25.6592Z" fill="#FDFEFF"/>
<path d="M100.862 29.4573H-10.6219V29.8013H100.862V29.4573Z" fill="#FDFEFF"/>
<path d="M100.862 33.2554H-10.6219V33.5947H100.862V33.2554Z" fill="#FDFEFF"/>
<path d="M100.862 37.0576H-10.6219V37.397H100.862V37.0576Z" fill="#FDFEFF"/>
<path d="M100.862 40.8557H-10.6219V41.1951H100.862V40.8557Z" fill="#FDFEFF"/>
<path d="M100.862 44.6536H-10.6219V44.9929H100.862V44.6536Z" fill="#FDFEFF"/>
<path d="M100.862 48.4517H-10.6219V48.791H100.862V48.4517Z" fill="#FDFEFF"/>
<path d="M100.862 52.2495H-10.6219V52.5889H100.862V52.2495Z" fill="#FDFEFF"/>
<path d="M9.70691 2.96924H9.36757V52.5703H9.70691V2.96924Z" fill="#FDFEFF"/>
<path d="M19.8502 2.96924H19.5108V52.5703H19.8502V2.96924Z" fill="#FDFEFF"/>
<path d="M29.9934 2.96924H29.6541V52.5703H29.9934V2.96924Z" fill="#FDFEFF"/>
<path d="M40.1322 2.96924H39.7929V52.5703H40.1322V2.96924Z" fill="#FDFEFF"/>
<path d="M50.2755 2.96924H49.9361V52.5703H50.2755V2.96924Z" fill="#FDFEFF"/>
<path d="M60.419 2.96924H60.0797V52.5703H60.419V2.96924Z" fill="#FDFEFF"/>
<path d="M70.5623 2.96924H70.223V52.5703H70.5623V2.96924Z" fill="#FDFEFF"/>
<path d="M80.7056 2.96924H80.3662V52.5703H80.7056V2.96924Z" fill="#FDFEFF"/>
<path d="M90.8488 2.96924H90.5095V52.5703H90.8488V2.96924Z" fill="#FDFEFF"/>
<path d="M100.988 2.96924H100.648V52.5703H100.988V2.96924Z" fill="#FDFEFF"/>
<path d="M-2.99486 58.4194H-4.42833V58.2196L-3.67102 57.3781C-3.55883 57.2509 -3.4817 57.1477 -3.43962 57.0686C-3.39655 56.9885 -3.37501 56.9058 -3.37501 56.8207C-3.37501 56.7065 -3.40957 56.6128 -3.47869 56.5397C-3.54781 56.4666 -3.63997 56.43 -3.75517 56.43C-3.89341 56.43 -4.00109 56.4696 -4.07823 56.5487C-4.15436 56.6268 -4.19242 56.736 -4.19242 56.8763H-4.4704C-4.4704 56.6749 -4.40579 56.5121 -4.27657 56.3879C-4.14634 56.2637 -3.97254 56.2016 -3.75517 56.2016C-3.55182 56.2016 -3.39104 56.2552 -3.27284 56.3624C-3.15463 56.4686 -3.09553 56.6103 -3.09553 56.7876C-3.09553 57.003 -3.23277 57.2594 -3.50724 57.5569L-4.09325 58.1925H-2.99486V58.4194ZM-1.32848 57.4863C-1.32848 57.8119 -1.38408 58.0538 -1.49527 58.2121C-1.60646 58.3703 -1.78026 58.4495 -2.01667 58.4495C-2.25007 58.4495 -2.42287 58.3724 -2.53506 58.2181C-2.64726 58.0628 -2.70536 57.8314 -2.70936 57.5239V57.1527C-2.70936 56.8312 -2.65377 56.5923 -2.54258 56.436C-2.43138 56.2797 -2.25708 56.2016 -2.01967 56.2016C-1.78427 56.2016 -1.61097 56.2772 -1.49978 56.4285C-1.38858 56.5788 -1.33149 56.8112 -1.32848 57.1257V57.4863ZM-1.60646 57.1062C-1.60646 56.8708 -1.63952 56.6995 -1.70563 56.5923C-1.77175 56.4841 -1.87643 56.43 -2.01967 56.43C-2.16192 56.43 -2.2656 56.4836 -2.33071 56.5908C-2.39582 56.698 -2.42938 56.8627 -2.43138 57.0851V57.5299C-2.43138 57.7663 -2.39733 57.9411 -2.32921 58.0543C-2.26009 58.1665 -2.15591 58.2226 -2.01667 58.2226C-1.87943 58.2226 -1.77776 58.1695 -1.71164 58.0633C-1.64453 57.9571 -1.60947 57.7898 -1.60646 57.5615V57.1062ZM-0.0587886 58.4194H-0.338271V56.5667L-0.898739 56.7726V56.5202L-0.102364 56.2211H-0.0587886V58.4194ZM0.883338 57.3225L0.99453 56.2317H2.11546V56.4886H1.23044L1.16432 57.0851C1.27151 57.022 1.39322 56.9905 1.52945 56.9905C1.7288 56.9905 1.88707 57.0566 2.00427 57.1888C2.12148 57.32 2.18008 57.4978 2.18008 57.7222C2.18008 57.9476 2.11897 58.1254 1.99676 58.2557C1.87555 58.3849 1.70576 58.4495 1.48738 58.4495C1.29405 58.4495 1.13627 58.3959 1.01406 58.2887C0.891852 58.1815 0.822232 58.0333 0.805203 57.8439H1.06816C1.08519 57.9692 1.12976 58.0638 1.20189 58.1279C1.27401 58.191 1.36918 58.2226 1.48738 58.2226C1.6166 58.2226 1.71778 58.1785 1.7909 58.0904C1.86503 58.0022 1.9021 57.8805 1.9021 57.7252C1.9021 57.579 1.86203 57.4618 1.78189 57.3736C1.70275 57.2845 1.59707 57.2399 1.46484 57.2399C1.34363 57.2399 1.24847 57.2664 1.17935 57.3195L1.10572 57.3796L0.883338 57.3225Z" fill="#F5F7F6"/>
<path d="M7.55224 58.4194H6.11876V58.2196L6.87607 57.3781C6.98827 57.2509 7.0654 57.1477 7.10747 57.0686C7.15055 56.9885 7.17208 56.9058 7.17208 56.8207C7.17208 56.7065 7.13752 56.6128 7.0684 56.5397C6.99928 56.4666 6.90713 56.43 6.79193 56.43C6.65369 56.43 6.546 56.4696 6.46887 56.5487C6.39274 56.6268 6.35467 56.736 6.35467 56.8763H6.07669C6.07669 56.6749 6.1413 56.5121 6.27053 56.3879C6.40075 56.2637 6.57455 56.2016 6.79193 56.2016C6.99528 56.2016 7.15606 56.2552 7.27426 56.3624C7.39246 56.4686 7.45157 56.6103 7.45157 56.7876C7.45157 57.003 7.31433 57.2594 7.03985 57.5569L6.45384 58.1925H7.55224V58.4194ZM9.21862 57.4863C9.21862 57.8119 9.16302 58.0538 9.05183 58.2121C8.94064 58.3703 8.76684 58.4495 8.53043 58.4495C8.29702 58.4495 8.12423 58.3724 8.01203 58.2181C7.89984 58.0628 7.84174 57.8314 7.83773 57.5239V57.1527C7.83773 56.8312 7.89333 56.5923 8.00452 56.436C8.11571 56.2797 8.29001 56.2016 8.52742 56.2016C8.76283 56.2016 8.93613 56.2772 9.04732 56.4285C9.15851 56.5788 9.21561 56.8112 9.21862 57.1257V57.4863ZM8.94064 57.1062C8.94064 56.8708 8.90758 56.6995 8.84146 56.5923C8.77535 56.4841 8.67067 56.43 8.52742 56.43C8.38518 56.43 8.2815 56.4836 8.21639 56.5908C8.15127 56.698 8.11772 56.8627 8.11571 57.0851V57.5299C8.11571 57.7663 8.14977 57.9411 8.21789 58.0543C8.28701 58.1665 8.39119 58.2226 8.53043 58.2226C8.66766 58.2226 8.76934 58.1695 8.83545 58.0633C8.90257 57.9571 8.93763 57.7898 8.94064 57.5615V57.1062ZM10.4883 58.4194H10.2088V56.5667L9.64836 56.7726V56.5202L10.4447 56.2211H10.4883V58.4194ZM12.3936 56.2302V56.4661H12.3425C12.1261 56.4701 11.9538 56.5342 11.8256 56.6584C11.6974 56.7826 11.6233 56.9574 11.6032 57.1828C11.7184 57.0506 11.8757 56.9845 12.075 56.9845C12.2654 56.9845 12.4171 57.0516 12.5303 57.1858C12.6445 57.32 12.7016 57.4933 12.7016 57.7057C12.7016 57.9311 12.64 58.1114 12.5168 58.2466C12.3946 58.3819 12.2303 58.4495 12.024 58.4495C11.8146 58.4495 11.6448 58.3693 11.5146 58.2091C11.3844 58.0478 11.3192 57.8404 11.3192 57.587V57.4803C11.3192 57.0776 11.4049 56.7701 11.5762 56.5577C11.7485 56.3444 12.0044 56.2352 12.344 56.2302H12.3936ZM12.0285 57.2159C11.9333 57.2159 11.8457 57.2444 11.7655 57.3015C11.6854 57.3586 11.6298 57.4302 11.5987 57.5164V57.6186C11.5987 57.7989 11.6393 57.9441 11.7204 58.0543C11.8016 58.1645 11.9027 58.2196 12.024 58.2196C12.1492 58.2196 12.2473 58.1735 12.3185 58.0813C12.3906 57.9892 12.4267 57.8685 12.4267 57.7192C12.4267 57.569 12.3901 57.4478 12.317 57.3556C12.2448 57.2624 12.1487 57.2159 12.0285 57.2159Z" fill="#F5F7F6"/>
<path d="M17.9681 58.4194H16.5346V58.2196L17.2919 57.3781C17.4041 57.2509 17.4813 57.1477 17.5233 57.0686C17.5664 56.9885 17.5879 56.9058 17.5879 56.8207C17.5879 56.7065 17.5534 56.6128 17.4843 56.5397C17.4151 56.4666 17.323 56.43 17.2078 56.43C17.0696 56.43 16.9619 56.4696 16.8847 56.5487C16.8086 56.6268 16.7705 56.736 16.7705 56.8763H16.4926C16.4926 56.6749 16.5572 56.5121 16.6864 56.3879C16.8166 56.2637 16.9904 56.2016 17.2078 56.2016C17.4111 56.2016 17.5719 56.2552 17.6901 56.3624C17.8083 56.4686 17.8674 56.6103 17.8674 56.7876C17.8674 57.003 17.7302 57.2594 17.4557 57.5569L16.8697 58.1925H17.9681V58.4194ZM19.6345 57.4863C19.6345 57.8119 19.5789 58.0538 19.4677 58.2121C19.3565 58.3703 19.1827 58.4495 18.9463 58.4495C18.7129 58.4495 18.5401 58.3724 18.4279 58.2181C18.3157 58.0628 18.2576 57.8314 18.2536 57.5239V57.1527C18.2536 56.8312 18.3092 56.5923 18.4204 56.436C18.5316 56.2797 18.7059 56.2016 18.9433 56.2016C19.1787 56.2016 19.352 56.2772 19.4632 56.4285C19.5744 56.5788 19.6315 56.8112 19.6345 57.1257V57.4863ZM19.3565 57.1062C19.3565 56.8708 19.3234 56.6995 19.2573 56.5923C19.1912 56.4841 19.0865 56.43 18.9433 56.43C18.801 56.43 18.6974 56.4836 18.6322 56.5908C18.5671 56.698 18.5336 56.8627 18.5316 57.0851V57.5299C18.5316 57.7663 18.5656 57.9411 18.6338 58.0543C18.7029 58.1665 18.8071 58.2226 18.9463 58.2226C19.0835 58.2226 19.1852 58.1695 19.2513 58.0633C19.3184 57.9571 19.3535 57.7898 19.3565 57.5615V57.1062ZM20.9042 58.4194H20.6247V56.5667L20.0642 56.7726V56.5202L20.8606 56.2211H20.9042V58.4194ZM23.131 56.3879L22.225 58.4194H21.9334L22.8365 56.4601H21.6525V56.2317H23.131V56.3879Z" fill="#F5F7F6"/>
<path d="M27.8128 58.4194H26.3793V58.2196L27.1366 57.3781C27.2488 57.2509 27.326 57.1477 27.368 57.0686C27.4111 56.9885 27.4327 56.9058 27.4327 56.8207C27.4327 56.7065 27.3981 56.6128 27.329 56.5397C27.2599 56.4666 27.1677 56.43 27.0525 56.43C26.9143 56.43 26.8066 56.4696 26.7294 56.5487C26.6533 56.6268 26.6152 56.736 26.6152 56.8763H26.3373C26.3373 56.6749 26.4019 56.5121 26.5311 56.3879C26.6613 56.2637 26.8351 56.2016 27.0525 56.2016C27.2559 56.2016 27.4166 56.2552 27.5348 56.3624C27.653 56.4686 27.7121 56.6103 27.7121 56.7876C27.7121 57.003 27.5749 57.2594 27.3004 57.5569L26.7144 58.1925H27.8128V58.4194ZM29.4792 57.4863C29.4792 57.8119 29.4236 58.0538 29.3124 58.2121C29.2012 58.3703 29.0274 58.4495 28.791 58.4495C28.5576 58.4495 28.3848 58.3724 28.2726 58.2181C28.1604 58.0628 28.1023 57.8314 28.0983 57.5239V57.1527C28.0983 56.8312 28.1539 56.5923 28.2651 56.436C28.3763 56.2797 28.5506 56.2016 28.788 56.2016C29.0234 56.2016 29.1967 56.2772 29.3079 56.4285C29.4191 56.5788 29.4762 56.8112 29.4792 57.1257V57.4863ZM29.2012 57.1062C29.2012 56.8708 29.1682 56.6995 29.102 56.5923C29.0359 56.4841 28.9312 56.43 28.788 56.43C28.6458 56.43 28.5421 56.4836 28.477 56.5908C28.4118 56.698 28.3783 56.8627 28.3763 57.0851V57.5299C28.3763 57.7663 28.4103 57.9411 28.4785 58.0543C28.5476 58.1665 28.6518 58.2226 28.791 58.2226C28.9282 58.2226 29.0299 58.1695 29.096 58.0633C29.1631 57.9571 29.1982 57.7898 29.2012 57.5615V57.1062ZM30.7489 58.4194H30.4694V56.5667L29.9089 56.7726V56.5202L30.7053 56.2211H30.7489V58.4194ZM32.8901 56.8026C32.8901 56.9118 32.861 57.009 32.8029 57.0941C32.7458 57.1793 32.6682 57.2459 32.57 57.294C32.6842 57.3431 32.7744 57.4147 32.8405 57.5089C32.9076 57.603 32.9412 57.7097 32.9412 57.8289C32.9412 58.0182 32.8771 58.169 32.7488 58.2812C32.6216 58.3934 32.4538 58.4495 32.2455 58.4495C32.0351 58.4495 31.8663 58.3934 31.7391 58.2812C31.6129 58.168 31.5498 58.0172 31.5498 57.8289C31.5498 57.7107 31.5818 57.604 31.6459 57.5089C31.711 57.4137 31.8007 57.3416 31.9149 57.2925C31.8177 57.2444 31.7411 57.1778 31.685 57.0926C31.6289 57.0075 31.6009 56.9108 31.6009 56.8026C31.6009 56.6183 31.66 56.4721 31.7782 56.3639C31.8964 56.2557 32.0521 56.2016 32.2455 56.2016C32.4378 56.2016 32.5931 56.2557 32.7113 56.3639C32.8305 56.4721 32.8901 56.6183 32.8901 56.8026ZM32.6632 57.8229C32.6632 57.7007 32.6241 57.601 32.546 57.5239C32.4689 57.4468 32.3677 57.4082 32.2425 57.4082C32.1172 57.4082 32.0166 57.4463 31.9404 57.5224C31.8653 57.5985 31.8277 57.6987 31.8277 57.8229C31.8277 57.9471 31.8643 58.0448 31.9374 58.1159C32.0116 58.187 32.1142 58.2226 32.2455 58.2226C32.3757 58.2226 32.4779 58.187 32.552 58.1159C32.6261 58.0438 32.6632 57.9461 32.6632 57.8229ZM32.2455 56.43C32.1363 56.43 32.0476 56.4641 31.9795 56.5322C31.9124 56.5993 31.8788 56.6909 31.8788 56.8072C31.8788 56.9183 31.9119 57.0085 31.978 57.0776C32.0451 57.1457 32.1343 57.1798 32.2455 57.1798C32.3567 57.1798 32.4453 57.1457 32.5114 57.0776C32.5785 57.0085 32.6121 56.9183 32.6121 56.8072C32.6121 56.696 32.5775 56.6053 32.5084 56.5352C32.4393 56.4651 32.3516 56.43 32.2455 56.43Z" fill="#F5F7F6"/>
<path d="M38.0533 58.4194H36.6198V58.2196L37.3771 57.3781C37.4893 57.2509 37.5665 57.1477 37.6085 57.0686C37.6516 56.9885 37.6731 56.9058 37.6731 56.8207C37.6731 56.7065 37.6386 56.6128 37.5695 56.5397C37.5003 56.4666 37.4082 56.43 37.293 56.43C37.1547 56.43 37.0471 56.4696 36.9699 56.5487C36.8938 56.6268 36.8557 56.736 36.8557 56.8763H36.5778C36.5778 56.6749 36.6424 56.5121 36.7716 56.3879C36.9018 56.2637 37.0756 56.2016 37.293 56.2016C37.4963 56.2016 37.6571 56.2552 37.7753 56.3624C37.8935 56.4686 37.9526 56.6103 37.9526 56.7876C37.9526 57.003 37.8154 57.2594 37.5409 57.5569L36.9549 58.1925H38.0533V58.4194ZM39.7197 57.4863C39.7197 57.8119 39.6641 58.0538 39.5529 58.2121C39.4417 58.3703 39.2679 58.4495 39.0315 58.4495C38.7981 58.4495 38.6253 58.3724 38.5131 58.2181C38.4009 58.0628 38.3428 57.8314 38.3388 57.5239V57.1527C38.3388 56.8312 38.3944 56.5923 38.5056 56.436C38.6168 56.2797 38.7911 56.2016 39.0285 56.2016C39.2639 56.2016 39.4372 56.2772 39.5484 56.4285C39.6596 56.5788 39.7167 56.8112 39.7197 57.1257V57.4863ZM39.4417 57.1062C39.4417 56.8708 39.4086 56.6995 39.3425 56.5923C39.2764 56.4841 39.1717 56.43 39.0285 56.43C38.8862 56.43 38.7826 56.4836 38.7174 56.5908C38.6523 56.698 38.6188 56.8627 38.6168 57.0851V57.5299C38.6168 57.7663 38.6508 57.9411 38.7189 58.0543C38.7881 58.1665 38.8922 58.2226 39.0315 58.2226C39.1687 58.2226 39.2704 58.1695 39.3365 58.0633C39.4036 57.9571 39.4387 57.7898 39.4417 57.5615V57.1062ZM40.9894 58.4194H40.7099V56.5667L40.1494 56.7726V56.5202L40.9458 56.2211H40.9894V58.4194ZM42.8691 57.4578C42.811 57.5269 42.7414 57.5825 42.6603 57.6246C42.5801 57.6666 42.492 57.6877 42.3958 57.6877C42.2696 57.6877 42.1594 57.6566 42.0652 57.5945C41.9721 57.5324 41.8999 57.4453 41.8489 57.3331C41.7978 57.2199 41.7722 57.0951 41.7722 56.9589C41.7722 56.8127 41.7998 56.6809 41.8549 56.5637C41.911 56.4465 41.9901 56.3569 42.0923 56.2948C42.1944 56.2327 42.3137 56.2016 42.4499 56.2016C42.6663 56.2016 42.8366 56.2827 42.9608 56.445C43.086 56.6063 43.1486 56.8267 43.1486 57.1062V57.1873C43.1486 57.613 43.0645 57.9241 42.8962 58.1204C42.7279 58.3158 42.4739 58.4159 42.1343 58.4209H42.0803V58.1865H42.1389C42.3682 58.1825 42.5446 58.1229 42.6678 58.0077C42.791 57.8915 42.8581 57.7082 42.8691 57.4578ZM42.4409 57.4578C42.534 57.4578 42.6197 57.4292 42.6978 57.3721C42.777 57.315 42.8346 57.2444 42.8706 57.1603V57.0491C42.8706 56.8668 42.831 56.7185 42.7519 56.6043C42.6728 56.4901 42.5726 56.433 42.4514 56.433C42.3292 56.433 42.231 56.4801 42.1569 56.5742C42.0828 56.6674 42.0457 56.7906 42.0457 56.9439C42.0457 57.0931 42.0813 57.2164 42.1524 57.3135C42.2245 57.4097 42.3207 57.4578 42.4409 57.4578Z" fill="#F5F7F6"/>
<path d="M48.601 58.4194H47.1675V58.2196L47.9248 57.3781C48.037 57.2509 48.1142 57.1477 48.1562 57.0686C48.1993 56.9885 48.2208 56.9058 48.2208 56.8207C48.2208 56.7065 48.1863 56.6128 48.1172 56.5397C48.048 56.4666 47.9559 56.43 47.8407 56.43C47.7024 56.43 47.5948 56.4696 47.5176 56.5487C47.4415 56.6268 47.4034 56.736 47.4034 56.8763H47.1254C47.1254 56.6749 47.1901 56.5121 47.3193 56.3879C47.4495 56.2637 47.6233 56.2016 47.8407 56.2016C48.044 56.2016 48.2048 56.2552 48.323 56.3624C48.4412 56.4686 48.5003 56.6103 48.5003 56.7876C48.5003 57.003 48.3631 57.2594 48.0886 57.5569L47.5026 58.1925H48.601V58.4194ZM50.2674 57.4863C50.2674 57.8119 50.2118 58.0538 50.1006 58.2121C49.9894 58.3703 49.8156 58.4495 49.5792 58.4495C49.3458 58.4495 49.173 58.3724 49.0608 58.2181C48.9486 58.0628 48.8905 57.8314 48.8865 57.5239V57.1527C48.8865 56.8312 48.9421 56.5923 49.0533 56.436C49.1645 56.2797 49.3388 56.2016 49.5762 56.2016C49.8116 56.2016 49.9849 56.2772 50.0961 56.4285C50.2073 56.5788 50.2644 56.8112 50.2674 57.1257V57.4863ZM49.9894 57.1062C49.9894 56.8708 49.9563 56.6995 49.8902 56.5923C49.8241 56.4841 49.7194 56.43 49.5762 56.43C49.4339 56.43 49.3302 56.4836 49.2651 56.5908C49.2 56.698 49.1665 56.8627 49.1645 57.0851V57.5299C49.1645 57.7663 49.1985 57.9411 49.2666 58.0543C49.3358 58.1665 49.4399 58.2226 49.5792 58.2226C49.7164 58.2226 49.8181 58.1695 49.8842 58.0633C49.9513 57.9571 49.9864 57.7898 49.9894 57.5615V57.1062ZM52.057 58.4194H50.6235V58.2196L51.3808 57.3781C51.493 57.2509 51.5701 57.1477 51.6122 57.0686C51.6553 56.9885 51.6768 56.9058 51.6768 56.8207C51.6768 56.7065 51.6422 56.6128 51.5731 56.5397C51.504 56.4666 51.4118 56.43 51.2966 56.43C51.1584 56.43 51.0507 56.4696 50.9736 56.5487C50.8975 56.6268 50.8594 56.736 50.8594 56.8763H50.5814C50.5814 56.6749 50.646 56.5121 50.7752 56.3879C50.9055 56.2637 51.0793 56.2016 51.2966 56.2016C51.5 56.2016 51.6608 56.2552 51.779 56.3624C51.8972 56.4686 51.9563 56.6103 51.9563 56.7876C51.9563 57.003 51.819 57.2594 51.5446 57.5569L50.9586 58.1925H52.057V58.4194ZM53.7233 57.4863C53.7233 57.8119 53.6677 58.0538 53.5565 58.2121C53.4454 58.3703 53.2716 58.4495 53.0351 58.4495C52.8017 58.4495 52.6289 58.3724 52.5168 58.2181C52.4046 58.0628 52.3465 57.8314 52.3424 57.5239V57.1527C52.3424 56.8312 52.398 56.5923 52.5092 56.436C52.6204 56.2797 52.7947 56.2016 53.0321 56.2016C53.2675 56.2016 53.4408 56.2772 53.552 56.4285C53.6632 56.5788 53.7203 56.8112 53.7233 57.1257V57.4863ZM53.4454 57.1062C53.4454 56.8708 53.4123 56.6995 53.3462 56.5923C53.2801 56.4841 53.1754 56.43 53.0321 56.43C52.8899 56.43 52.7862 56.4836 52.7211 56.5908C52.656 56.698 52.6224 56.8627 52.6204 57.0851V57.5299C52.6204 57.7663 52.6545 57.9411 52.7226 58.0543C52.7917 58.1665 52.8959 58.2226 53.0351 58.2226C53.1724 58.2226 53.2741 58.1695 53.3402 58.0633C53.4073 57.9571 53.4423 57.7898 53.4454 57.5615V57.1062Z" fill="#F5F7F6"/>
<path d="M59.0604 58.4194H57.6269V58.2196L58.3842 57.3781C58.4964 57.2509 58.5736 57.1477 58.6156 57.0686C58.6587 56.9885 58.6802 56.9058 58.6802 56.8207C58.6802 56.7065 58.6457 56.6128 58.5766 56.5397C58.5074 56.4666 58.4153 56.43 58.3001 56.43C58.1619 56.43 58.0542 56.4696 57.977 56.5487C57.9009 56.6268 57.8628 56.736 57.8628 56.8763H57.5849C57.5849 56.6749 57.6495 56.5121 57.7787 56.3879C57.9089 56.2637 58.0827 56.2016 58.3001 56.2016C58.5034 56.2016 58.6642 56.2552 58.7824 56.3624C58.9006 56.4686 58.9597 56.6103 58.9597 56.7876C58.9597 57.003 58.8225 57.2594 58.548 57.5569L57.962 58.1925H59.0604V58.4194ZM60.7268 57.4863C60.7268 57.8119 60.6712 58.0538 60.56 58.2121C60.4488 58.3703 60.275 58.4495 60.0386 58.4495C59.8052 58.4495 59.6324 58.3724 59.5202 58.2181C59.408 58.0628 59.3499 57.8314 59.3459 57.5239V57.1527C59.3459 56.8312 59.4015 56.5923 59.5127 56.436C59.6239 56.2797 59.7982 56.2016 60.0356 56.2016C60.271 56.2016 60.4443 56.2772 60.5555 56.4285C60.6667 56.5788 60.7238 56.8112 60.7268 57.1257V57.4863ZM60.4488 57.1062C60.4488 56.8708 60.4157 56.6995 60.3496 56.5923C60.2835 56.4841 60.1788 56.43 60.0356 56.43C59.8933 56.43 59.7897 56.4836 59.7245 56.5908C59.6594 56.698 59.6259 56.8627 59.6239 57.0851V57.5299C59.6239 57.7663 59.6579 57.9411 59.7261 58.0543C59.7952 58.1665 59.8994 58.2226 60.0386 58.2226C60.1758 58.2226 60.2775 58.1695 60.3436 58.0633C60.4107 57.9571 60.4458 57.7898 60.4488 57.5615V57.1062ZM62.5164 58.4194H61.0829V58.2196L61.8402 57.3781C61.9524 57.2509 62.0295 57.1477 62.0716 57.0686C62.1147 56.9885 62.1362 56.9058 62.1362 56.8207C62.1362 56.7065 62.1017 56.6128 62.0325 56.5397C61.9634 56.4666 61.8713 56.43 61.7561 56.43C61.6178 56.43 61.5101 56.4696 61.433 56.5487C61.3569 56.6268 61.3188 56.736 61.3188 56.8763H61.0408C61.0408 56.6749 61.1054 56.5121 61.2347 56.3879C61.3649 56.2637 61.5387 56.2016 61.7561 56.2016C61.9594 56.2016 62.1202 56.2552 62.2384 56.3624C62.3566 56.4686 62.4157 56.6103 62.4157 56.7876C62.4157 57.003 62.2785 57.2594 62.004 57.5569L61.418 58.1925H62.5164V58.4194ZM63.7245 58.4194H63.445V56.5667L62.8845 56.7726V56.5202L63.6809 56.2211H63.7245V58.4194Z" fill="#F5F7F6"/>
<path d="M68.9713 58.4194H67.5378V58.2196L68.2952 57.3781C68.4073 57.2509 68.4845 57.1477 68.5266 57.0686C68.5696 56.9885 68.5912 56.9058 68.5912 56.8207C68.5912 56.7065 68.5566 56.6128 68.4875 56.5397C68.4184 56.4666 68.3262 56.43 68.211 56.43C68.0728 56.43 67.9651 56.4696 67.888 56.5487C67.8118 56.6268 67.7738 56.736 67.7738 56.8763H67.4958C67.4958 56.6749 67.5604 56.5121 67.6896 56.3879C67.8198 56.2637 67.9936 56.2016 68.211 56.2016C68.4144 56.2016 68.5751 56.2552 68.6933 56.3624C68.8115 56.4686 68.8706 56.6103 68.8706 56.7876C68.8706 57.003 68.7334 57.2594 68.4589 57.5569L67.8729 58.1925H68.9713V58.4194ZM70.6377 57.4863C70.6377 57.8119 70.5821 58.0538 70.4709 58.2121C70.3597 58.3703 70.1859 58.4495 69.9495 58.4495C69.7161 58.4495 69.5433 58.3724 69.4311 58.2181C69.3189 58.0628 69.2608 57.8314 69.2568 57.5239V57.1527C69.2568 56.8312 69.3124 56.5923 69.4236 56.436C69.5348 56.2797 69.7091 56.2016 69.9465 56.2016C70.1819 56.2016 70.3552 56.2772 70.4664 56.4285C70.5776 56.5788 70.6347 56.8112 70.6377 57.1257V57.4863ZM70.3597 57.1062C70.3597 56.8708 70.3267 56.6995 70.2605 56.5923C70.1944 56.4841 70.0898 56.43 69.9465 56.43C69.8043 56.43 69.7006 56.4836 69.6355 56.5908C69.5704 56.698 69.5368 56.8627 69.5348 57.0851V57.5299C69.5348 57.7663 69.5689 57.9411 69.637 58.0543C69.7061 58.1665 69.8103 58.2226 69.9495 58.2226C70.0867 58.2226 70.1884 58.1695 70.2545 58.0633C70.3217 57.9571 70.3567 57.7898 70.3597 57.5615V57.1062ZM72.4273 58.4194H70.9938V58.2196L71.7511 57.3781C71.8633 57.2509 71.9404 57.1477 71.9825 57.0686C72.0256 56.9885 72.0471 56.9058 72.0471 56.8207C72.0471 56.7065 72.0126 56.6128 71.9435 56.5397C71.8743 56.4666 71.7822 56.43 71.667 56.43C71.5287 56.43 71.4211 56.4696 71.3439 56.5487C71.2678 56.6268 71.2297 56.736 71.2297 56.8763H70.9517C70.9517 56.6749 71.0164 56.5121 71.1456 56.3879C71.2758 56.2637 71.4496 56.2016 71.667 56.2016C71.8703 56.2016 72.0311 56.2552 72.1493 56.3624C72.2675 56.4686 72.3266 56.6103 72.3266 56.7876C72.3266 57.003 72.1894 57.2594 71.9149 57.5569L71.3289 58.1925H72.4273V58.4194ZM74.1553 58.4194H72.7218V58.2196L73.4791 57.3781C73.5913 57.2509 73.6684 57.1477 73.7105 57.0686C73.7536 56.9885 73.7751 56.9058 73.7751 56.8207C73.7751 56.7065 73.7406 56.6128 73.6714 56.5397C73.6023 56.4666 73.5102 56.43 73.395 56.43C73.2567 56.43 73.149 56.4696 73.0719 56.5487C72.9958 56.6268 72.9577 56.736 72.9577 56.8763H72.6797C72.6797 56.6749 72.7443 56.5121 72.8736 56.3879C73.0038 56.2637 73.1776 56.2016 73.395 56.2016C73.5983 56.2016 73.7591 56.2552 73.8773 56.3624C73.9955 56.4686 74.0546 56.6103 74.0546 56.7876C74.0546 57.003 73.9174 57.2594 73.6429 57.5569L73.0569 58.1925H74.1553V58.4194Z" fill="#F5F7F6"/>
<path d="M78.9043 58.4194H77.4708V58.2196L78.2281 57.3781C78.3403 57.2509 78.4175 57.1477 78.4595 57.0686C78.5026 56.9885 78.5242 56.9058 78.5242 56.8207C78.5242 56.7065 78.4896 56.6128 78.4205 56.5397C78.3514 56.4666 78.2592 56.43 78.144 56.43C78.0058 56.43 77.8981 56.4696 77.8209 56.5487C77.7448 56.6268 77.7067 56.736 77.7067 56.8763H77.4288C77.4288 56.6749 77.4934 56.5121 77.6226 56.3879C77.7528 56.2637 77.9266 56.2016 78.144 56.2016C78.3474 56.2016 78.5081 56.2552 78.6263 56.3624C78.7445 56.4686 78.8036 56.6103 78.8036 56.7876C78.8036 57.003 78.6664 57.2594 78.3919 57.5569L77.8059 58.1925H78.9043V58.4194ZM80.5707 57.4863C80.5707 57.8119 80.5151 58.0538 80.4039 58.2121C80.2927 58.3703 80.1189 58.4495 79.8825 58.4495C79.6491 58.4495 79.4763 58.3724 79.3641 58.2181C79.2519 58.0628 79.1938 57.8314 79.1898 57.5239V57.1527C79.1898 56.8312 79.2454 56.5923 79.3566 56.436C79.4678 56.2797 79.6421 56.2016 79.8795 56.2016C80.1149 56.2016 80.2882 56.2772 80.3994 56.4285C80.5106 56.5788 80.5677 56.8112 80.5707 57.1257V57.4863ZM80.2927 57.1062C80.2927 56.8708 80.2597 56.6995 80.1935 56.5923C80.1274 56.4841 80.0227 56.43 79.8795 56.43C79.7373 56.43 79.6336 56.4836 79.5685 56.5908C79.5033 56.698 79.4698 56.8627 79.4678 57.0851V57.5299C79.4678 57.7663 79.5018 57.9411 79.57 58.0543C79.6391 58.1665 79.7433 58.2226 79.8825 58.2226C80.0197 58.2226 80.1214 58.1695 80.1875 58.0633C80.2546 57.9571 80.2897 57.7898 80.2927 57.5615V57.1062ZM82.3603 58.4194H80.9268V58.2196L81.6841 57.3781C81.7963 57.2509 81.8734 57.1477 81.9155 57.0686C81.9586 56.9885 81.9801 56.9058 81.9801 56.8207C81.9801 56.7065 81.9456 56.6128 81.8764 56.5397C81.8073 56.4666 81.7152 56.43 81.6 56.43C81.4617 56.43 81.354 56.4696 81.2769 56.5487C81.2008 56.6268 81.1627 56.736 81.1627 56.8763H80.8847C80.8847 56.6749 80.9493 56.5121 81.0786 56.3879C81.2088 56.2637 81.3826 56.2016 81.6 56.2016C81.8033 56.2016 81.9641 56.2552 82.0823 56.3624C82.2005 56.4686 82.2596 56.6103 82.2596 56.7876C82.2596 57.003 82.1224 57.2594 81.8479 57.5569L81.2619 58.1925H82.3603V58.4194ZM83.059 57.1903H83.2678C83.3991 57.1883 83.5023 57.1537 83.5774 57.0866C83.6525 57.0195 83.6901 56.9289 83.6901 56.8147C83.6901 56.5582 83.5624 56.43 83.3069 56.43C83.1867 56.43 83.0905 56.4646 83.0184 56.5337C82.9473 56.6018 82.9117 56.6925 82.9117 56.8056H82.6338C82.6338 56.6323 82.6969 56.4886 82.8231 56.3744C82.9503 56.2592 83.1116 56.2016 83.3069 56.2016C83.5133 56.2016 83.675 56.2562 83.7923 56.3654C83.9095 56.4746 83.9681 56.6263 83.9681 56.8207C83.9681 56.9158 83.937 57.008 83.8749 57.0972C83.8138 57.1863 83.7301 57.2529 83.624 57.297C83.7442 57.3351 83.8368 57.3982 83.9019 57.4863C83.9681 57.5745 84.0011 57.6822 84.0011 57.8094C84.0011 58.0057 83.937 58.1615 83.8088 58.2767C83.6806 58.3919 83.5138 58.4495 83.3084 58.4495C83.1031 58.4495 82.9358 58.3939 82.8065 58.2827C82.6783 58.1715 82.6142 58.0248 82.6142 57.8424H82.8937C82.8937 57.9576 82.9313 58.0498 83.0064 58.1189C83.0815 58.188 83.1822 58.2226 83.3084 58.2226C83.4426 58.2226 83.5453 58.1875 83.6164 58.1174C83.6876 58.0473 83.7231 57.9466 83.7231 57.8154C83.7231 57.6882 83.6841 57.5905 83.6059 57.5224C83.5278 57.4543 83.4151 57.4192 83.2678 57.4172H83.059V57.1903Z" fill="#F5F7F6"/>
<path d="M89.123 58.4194H87.6896V58.2196L88.4469 57.3781C88.5591 57.2509 88.6362 57.1477 88.6783 57.0686C88.7213 56.9885 88.7429 56.9058 88.7429 56.8207C88.7429 56.7065 88.7083 56.6128 88.6392 56.5397C88.5701 56.4666 88.4779 56.43 88.3627 56.43C88.2245 56.43 88.1168 56.4696 88.0397 56.5487C87.9635 56.6268 87.9255 56.736 87.9255 56.8763H87.6475C87.6475 56.6749 87.7121 56.5121 87.8413 56.3879C87.9715 56.2637 88.1453 56.2016 88.3627 56.2016C88.5661 56.2016 88.7268 56.2552 88.8451 56.3624C88.9633 56.4686 89.0224 56.6103 89.0224 56.7876C89.0224 57.003 88.8851 57.2594 88.6106 57.5569L88.0246 58.1925H89.123V58.4194ZM90.7894 57.4863C90.7894 57.8119 90.7338 58.0538 90.6226 58.2121C90.5114 58.3703 90.3376 58.4495 90.1012 58.4495C89.8678 58.4495 89.695 58.3724 89.5828 58.2181C89.4706 58.0628 89.4125 57.8314 89.4085 57.5239V57.1527C89.4085 56.8312 89.4641 56.5923 89.5753 56.436C89.6865 56.2797 89.8608 56.2016 90.0982 56.2016C90.3336 56.2016 90.5069 56.2772 90.6181 56.4285C90.7293 56.5788 90.7864 56.8112 90.7894 57.1257V57.4863ZM90.5114 57.1062C90.5114 56.8708 90.4784 56.6995 90.4123 56.5923C90.3461 56.4841 90.2415 56.43 90.0982 56.43C89.956 56.43 89.8523 56.4836 89.7872 56.5908C89.7221 56.698 89.6885 56.8627 89.6865 57.0851V57.5299C89.6865 57.7663 89.7206 57.9411 89.7887 58.0543C89.8578 58.1665 89.962 58.2226 90.1012 58.2226C90.2385 58.2226 90.3401 58.1695 90.4062 58.0633C90.4734 57.9571 90.5084 57.7898 90.5114 57.5615V57.1062ZM92.579 58.4194H91.1455V58.2196L91.9028 57.3781C92.015 57.2509 92.0922 57.1477 92.1342 57.0686C92.1773 56.9885 92.1988 56.9058 92.1988 56.8207C92.1988 56.7065 92.1643 56.6128 92.0952 56.5397C92.026 56.4666 91.9339 56.43 91.8187 56.43C91.6804 56.43 91.5728 56.4696 91.4956 56.5487C91.4195 56.6268 91.3814 56.736 91.3814 56.8763H91.1035C91.1035 56.6749 91.1681 56.5121 91.2973 56.3879C91.4275 56.2637 91.6013 56.2016 91.8187 56.2016C92.022 56.2016 92.1828 56.2552 92.301 56.3624C92.4192 56.4686 92.4783 56.6103 92.4783 56.7876C92.4783 57.003 92.3411 57.2594 92.0666 57.5569L91.4806 58.1925H92.579V58.4194ZM94.047 57.6847H94.3506V57.9116H94.047V58.4194H93.7676V57.9116H92.7713V57.7478L93.751 56.2317H94.047V57.6847ZM93.0869 57.6847H93.7676V56.6118L93.7345 56.6719L93.0869 57.6847Z" fill="#F5F7F6"/>
<path d="M90.5839 21.9868H80.1384L70.0508 14.6187L60.0516 22.5121L49.699 18.742L39.8765 33.6502H29.5286L19.362 41.1717L9.45105 29.6849L-0.636528 33.5433V52.8166H90.649L90.5839 21.9868Z" fill="url(#paint0_linear)"/>
<path d="M19.32 41.5297L9.37192 29.9964L-0.543641 33.7897L-0.729584 33.2969L9.52997 29.3734L19.3991 40.8184L29.4401 33.3899H39.7369L49.5967 18.4212L60.005 22.2145L70.0414 14.2886L80.222 21.7218H90.5838V22.2517H80.05L70.0554 14.9487L60.098 22.8095L49.8059 19.0581L40.0205 33.9152H29.6121L19.32 41.5297Z" fill="url(#paint1_linear)"/>
<path d="M0.488409 33.5432C0.488409 34.1661 -0.0136517 34.6682 -0.636571 34.6682C-1.25949 34.6682 -1.76154 34.1661 -1.76154 33.5432C-1.76154 32.9203 -1.25949 32.4182 -0.636571 32.4182C-0.0136517 32.4182 0.488409 32.9203 0.488409 33.5432Z" fill="#F5F7F6"/>
<path d="M10.5759 29.6848C10.5759 30.3077 10.0738 30.8098 9.45093 30.8098C8.82801 30.8098 8.32595 30.3077 8.32595 29.6848C8.32595 29.0619 8.82801 28.5598 9.45093 28.5598C10.0738 28.5552 10.5759 29.0619 10.5759 29.6848Z" fill="#F5F7F6"/>
<path d="M20.4868 41.1719C20.4868 41.7948 19.9801 42.2968 19.3618 42.2968C18.7389 42.2968 18.2369 41.7901 18.2369 41.1719C18.2369 40.5489 18.7389 40.0469 19.3618 40.0469C19.9848 40.0469 20.4868 40.5489 20.4868 41.1719Z" fill="#F5F7F6"/>
<path d="M30.6533 33.6501C30.6533 34.273 30.1513 34.7751 29.5284 34.7751C28.9055 34.7751 28.4034 34.2684 28.4034 33.6501C28.4034 33.0272 28.9055 32.5251 29.5284 32.5251C30.1513 32.5251 30.6533 33.0318 30.6533 33.6501Z" fill="#F5F7F6"/>
<path d="M41.006 33.6501C41.006 34.273 40.5039 34.7751 39.881 34.7751C39.2581 34.7751 38.756 34.2684 38.756 33.6501C38.756 33.0272 39.2627 32.5251 39.881 32.5251C40.4993 32.5251 41.006 33.0318 41.006 33.6501Z" fill="#F5F7F6"/>
<path d="M50.8286 18.7419C50.8286 19.3648 50.3266 19.8669 49.7036 19.8669C49.0807 19.8669 48.5787 19.3602 48.5787 18.7419C48.5787 18.119 49.0807 17.6169 49.7036 17.6169C50.3219 17.6169 50.8286 18.119 50.8286 18.7419Z" fill="#F5F7F6"/>
<path d="M61.1765 22.5122C61.1765 23.1351 60.6744 23.6372 60.0515 23.6372C59.4286 23.6372 58.9265 23.1351 58.9265 22.5122C58.9265 21.8893 59.4286 21.3872 60.0515 21.3872C60.6744 21.3872 61.1765 21.8893 61.1765 22.5122Z" fill="#F5F7F6"/>
<path d="M71.1757 14.6186C71.1757 15.2415 70.669 15.7436 70.0507 15.7436C69.4278 15.7436 68.9257 15.2369 68.9257 14.6186C68.9257 13.9957 69.4278 13.4937 70.0507 13.4937C70.6736 13.4937 71.1757 13.9957 71.1757 14.6186Z" fill="#F5F7F6"/>
<path d="M81.2632 21.9868C81.2632 22.6097 80.7611 23.1118 80.1382 23.1118C79.5153 23.1118 79.0132 22.6097 79.0132 21.9868C79.0132 21.3639 79.5153 20.8618 80.1382 20.8618C80.7565 20.8618 81.2632 21.3639 81.2632 21.9868Z" fill="#F5F7F6"/>
<path d="M91.7089 22.0285C91.7089 22.6515 91.2022 23.1535 90.5839 23.1535C89.961 23.1535 89.4589 22.6468 89.4589 22.0285C89.4589 21.4056 89.961 20.9036 90.5839 20.9036C91.2022 20.9036 91.7089 21.4103 91.7089 22.0285Z" fill="#F5F7F6"/>
<defs>
<linearGradient id="paint0_linear" x1="45.0058" y1="58.7372" x2="45.0058" y2="21.1957" gradientUnits="userSpaceOnUse">
<stop offset="0.0101" stop-color="white" stop-opacity="0"/>
<stop offset="1" stop-color="white"/>
</linearGradient>
<linearGradient id="paint1_linear" x1="-0.5706" y1="27.9092" x2="70.8708" y2="27.9092" gradientUnits="userSpaceOnUse">
<stop stop-color="#00EAD1"/>
<stop offset="0.1291" stop-color="#00E0D1"/>
<stop offset="0.3516" stop-color="#00C4CF"/>
<stop offset="0.6406" stop-color="#0097CE"/>
<stop offset="0.9819" stop-color="#0058CB"/>
<stop offset="0.9999" stop-color="#0055CB"/>
</linearGradient>
</defs>
</svg>
