<svg width="72" height="106" viewBox="0 0 72 106" fill="none" xmlns="http://www.w3.org/2000/svg">
<path d="M20.0167 4.97009C20.0025 4.69431 20.2146 4.45926 20.4904 4.44508L24.9844 4.21406C25.2602 4.19988 25.4953 4.41195 25.5094 4.68773C25.5236 4.96351 25.3115 5.19856 25.0358 5.21274L21.041 5.41809L21.2464 9.41282C21.2606 9.6886 21.0485 9.92365 20.7727 9.93783C20.4969 9.95201 20.2619 9.73993 20.2477 9.46416L20.0167 4.97009ZM43.3855 104.636C48.6516 95.2397 53.7816 80.2725 52.1358 62.7342C50.4913 45.2097 42.0777 25.0711 20.1811 5.31566L20.851 4.57319C42.9177 24.4821 51.4616 44.8461 53.1314 62.6408C54.8 80.4219 49.6012 95.5908 44.2578 105.125L43.3855 104.636Z" fill="white"/>
</svg>
