<svg width="136" height="33" viewBox="0 0 136 33" fill="none" xmlns="http://www.w3.org/2000/svg">
<path d="M20.2081 15.2183C20.1671 11.6896 23.2831 9.97021 23.4334 9.89322C21.6704 7.48091 18.9371 7.14729 17.9804 7.12163C15.6844 6.89066 13.4567 8.40477 12.295 8.40477C11.106 8.40477 9.30203 7.13446 7.36136 7.17295C4.86035 7.21145 2.52334 8.57158 1.25234 10.6759C-1.38534 14.9745 0.582672 21.2876 3.11101 24.7649C4.38202 26.4715 5.85802 28.3705 7.79869 28.2935C9.69837 28.2165 10.409 27.1644 12.6914 27.1644C14.96 27.1644 15.6161 28.2935 17.5977 28.255C19.6341 28.2294 20.9187 26.5485 22.1351 24.829C23.5974 22.8787 24.1851 20.9539 24.2124 20.8641C24.1441 20.8513 20.2491 19.4527 20.2081 15.2183Z" fill="white"/>
<path d="M16.4773 4.83758C17.5023 3.64425 18.1993 2.01464 17.9943 0.359375C16.5183 0.423533 14.6733 1.32174 13.6073 2.48941C12.6643 3.51594 11.8306 5.2097 12.0493 6.80081C13.703 6.9163 15.4113 6.01809 16.4773 4.83758Z" fill="white"/>
<path d="M44.1656 23.9949H37.7013L36.1433 28.3063H33.41L39.5326 12.3696H42.3753L48.4979 28.3063H45.7099L44.1656 23.9949ZM38.371 22.006H43.4959L40.9676 15.0129H40.8993L38.371 22.006Z" fill="white"/>
<path d="M61.7407 22.4941C61.7407 26.0997 59.6771 28.4222 56.5748 28.4222C54.8119 28.4222 53.4179 27.678 52.6799 26.3948H52.6252V32.1433H50.0833V16.6814H52.5432V18.619H52.5842C53.2949 17.3743 54.7982 16.5659 56.5202 16.5659C59.6771 16.5659 61.7407 18.8884 61.7407 22.4941ZM59.1305 22.4941C59.1305 20.1459 57.8321 18.5933 55.8642 18.5933C53.9235 18.5933 52.6116 20.1716 52.6116 22.4941C52.6116 24.8294 53.9235 26.4077 55.8642 26.4077C57.8321 26.4077 59.1305 24.8679 59.1305 22.4941Z" fill="white"/>
<path d="M75.3533 22.4941C75.3533 26.0997 73.2896 28.4222 70.1872 28.4222C68.4242 28.4222 67.0302 27.678 66.2922 26.3948H66.2376V32.1433H63.7092V16.6814H66.1692V18.619H66.2102C66.9209 17.3743 68.4242 16.5659 70.1462 16.5659C73.2896 16.5659 75.3533 18.8884 75.3533 22.4941ZM72.7429 22.4941C72.7429 20.1459 71.4446 18.5933 69.4766 18.5933C67.5359 18.5933 66.2239 20.1716 66.2239 22.4941C66.2239 24.8294 67.5359 26.4077 69.4766 26.4077C71.4582 26.4077 72.7429 24.8679 72.7429 22.4941Z" fill="white"/>
<path d="M84.3597 23.8666C84.551 25.4448 86.1773 26.4842 88.4187 26.4842C90.5643 26.4842 92.095 25.4448 92.095 24.0205C92.095 22.7887 91.1656 22.0445 88.9653 21.5312L86.765 21.0308C83.649 20.3251 82.2003 18.9521 82.2003 16.7323C82.2003 13.9863 84.756 12.1001 88.3777 12.1001C91.9583 12.1001 94.4183 13.9863 94.5003 16.7323H91.931C91.7806 15.1412 90.373 14.1788 88.3367 14.1788C86.3003 14.1788 84.8927 15.154 84.8927 16.5655C84.8927 17.6946 85.781 18.349 87.9676 18.8623L89.84 19.2986C93.325 20.0684 94.7736 21.3901 94.7736 23.7126C94.7736 26.6895 92.2453 28.5629 88.2273 28.5629C84.469 28.5629 81.927 26.7408 81.763 23.8537H84.3597V23.8666Z" fill="white"/>
<path d="M100.266 13.9346V16.6805H102.617V18.5667H100.266V24.9696C100.266 25.9705 100.731 26.4324 101.77 26.4324C102.029 26.4324 102.439 26.3939 102.603 26.3811V28.2545C102.316 28.3186 101.756 28.37 101.196 28.37C98.6947 28.37 97.7107 27.4846 97.7107 25.2391V18.5796H95.9067V16.6933H97.7107V13.9346H100.266Z" fill="white"/>
<path d="M103.971 22.4933C103.971 18.8364 106.267 16.5396 109.834 16.5396C113.415 16.5396 115.697 18.8364 115.697 22.4933C115.697 26.1631 113.428 28.4471 109.834 28.4471C106.253 28.4471 103.971 26.1631 103.971 22.4933ZM113.128 22.4933C113.128 19.9912 111.898 18.5028 109.847 18.5028C107.797 18.5028 106.567 19.9912 106.567 22.4933C106.567 25.0083 107.784 26.4839 109.847 26.4839C111.911 26.4839 113.128 25.0083 113.128 22.4933Z" fill="white"/>
<path d="M117.815 16.681H120.234V18.6571H120.289C120.671 17.3483 121.806 16.5527 123.268 16.5527C123.637 16.5527 123.938 16.6041 124.143 16.6426V18.8752C123.938 18.7982 123.5 18.7341 123.008 18.7341C121.368 18.7341 120.357 19.7734 120.357 21.403V28.2935H117.815V16.681Z" fill="white"/>
<path d="M135.84 24.8928C135.499 26.9972 133.312 28.4471 130.511 28.4471C126.916 28.4471 124.675 26.1888 124.675 22.5447C124.675 18.9005 126.916 16.5396 130.401 16.5396C133.818 16.5396 135.977 18.7466 135.977 22.2752V23.0964H127.244V23.2375C127.244 25.2264 128.57 26.5224 130.579 26.5224C131.987 26.5224 133.094 25.8937 133.435 24.8928H135.84ZM127.258 21.4155H133.449C133.394 19.6319 132.178 18.4643 130.415 18.4643C128.666 18.4771 127.395 19.6704 127.258 21.4155Z" fill="white"/>
<path d="M38.0561 0.37207C40.4751 0.37207 41.8964 1.7707 41.8964 4.1702C41.8964 6.62101 40.4888 8.01965 38.0561 8.01965H35.104V0.37207H38.0561ZM36.375 6.9418H37.9057C39.6141 6.9418 40.5981 5.94094 40.5981 4.18303C40.5981 2.45077 39.6004 1.44992 37.9057 1.44992H36.375V6.9418Z" fill="white"/>
<path d="M43.3179 5.13297C43.3179 3.27238 44.4249 2.13037 46.2152 2.13037C48.0055 2.13037 49.1125 3.25955 49.1125 5.13297C49.1125 7.00638 48.0055 8.13556 46.2152 8.13556C44.4249 8.13556 43.3179 7.00638 43.3179 5.13297ZM47.8689 5.13297C47.8689 3.87547 47.2675 3.14407 46.2152 3.14407C45.1629 3.14407 44.5615 3.87547 44.5615 5.13297C44.5615 6.39046 45.1492 7.12187 46.2152 7.12187C47.2812 7.12187 47.8689 6.39046 47.8689 5.13297Z" fill="white"/>
<path d="M56.8339 8.03246H55.5766L54.3056 3.77241H54.21L52.939 8.03246H51.6953L50.0007 2.2583H51.2307L52.3377 6.67232H52.4333L53.7043 2.2583H54.866L56.137 6.67232H56.2326L57.3259 2.2583H58.5423L56.8339 8.03246Z" fill="white"/>
<path d="M59.9503 2.24572H61.1257V3.16959H61.2214C61.522 2.52801 62.137 2.14307 63.0527 2.14307C64.4194 2.14307 65.1847 2.91296 65.1847 4.28593V8.03274H63.9684V4.58106C63.9684 3.65719 63.5447 3.19525 62.6427 3.19525C61.7407 3.19525 61.1667 3.75984 61.1667 4.65805V8.03274H59.9503V2.24572Z" fill="white"/>
<path d="M67.1116 0H68.328V8.03251H67.1116V0Z" fill="white"/>
<path d="M70.0231 5.13297C70.0231 3.27238 71.1301 2.13037 72.9204 2.13037C74.7107 2.13037 75.8177 3.25955 75.8177 5.13297C75.8177 7.00638 74.7107 8.13556 72.9204 8.13556C71.1165 8.13556 70.0231 7.00638 70.0231 5.13297ZM74.574 5.13297C74.574 3.87547 73.9727 3.14407 72.9204 3.14407C71.8681 3.14407 71.2668 3.87547 71.2668 5.13297C71.2668 6.39046 71.8544 7.12187 72.9204 7.12187C73.9727 7.12187 74.574 6.39046 74.574 5.13297Z" fill="white"/>
<path d="M77.1021 6.39032C77.1021 5.35096 77.9221 4.74788 79.3844 4.67089L81.0517 4.58107V4.08064C81.0517 3.46472 80.628 3.1311 79.7944 3.1311C79.111 3.1311 78.6464 3.36207 78.5097 3.77268H77.3344C77.4574 2.78465 78.4551 2.14307 79.849 2.14307C81.3934 2.14307 82.268 2.86164 82.268 4.08064V8.03276H81.0927V7.22437H80.997C80.628 7.80179 79.9584 8.13541 79.152 8.13541C77.9631 8.12258 77.1021 7.45534 77.1021 6.39032ZM81.0654 5.90272V5.41512L79.562 5.50494C78.7147 5.55627 78.3321 5.82573 78.3321 6.33899C78.3321 6.86509 78.8104 7.16022 79.4664 7.16022C80.382 7.16022 81.0654 6.62129 81.0654 5.90272Z" fill="white"/>
<path d="M83.8665 5.13261C83.8665 3.31053 84.8641 2.15569 86.4221 2.15569C87.2695 2.15569 87.9801 2.52781 88.3081 3.16938H88.4038V0H89.6201V8.03253H88.4448V7.12149H88.3491C87.9801 7.75023 87.2695 8.13518 86.4221 8.13518C84.8505 8.12235 83.8665 6.96751 83.8665 5.13261ZM85.1238 5.13261C85.1238 6.36443 85.7388 7.09583 86.7638 7.09583C87.7888 7.09583 88.4175 6.3516 88.4175 5.13261C88.4175 3.92644 87.7751 3.16938 86.7638 3.16938C85.7388 3.18222 85.1238 3.92644 85.1238 5.13261Z" fill="white"/>
<path d="M94.6358 5.13297C94.6358 3.27238 95.7428 2.13037 97.5332 2.13037C99.3235 2.13037 100.43 3.25955 100.43 5.13297C100.43 7.00638 99.3235 8.13556 97.5332 8.13556C95.7428 8.13556 94.6358 7.00638 94.6358 5.13297ZM99.1868 5.13297C99.1868 3.87547 98.5855 3.14407 97.5332 3.14407C96.4808 3.14407 95.8795 3.87547 95.8795 5.13297C95.8795 6.39046 96.4671 7.12187 97.5332 7.12187C98.5855 7.12187 99.1868 6.39046 99.1868 5.13297Z" fill="white"/>
<path d="M102.071 2.24572H103.246V3.16959H103.342C103.642 2.52801 104.257 2.14307 105.173 2.14307C106.54 2.14307 107.305 2.91296 107.305 4.28593V8.03274H106.089V4.58106C106.089 3.65719 105.665 3.19525 104.763 3.19525C103.861 3.19525 103.287 3.75984 103.287 4.65805V8.03274H102.071V2.24572Z" fill="white"/>
<path d="M114.165 0.808105V2.27089H115.505V3.23324H114.165V6.21012C114.165 6.8132 114.425 7.08266 115.04 7.08266C115.231 7.08266 115.327 7.06983 115.505 7.057V8.00652C115.313 8.03218 115.081 8.07068 114.849 8.07068C113.496 8.07068 112.963 7.62158 112.963 6.50525V3.24607H111.992V2.28372H112.963V0.808105H114.165Z" fill="white"/>
<path d="M117.145 0H118.347V3.18221H118.443C118.744 2.54063 119.386 2.14286 120.315 2.14286C121.627 2.14286 122.434 2.92558 122.434 4.29855V8.03251H121.217V4.58084C121.217 3.65697 120.766 3.19504 119.905 3.19504C118.908 3.19504 118.361 3.78529 118.361 4.65783V8.03251H117.145V0Z" fill="white"/>
<path d="M129.526 6.46731C129.253 7.50667 128.269 8.13541 126.862 8.13541C125.099 8.13541 124.019 7.00624 124.019 5.15849C124.019 3.31074 125.126 2.14307 126.862 2.14307C128.57 2.14307 129.608 3.24658 129.608 5.05584V5.45361H125.263V5.51777C125.304 6.53147 125.932 7.17305 126.903 7.17305C127.64 7.17305 128.146 6.92925 128.365 6.46731H129.526ZM125.263 4.60673H128.365C128.337 3.69569 127.75 3.10543 126.848 3.10543C125.946 3.10543 125.331 3.70852 125.263 4.60673Z" fill="white"/>
</svg>
