<svg width="375" height="123" viewBox="0 0 375 123" fill="none" xmlns="http://www.w3.org/2000/svg">
<g opacity="0.5">
<path d="M-45.5135 82.6032H-52V121.522H-44.4864V96.1168L-26.6484 121.522H-20.1619V82.6032H-27.6214V108.009L-45.5135 82.6032Z" fill="#372B43"/>
<path d="M5.19312 122.333C10.5986 122.333 15.95 120.279 19.5176 115.955C22.7068 112.063 23.9501 107.468 24.0582 102.063C23.9501 96.8736 22.8149 92.1168 19.5176 88.1167C16.0581 83.9005 10.8148 81.7924 5.19312 81.7924C-0.428558 81.7924 -5.72591 83.8464 -9.13134 88.1167C-12.2665 91.9006 -13.6719 96.8736 -13.6719 102.063C-13.6719 107.252 -12.2665 112.171 -9.13134 115.955C-5.77996 120.171 -0.374504 122.333 5.19312 122.333ZM5.19312 115.414C1.84174 115.468 -1.40154 114.117 -3.29345 111.522C-5.29347 108.928 -5.88807 105.468 -5.94212 102.063C-5.88807 98.6574 -5.29347 95.1438 -3.29345 92.6033C-1.40154 90.0087 1.84174 88.6573 5.19312 88.7113C8.5445 88.6573 11.7337 90.0087 13.6797 92.6033C15.6257 95.1438 16.2743 98.6574 16.2743 102.063C16.2743 105.468 15.6257 108.928 13.6797 111.522C11.7337 114.117 8.5445 115.468 5.19312 115.414Z" fill="#372B43"/>
<path d="M57.5956 82.6032H25.7035V89.9546H37.9738V121.522H45.3253V89.9546H57.5956V82.6032Z" fill="#372B43"/>
<path d="M84.5486 121.522H92.1163L80.2242 82.6032H69.2512L57.3592 121.522H64.9268L66.7647 115.468H82.6567L84.5486 121.522ZM68.8728 108.549L74.6566 89.5222L80.5486 108.549H68.8728Z" fill="#372B43"/>
<path d="M122.897 102.549C122.302 101.793 121.654 101.09 120.951 100.441C121.005 100.387 121.113 100.279 121.167 100.171C122.627 98.3331 123.492 95.9547 123.438 93.6844C123.383 91.306 122.627 88.9276 121.167 87.0897C119.87 85.1978 117.87 83.7924 115.6 83.1437C114.518 82.7653 113.383 82.6032 112.248 82.6032H96.7345V121.522H113.167C114.41 121.522 115.654 121.252 116.843 120.928C119.221 120.171 121.383 118.712 122.897 116.712C124.41 114.603 125.221 112.117 125.221 109.63C125.221 107.036 124.41 104.549 122.897 102.549ZM112.194 89.4681C113.059 89.4681 114.356 90.1708 114.897 90.8735C115.6 91.6303 115.924 92.6573 115.978 93.6844C116.032 94.6033 115.654 95.5222 115.059 96.2249C114.464 96.9817 113.383 97.5763 112.627 97.7385H104.194V89.4681H112.194ZM117.816 109.63C117.762 111.036 117.275 112.387 116.194 113.306C115.329 114.063 114.248 114.603 113.059 114.603H104.194V104.657H113.059C114.302 104.657 115.329 104.928 116.41 106.009C117.329 106.982 117.87 108.333 117.816 109.63Z" fill="#372B43"/>
</g>
<g opacity="0.5">
<path d="M219.632 0.810818H213.145V39.7301H220.659V14.3245L238.497 39.7301H244.984V0.810818H237.524V26.2165L219.632 0.810818Z" fill="#372B43"/>
<path d="M270.339 40.5409C275.744 40.5409 281.095 38.4869 284.663 34.1625C287.852 30.2706 289.095 25.6759 289.204 20.2705C289.095 15.0812 287.96 10.3244 284.663 6.32439C281.203 2.10813 275.96 0 270.339 0C264.717 0 259.419 2.05407 256.014 6.32439C252.879 10.1082 251.473 15.0812 251.473 20.2705C251.473 25.4597 252.879 30.3787 256.014 34.1625C259.365 38.3787 264.771 40.5409 270.339 40.5409ZM270.339 33.6219C266.987 33.676 263.744 32.3246 261.852 29.73C259.852 27.1354 259.257 23.6759 259.203 20.2705C259.257 16.865 259.852 13.3515 261.852 10.8109C263.744 8.2163 266.987 6.86493 270.339 6.91899C273.69 6.86493 276.879 8.2163 278.825 10.8109C280.771 13.3515 281.42 16.865 281.42 20.2705C281.42 23.6759 280.771 27.1354 278.825 29.73C276.879 32.3246 273.69 33.676 270.339 33.6219Z" fill="#372B43"/>
<path d="M322.741 0.810818H290.849V8.16224H303.119V39.7301H310.471V8.16224H322.741V0.810818Z" fill="#372B43"/>
<path d="M349.694 39.7301H357.262L345.37 0.810818H334.397L322.505 39.7301H330.072L331.91 33.676H347.802L349.694 39.7301ZM334.018 26.757L339.802 7.72981L345.694 26.757H334.018Z" fill="#372B43"/>
<path d="M388.042 20.757C387.448 20.0002 386.799 19.2975 386.096 18.6488C386.15 18.5948 386.259 18.4867 386.313 18.3786C387.772 16.5407 388.637 14.1623 388.583 11.892C388.529 9.5136 387.772 7.13521 386.313 5.29735C385.015 3.40544 383.015 2.00002 380.745 1.35137C379.664 0.972983 378.529 0.810818 377.394 0.810818H361.88V39.7301H378.313C379.556 39.7301 380.799 39.4598 381.988 39.1355C384.367 38.3787 386.529 36.9193 388.042 34.9193C389.556 32.8111 390.367 30.3246 390.367 27.8381C390.367 25.2435 389.556 22.757 388.042 20.757ZM377.34 7.67575C378.204 7.67575 379.502 8.37846 380.042 9.08117C380.745 9.83793 381.069 10.865 381.123 11.892C381.177 12.8109 380.799 13.7299 380.204 14.4326C379.61 15.1893 378.529 15.7839 377.772 15.9461H369.339V7.67575H377.34ZM382.961 27.8381C382.907 29.2435 382.421 30.5949 381.34 31.5138C380.475 32.2706 379.394 32.8111 378.204 32.8111H369.339V22.8651H378.204C379.448 22.8651 380.475 23.1354 381.556 24.2165C382.475 25.1894 383.015 26.5408 382.961 27.8381Z" fill="#372B43"/>
</g>
<g opacity="0.5">
<path d="M256.451 71.7304H249.964V110.65H257.478V85.244L275.316 110.65H281.802V71.7304H274.343V97.136L256.451 71.7304Z" fill="#372B43"/>
<path d="M307.157 111.46C312.563 111.46 317.914 109.406 321.482 105.082C324.671 101.19 325.914 96.5955 326.022 91.19C325.914 86.0008 324.779 81.244 321.482 77.2439C318.022 73.0277 312.779 70.9196 307.157 70.9196C301.536 70.9196 296.238 72.9736 292.833 77.2439C289.698 81.0278 288.292 86.0008 288.292 91.19C288.292 96.3793 289.698 101.298 292.833 105.082C296.184 109.298 301.59 111.46 307.157 111.46ZM307.157 104.542C303.806 104.596 300.563 103.244 298.671 100.65C296.671 98.055 296.076 94.5955 296.022 91.19C296.076 87.7846 296.671 84.271 298.671 81.7305C300.563 79.1359 303.806 77.7845 307.157 77.8385C310.509 77.7845 313.698 79.1359 315.644 81.7305C317.59 84.271 318.239 87.7846 318.239 91.19C318.239 94.5955 317.59 98.055 315.644 100.65C313.698 103.244 310.509 104.596 307.157 104.542Z" fill="#372B43"/>
<path d="M359.56 71.7304H327.668V79.0818H339.938V110.65H347.29V79.0818H359.56V71.7304Z" fill="#372B43"/>
<path d="M386.513 110.65H394.081L382.189 71.7304H371.215L359.323 110.65H366.891L368.729 104.596H384.621L386.513 110.65ZM370.837 97.6766L376.621 78.6494L382.513 97.6766H370.837Z" fill="#372B43"/>
<path d="M424.861 91.6765C424.267 90.9198 423.618 90.217 422.915 89.5684C422.969 89.5143 423.077 89.4062 423.131 89.2981C424.591 87.4603 425.456 85.0819 425.402 82.8116C425.348 80.4332 424.591 78.0548 423.131 76.2169C421.834 74.325 419.834 72.9196 417.564 72.2709C416.483 71.8925 415.348 71.7304 414.212 71.7304H398.699V110.65H415.131C416.375 110.65 417.618 110.379 418.807 110.055C421.186 109.298 423.348 107.839 424.861 105.839C426.375 103.731 427.186 101.244 427.186 98.7577C427.186 96.163 426.375 93.6765 424.861 91.6765ZM414.158 78.5953C415.023 78.5953 416.321 79.298 416.861 80.0007C417.564 80.7575 417.888 81.7845 417.942 82.8116C417.996 83.7305 417.618 84.6494 417.023 85.3521C416.429 86.1089 415.348 86.7035 414.591 86.8657H406.158V78.5953H414.158ZM419.78 98.7577C419.726 100.163 419.24 101.514 418.158 102.433C417.294 103.19 416.212 103.731 415.023 103.731H406.158V93.7846H415.023C416.267 93.7846 417.294 94.0549 418.375 95.136C419.294 96.109 419.834 97.4604 419.78 98.7577Z" fill="#372B43"/>
</g>
<g opacity="0.5">
<path d="M-0.539985 0.810818H-7.02654V39.7301H0.487051V14.3245L18.3251 39.7301H24.8116V0.810818H17.3521V26.2165L-0.539985 0.810818Z" fill="#372B43"/>
<path d="M50.1666 40.5409C55.572 40.5409 60.9234 38.4869 64.491 34.1625C67.6803 30.2706 68.9235 25.6759 69.0316 20.2705C68.9235 15.0812 67.7884 10.3244 64.491 6.32439C61.0316 2.10813 55.7883 0 50.1666 0C44.5449 0 39.2476 2.05407 35.8421 6.32439C32.707 10.1082 31.3015 15.0812 31.3015 20.2705C31.3015 25.4597 32.707 30.3787 35.8421 34.1625C39.1935 38.3787 44.599 40.5409 50.1666 40.5409ZM50.1666 33.6219C46.8152 33.676 43.5719 32.3246 41.68 29.73C39.68 27.1354 39.0854 23.6759 39.0313 20.2705C39.0854 16.865 39.68 13.3515 41.68 10.8109C43.5719 8.2163 46.8152 6.86493 50.1666 6.91899C53.518 6.86493 56.7072 8.2163 58.6532 10.8109C60.5991 13.3515 61.2478 16.865 61.2478 20.2705C61.2478 23.6759 60.5991 27.1354 58.6532 29.73C56.7072 32.3246 53.518 33.676 50.1666 33.6219Z" fill="#372B43"/>
<path d="M102.569 0.810818H70.6769V8.16224H82.9473V39.7301H90.2987V8.16224H102.569V0.810818Z" fill="#372B43"/>
<path d="M129.522 39.7301H137.09L125.198 0.810818H114.225L102.333 39.7301H109.9L111.738 33.676H127.63L129.522 39.7301ZM113.846 26.757L119.63 7.72981L125.522 26.757H113.846Z" fill="#372B43"/>
<path d="M167.87 20.757C167.276 20.0002 166.627 19.2975 165.924 18.6488C165.979 18.5948 166.087 18.4867 166.141 18.3786C167.6 16.5407 168.465 14.1623 168.411 11.892C168.357 9.5136 167.6 7.13521 166.141 5.29735C164.843 3.40544 162.843 2.00002 160.573 1.35137C159.492 0.972983 158.357 0.810818 157.222 0.810818H141.708V39.7301H158.141C159.384 39.7301 160.627 39.4598 161.816 39.1355C164.195 38.3787 166.357 36.9193 167.87 34.9193C169.384 32.8111 170.195 30.3246 170.195 27.8381C170.195 25.2435 169.384 22.757 167.87 20.757ZM157.168 7.67575C158.032 7.67575 159.33 8.37846 159.87 9.08117C160.573 9.83793 160.897 10.865 160.951 11.892C161.005 12.8109 160.627 13.7299 160.033 14.4326C159.438 15.1893 158.357 15.7839 157.6 15.9461H149.168V7.67575H157.168ZM162.789 27.8381C162.735 29.2435 162.249 30.5949 161.168 31.5138C160.303 32.2706 159.222 32.8111 158.032 32.8111H149.168V22.8651H158.032C159.276 22.8651 160.303 23.1354 161.384 24.2165C162.303 25.1894 162.843 26.5408 162.789 27.8381Z" fill="#372B43"/>
</g>
</svg>
