<svg width="118" height="60" viewBox="0 0 118 60" fill="none" xmlns="http://www.w3.org/2000/svg">
<path d="M117.862 2.86694H6.3781V3.20629H117.862V2.86694Z" fill="#FDFEFF"/>
<path d="M117.862 6.66479H6.3781V7.00414H117.862V6.66479Z" fill="#FDFEFF"/>
<path d="M117.862 10.4629H6.3781V10.8022H117.862V10.4629Z" fill="#FDFEFF"/>
<path d="M117.862 14.2654H6.3781V14.6094H117.862V14.2654Z" fill="#FDFEFF"/>
<path d="M117.862 18.0635H6.3781V18.4075H117.862V18.0635Z" fill="#FDFEFF"/>
<path d="M117.862 21.8613H6.3781V22.2053H117.862V21.8613Z" fill="#FDFEFF"/>
<path d="M117.862 25.6592H6.3781V25.9985H117.862V25.6592Z" fill="#FDFEFF"/>
<path d="M117.862 29.4573H6.3781V29.8013H117.862V29.4573Z" fill="#FDFEFF"/>
<path d="M117.862 33.2554H6.3781V33.5947H117.862V33.2554Z" fill="#FDFEFF"/>
<path d="M117.862 37.0576H6.3781V37.397H117.862V37.0576Z" fill="#FDFEFF"/>
<path d="M117.862 40.8557H6.3781V41.1951H117.862V40.8557Z" fill="#FDFEFF"/>
<path d="M117.862 44.6536H6.3781V44.9929H117.862V44.6536Z" fill="#FDFEFF"/>
<path d="M117.862 48.4517H6.3781V48.791H117.862V48.4517Z" fill="#FDFEFF"/>
<path d="M117.862 52.2495H6.3781V52.5889H117.862V52.2495Z" fill="#FDFEFF"/>
<path d="M6.4201 2.96924H6.08074V52.5703H6.4201V2.96924Z" fill="#FDFEFF"/>
<path d="M16.5634 2.96924H16.224V52.5703H16.5634V2.96924Z" fill="#FDFEFF"/>
<path d="M26.7069 2.96924H26.3676V52.5703H26.7069V2.96924Z" fill="#FDFEFF"/>
<path d="M36.8502 2.96924H36.5108V52.5703H36.8502V2.96924Z" fill="#FDFEFF"/>
<path d="M46.9934 2.96924H46.6541V52.5703H46.9934V2.96924Z" fill="#FDFEFF"/>
<path d="M57.1322 2.96924H56.7929V52.5703H57.1322V2.96924Z" fill="#FDFEFF"/>
<path d="M67.2755 2.96924H66.9361V52.5703H67.2755V2.96924Z" fill="#FDFEFF"/>
<path d="M77.419 2.96924H77.0797V52.5703H77.419V2.96924Z" fill="#FDFEFF"/>
<path d="M87.5623 2.96924H87.2229V52.5703H87.5623V2.96924Z" fill="#FDFEFF"/>
<path d="M97.7056 2.96924H97.3662V52.5703H97.7056V2.96924Z" fill="#FDFEFF"/>
<path d="M107.849 2.96924H107.509V52.5703H107.849V2.96924Z" fill="#FDFEFF"/>
<path d="M117.988 2.96924H117.648V52.5703H117.988V2.96924Z" fill="#FDFEFF"/>
<path d="M14.0051 58.4194H12.5717V58.2196L13.329 57.3781C13.4412 57.2509 13.5183 57.1477 13.5604 57.0686C13.6034 56.9885 13.625 56.9058 13.625 56.8207C13.625 56.7065 13.5904 56.6128 13.5213 56.5397C13.4522 56.4666 13.36 56.43 13.2448 56.43C13.1066 56.43 12.9989 56.4696 12.9218 56.5487C12.8456 56.6268 12.8076 56.736 12.8076 56.8763H12.5296C12.5296 56.6749 12.5942 56.5121 12.7234 56.3879C12.8536 56.2637 13.0274 56.2016 13.2448 56.2016C13.4482 56.2016 13.609 56.2552 13.7272 56.3624C13.8454 56.4686 13.9045 56.6103 13.9045 56.7876C13.9045 57.003 13.7672 57.2594 13.4928 57.5569L12.9067 58.1925H14.0051V58.4194ZM15.6715 57.4863C15.6715 57.8119 15.6159 58.0538 15.5047 58.2121C15.3935 58.3703 15.2197 58.4495 14.9833 58.4495C14.7499 58.4495 14.5771 58.3724 14.4649 58.2181C14.3527 58.0628 14.2946 57.8314 14.2906 57.5239V57.1527C14.2906 56.8312 14.3462 56.5923 14.4574 56.436C14.5686 56.2797 14.7429 56.2016 14.9803 56.2016C15.2157 56.2016 15.389 56.2772 15.5002 56.4285C15.6114 56.5788 15.6685 56.8112 15.6715 57.1257V57.4863ZM15.3935 57.1062C15.3935 56.8708 15.3605 56.6995 15.2944 56.5923C15.2282 56.4841 15.1236 56.43 14.9803 56.43C14.8381 56.43 14.7344 56.4836 14.6693 56.5908C14.6042 56.698 14.5706 56.8627 14.5686 57.0851V57.5299C14.5686 57.7663 14.6027 57.9411 14.6708 58.0543C14.7399 58.1665 14.8441 58.2226 14.9833 58.2226C15.1206 58.2226 15.2222 58.1695 15.2884 58.0633C15.3555 57.9571 15.3905 57.7898 15.3935 57.5615V57.1062ZM16.9412 58.4194H16.6617V56.5667L16.1013 56.7726V56.5202L16.8976 56.2211H16.9412V58.4194ZM17.8833 57.3225L17.9945 56.2317H19.1155V56.4886H18.2304L18.1643 57.0851C18.2715 57.022 18.3932 56.9905 18.5294 56.9905C18.7288 56.9905 18.8871 57.0566 19.0043 57.1888C19.1215 57.32 19.1801 57.4978 19.1801 57.7222C19.1801 57.9476 19.119 58.1254 18.9968 58.2557C18.8755 58.3849 18.7057 58.4495 18.4874 58.4495C18.294 58.4495 18.1363 58.3959 18.0141 58.2887C17.8918 58.1815 17.8222 58.0333 17.8052 57.8439H18.0681C18.0852 57.9692 18.1298 58.0638 18.2019 58.1279C18.274 58.191 18.3692 58.2226 18.4874 58.2226C18.6166 58.2226 18.7178 58.1785 18.7909 58.0904C18.865 58.0022 18.9021 57.8805 18.9021 57.7252C18.9021 57.579 18.862 57.4618 18.7819 57.3736C18.7027 57.2845 18.5971 57.2399 18.4648 57.2399C18.3436 57.2399 18.2485 57.2664 18.1793 57.3195L18.1057 57.3796L17.8833 57.3225Z" fill="#F5F7F6"/>
<path d="M24.5522 58.4194H23.1188V58.2196L23.8761 57.3781C23.9883 57.2509 24.0654 57.1477 24.1075 57.0686C24.1505 56.9885 24.1721 56.9058 24.1721 56.8207C24.1721 56.7065 24.1375 56.6128 24.0684 56.5397C23.9993 56.4666 23.9071 56.43 23.7919 56.43C23.6537 56.43 23.546 56.4696 23.4689 56.5487C23.3927 56.6268 23.3547 56.736 23.3547 56.8763H23.0767C23.0767 56.6749 23.1413 56.5121 23.2705 56.3879C23.4007 56.2637 23.5745 56.2016 23.7919 56.2016C23.9953 56.2016 24.156 56.2552 24.2743 56.3624C24.3925 56.4686 24.4516 56.6103 24.4516 56.7876C24.4516 57.003 24.3143 57.2594 24.0398 57.5569L23.4538 58.1925H24.5522V58.4194ZM26.2186 57.4863C26.2186 57.8119 26.163 58.0538 26.0518 58.2121C25.9406 58.3703 25.7668 58.4495 25.5304 58.4495C25.297 58.4495 25.1242 58.3724 25.012 58.2181C24.8998 58.0628 24.8417 57.8314 24.8377 57.5239V57.1527C24.8377 56.8312 24.8933 56.5923 25.0045 56.436C25.1157 56.2797 25.29 56.2016 25.5274 56.2016C25.7628 56.2016 25.9361 56.2772 26.0473 56.4285C26.1585 56.5788 26.2156 56.8112 26.2186 57.1257V57.4863ZM25.9406 57.1062C25.9406 56.8708 25.9076 56.6995 25.8415 56.5923C25.7753 56.4841 25.6707 56.43 25.5274 56.43C25.3852 56.43 25.2815 56.4836 25.2164 56.5908C25.1513 56.698 25.1177 56.8627 25.1157 57.0851V57.5299C25.1157 57.7663 25.1498 57.9411 25.2179 58.0543C25.287 58.1665 25.3912 58.2226 25.5304 58.2226C25.6677 58.2226 25.7693 58.1695 25.8354 58.0633C25.9026 57.9571 25.9376 57.7898 25.9406 57.5615V57.1062ZM27.4883 58.4194H27.2088V56.5667L26.6484 56.7726V56.5202L27.4447 56.2211H27.4883V58.4194ZM29.3936 56.2302V56.4661H29.3425C29.1261 56.4701 28.9538 56.5342 28.8256 56.6584C28.6974 56.7826 28.6233 56.9574 28.6032 57.1828C28.7184 57.0506 28.8757 56.9845 29.075 56.9845C29.2654 56.9845 29.4171 57.0516 29.5303 57.1858C29.6445 57.32 29.7016 57.4933 29.7016 57.7057C29.7016 57.9311 29.64 58.1114 29.5168 58.2466C29.3946 58.3819 29.2303 58.4495 29.024 58.4495C28.8146 58.4495 28.6448 58.3693 28.5146 58.2091C28.3843 58.0478 28.3192 57.8404 28.3192 57.587V57.4803C28.3192 57.0776 28.4049 56.7701 28.5762 56.5577C28.7485 56.3444 29.0044 56.2352 29.344 56.2302H29.3936ZM29.0285 57.2159C28.9333 57.2159 28.8456 57.2444 28.7655 57.3015C28.6854 57.3586 28.6298 57.4302 28.5987 57.5164V57.6186C28.5987 57.7989 28.6393 57.9441 28.7204 58.0543C28.8016 58.1645 28.9027 58.2196 29.024 58.2196C29.1492 58.2196 29.2473 58.1735 29.3185 58.0813C29.3906 57.9892 29.4266 57.8685 29.4266 57.7192C29.4266 57.569 29.3901 57.4478 29.317 57.3556C29.2448 57.2624 29.1487 57.2159 29.0285 57.2159Z" fill="#F5F7F6"/>
<path d="M34.9681 58.4194H33.5346V58.2196L34.2919 57.3781C34.4041 57.2509 34.4813 57.1477 34.5233 57.0686C34.5664 56.9885 34.5879 56.9058 34.5879 56.8207C34.5879 56.7065 34.5534 56.6128 34.4843 56.5397C34.4151 56.4666 34.323 56.43 34.2078 56.43C34.0695 56.43 33.9619 56.4696 33.8847 56.5487C33.8086 56.6268 33.7705 56.736 33.7705 56.8763H33.4925C33.4925 56.6749 33.5572 56.5121 33.6864 56.3879C33.8166 56.2637 33.9904 56.2016 34.2078 56.2016C34.4111 56.2016 34.5719 56.2552 34.6901 56.3624C34.8083 56.4686 34.8674 56.6103 34.8674 56.7876C34.8674 57.003 34.7302 57.2594 34.4557 57.5569L33.8697 58.1925H34.9681V58.4194ZM36.6345 57.4863C36.6345 57.8119 36.5789 58.0538 36.4677 58.2121C36.3565 58.3703 36.1827 58.4495 35.9463 58.4495C35.7129 58.4495 35.5401 58.3724 35.4279 58.2181C35.3157 58.0628 35.2576 57.8314 35.2536 57.5239V57.1527C35.2536 56.8312 35.3092 56.5923 35.4204 56.436C35.5316 56.2797 35.7059 56.2016 35.9433 56.2016C36.1787 56.2016 36.352 56.2772 36.4632 56.4285C36.5744 56.5788 36.6315 56.8112 36.6345 57.1257V57.4863ZM36.3565 57.1062C36.3565 56.8708 36.3234 56.6995 36.2573 56.5923C36.1912 56.4841 36.0865 56.43 35.9433 56.43C35.801 56.43 35.6973 56.4836 35.6322 56.5908C35.5671 56.698 35.5336 56.8627 35.5316 57.0851V57.5299C35.5316 57.7663 35.5656 57.9411 35.6337 58.0543C35.7029 58.1665 35.807 58.2226 35.9463 58.2226C36.0835 58.2226 36.1852 58.1695 36.2513 58.0633C36.3184 57.9571 36.3535 57.7898 36.3565 57.5615V57.1062ZM37.9042 58.4194H37.6247V56.5667L37.0642 56.7726V56.5202L37.8606 56.2211H37.9042V58.4194ZM40.131 56.3879L39.2249 58.4194H38.9334L39.8365 56.4601H38.6525V56.2317H40.131V56.3879Z" fill="#F5F7F6"/>
<path d="M44.8128 58.4194H43.3793V58.2196L44.1366 57.3781C44.2488 57.2509 44.326 57.1477 44.368 57.0686C44.4111 56.9885 44.4326 56.9058 44.4326 56.8207C44.4326 56.7065 44.3981 56.6128 44.329 56.5397C44.2598 56.4666 44.1677 56.43 44.0525 56.43C43.9143 56.43 43.8066 56.4696 43.7294 56.5487C43.6533 56.6268 43.6152 56.736 43.6152 56.8763H43.3373C43.3373 56.6749 43.4019 56.5121 43.5311 56.3879C43.6613 56.2637 43.8351 56.2016 44.0525 56.2016C44.2558 56.2016 44.4166 56.2552 44.5348 56.3624C44.653 56.4686 44.7121 56.6103 44.7121 56.7876C44.7121 57.003 44.5749 57.2594 44.3004 57.5569L43.7144 58.1925H44.8128V58.4194ZM46.4792 57.4863C46.4792 57.8119 46.4236 58.0538 46.3124 58.2121C46.2012 58.3703 46.0274 58.4495 45.791 58.4495C45.5576 58.4495 45.3848 58.3724 45.2726 58.2181C45.1604 58.0628 45.1023 57.8314 45.0983 57.5239V57.1527C45.0983 56.8312 45.1539 56.5923 45.2651 56.436C45.3763 56.2797 45.5506 56.2016 45.788 56.2016C46.0234 56.2016 46.1967 56.2772 46.3079 56.4285C46.4191 56.5788 46.4762 56.8112 46.4792 57.1257V57.4863ZM46.2012 57.1062C46.2012 56.8708 46.1681 56.6995 46.102 56.5923C46.0359 56.4841 45.9312 56.43 45.788 56.43C45.6457 56.43 45.5421 56.4836 45.4769 56.5908C45.4118 56.698 45.3783 56.8627 45.3763 57.0851V57.5299C45.3763 57.7663 45.4103 57.9411 45.4785 58.0543C45.5476 58.1665 45.6518 58.2226 45.791 58.2226C45.9282 58.2226 46.0299 58.1695 46.096 58.0633C46.1631 57.9571 46.1982 57.7898 46.2012 57.5615V57.1062ZM47.7489 58.4194H47.4694V56.5667L46.9089 56.7726V56.5202L47.7053 56.2211H47.7489V58.4194ZM49.8901 56.8026C49.8901 56.9118 49.861 57.009 49.8029 57.0941C49.7458 57.1793 49.6682 57.2459 49.57 57.294C49.6842 57.3431 49.7744 57.4147 49.8405 57.5089C49.9076 57.603 49.9412 57.7097 49.9412 57.8289C49.9412 58.0182 49.877 58.169 49.7488 58.2812C49.6216 58.3934 49.4538 58.4495 49.2455 58.4495C49.0351 58.4495 48.8663 58.3934 48.7391 58.2812C48.6129 58.168 48.5498 58.0172 48.5498 57.8289C48.5498 57.7107 48.5818 57.604 48.6459 57.5089C48.711 57.4137 48.8007 57.3416 48.9149 57.2925C48.8177 57.2444 48.7411 57.1778 48.685 57.0926C48.6289 57.0075 48.6008 56.9108 48.6008 56.8026C48.6008 56.6183 48.6599 56.4721 48.7781 56.3639C48.8964 56.2557 49.0521 56.2016 49.2455 56.2016C49.4378 56.2016 49.5931 56.2557 49.7113 56.3639C49.8305 56.4721 49.8901 56.6183 49.8901 56.8026ZM49.6632 57.8229C49.6632 57.7007 49.6241 57.601 49.546 57.5239C49.4688 57.4468 49.3677 57.4082 49.2424 57.4082C49.1172 57.4082 49.0166 57.4463 48.9404 57.5224C48.8653 57.5985 48.8277 57.6987 48.8277 57.8229C48.8277 57.9471 48.8643 58.0448 48.9374 58.1159C49.0116 58.187 49.1142 58.2226 49.2455 58.2226C49.3757 58.2226 49.4779 58.187 49.552 58.1159C49.6261 58.0438 49.6632 57.9461 49.6632 57.8229ZM49.2455 56.43C49.1363 56.43 49.0476 56.4641 48.9795 56.5322C48.9124 56.5993 48.8788 56.6909 48.8788 56.8072C48.8788 56.9183 48.9119 57.0085 48.978 57.0776C49.0451 57.1457 49.1343 57.1798 49.2455 57.1798C49.3566 57.1798 49.4453 57.1457 49.5114 57.0776C49.5785 57.0085 49.6121 56.9183 49.6121 56.8072C49.6121 56.696 49.5775 56.6053 49.5084 56.5352C49.4393 56.4651 49.3516 56.43 49.2455 56.43Z" fill="#F5F7F6"/>
<path d="M55.0533 58.4194H53.6198V58.2196L54.3771 57.3781C54.4893 57.2509 54.5665 57.1477 54.6085 57.0686C54.6516 56.9885 54.6731 56.9058 54.6731 56.8207C54.6731 56.7065 54.6386 56.6128 54.5695 56.5397C54.5003 56.4666 54.4082 56.43 54.293 56.43C54.1547 56.43 54.0471 56.4696 53.9699 56.5487C53.8938 56.6268 53.8557 56.736 53.8557 56.8763H53.5777C53.5777 56.6749 53.6424 56.5121 53.7716 56.3879C53.9018 56.2637 54.0756 56.2016 54.293 56.2016C54.4963 56.2016 54.6571 56.2552 54.7753 56.3624C54.8935 56.4686 54.9526 56.6103 54.9526 56.7876C54.9526 57.003 54.8154 57.2594 54.5409 57.5569L53.9549 58.1925H55.0533V58.4194ZM56.7197 57.4863C56.7197 57.8119 56.6641 58.0538 56.5529 58.2121C56.4417 58.3703 56.2679 58.4495 56.0315 58.4495C55.7981 58.4495 55.6253 58.3724 55.5131 58.2181C55.4009 58.0628 55.3428 57.8314 55.3388 57.5239V57.1527C55.3388 56.8312 55.3944 56.5923 55.5056 56.436C55.6168 56.2797 55.7911 56.2016 56.0285 56.2016C56.2639 56.2016 56.4372 56.2772 56.5484 56.4285C56.6596 56.5788 56.7167 56.8112 56.7197 57.1257V57.4863ZM56.4417 57.1062C56.4417 56.8708 56.4086 56.6995 56.3425 56.5923C56.2764 56.4841 56.1717 56.43 56.0285 56.43C55.8862 56.43 55.7826 56.4836 55.7174 56.5908C55.6523 56.698 55.6188 56.8627 55.6168 57.0851V57.5299C55.6168 57.7663 55.6508 57.9411 55.7189 58.0543C55.7881 58.1665 55.8922 58.2226 56.0315 58.2226C56.1687 58.2226 56.2704 58.1695 56.3365 58.0633C56.4036 57.9571 56.4387 57.7898 56.4417 57.5615V57.1062ZM57.9894 58.4194H57.7099V56.5667L57.1494 56.7726V56.5202L57.9458 56.2211H57.9894V58.4194ZM59.8691 57.4578C59.811 57.5269 59.7414 57.5825 59.6602 57.6246C59.5801 57.6666 59.492 57.6877 59.3958 57.6877C59.2696 57.6877 59.1594 57.6566 59.0652 57.5945C58.9721 57.5324 58.8999 57.4453 58.8488 57.3331C58.7978 57.2199 58.7722 57.0951 58.7722 56.9589C58.7722 56.8127 58.7998 56.6809 58.8549 56.5637C58.911 56.4465 58.9901 56.3569 59.0923 56.2948C59.1944 56.2327 59.3136 56.2016 59.4499 56.2016C59.6663 56.2016 59.8365 56.2827 59.9608 56.445C60.086 56.6063 60.1486 56.8267 60.1486 57.1062V57.1873C60.1486 57.613 60.0644 57.9241 59.8962 58.1204C59.7279 58.3158 59.4739 58.4159 59.1343 58.4209H59.0802V58.1865H59.1388C59.3682 58.1825 59.5445 58.1229 59.6678 58.0077C59.791 57.8915 59.8581 57.7082 59.8691 57.4578ZM59.4409 57.4578C59.534 57.4578 59.6197 57.4292 59.6978 57.3721C59.7769 57.315 59.8345 57.2444 59.8706 57.1603V57.0491C59.8706 56.8668 59.831 56.7185 59.7519 56.6043C59.6728 56.4901 59.5726 56.433 59.4514 56.433C59.3292 56.433 59.231 56.4801 59.1569 56.5742C59.0827 56.6674 59.0457 56.7906 59.0457 56.9439C59.0457 57.0931 59.0812 57.2164 59.1524 57.3135C59.2245 57.4097 59.3207 57.4578 59.4409 57.4578Z" fill="#F5F7F6"/>
<path d="M65.601 58.4194H64.1675V58.2196L64.9248 57.3781C65.037 57.2509 65.1141 57.1477 65.1562 57.0686C65.1993 56.9885 65.2208 56.9058 65.2208 56.8207C65.2208 56.7065 65.1863 56.6128 65.1171 56.5397C65.048 56.4666 64.9559 56.43 64.8407 56.43C64.7024 56.43 64.5947 56.4696 64.5176 56.5487C64.4415 56.6268 64.4034 56.736 64.4034 56.8763H64.1254C64.1254 56.6749 64.19 56.5121 64.3193 56.3879C64.4495 56.2637 64.6233 56.2016 64.8407 56.2016C65.044 56.2016 65.2048 56.2552 65.323 56.3624C65.4412 56.4686 65.5003 56.6103 65.5003 56.7876C65.5003 57.003 65.3631 57.2594 65.0886 57.5569L64.5026 58.1925H65.601V58.4194ZM67.2674 57.4863C67.2674 57.8119 67.2118 58.0538 67.1006 58.2121C66.9894 58.3703 66.8156 58.4495 66.5792 58.4495C66.3458 58.4495 66.173 58.3724 66.0608 58.2181C65.9486 58.0628 65.8905 57.8314 65.8865 57.5239V57.1527C65.8865 56.8312 65.9421 56.5923 66.0533 56.436C66.1645 56.2797 66.3388 56.2016 66.5762 56.2016C66.8116 56.2016 66.9849 56.2772 67.0961 56.4285C67.2073 56.5788 67.2644 56.8112 67.2674 57.1257V57.4863ZM66.9894 57.1062C66.9894 56.8708 66.9563 56.6995 66.8902 56.5923C66.8241 56.4841 66.7194 56.43 66.5762 56.43C66.4339 56.43 66.3302 56.4836 66.2651 56.5908C66.2 56.698 66.1665 56.8627 66.1645 57.0851V57.5299C66.1645 57.7663 66.1985 57.9411 66.2666 58.0543C66.3358 58.1665 66.4399 58.2226 66.5792 58.2226C66.7164 58.2226 66.8181 58.1695 66.8842 58.0633C66.9513 57.9571 66.9864 57.7898 66.9894 57.5615V57.1062ZM69.0569 58.4194H67.6235V58.2196L68.3808 57.3781C68.493 57.2509 68.5701 57.1477 68.6122 57.0686C68.6553 56.9885 68.6768 56.9058 68.6768 56.8207C68.6768 56.7065 68.6422 56.6128 68.5731 56.5397C68.504 56.4666 68.4118 56.43 68.2966 56.43C68.1584 56.43 68.0507 56.4696 67.9736 56.5487C67.8974 56.6268 67.8594 56.736 67.8594 56.8763H67.5814C67.5814 56.6749 67.646 56.5121 67.7752 56.3879C67.9055 56.2637 68.0793 56.2016 68.2966 56.2016C68.5 56.2016 68.6608 56.2552 68.779 56.3624C68.8972 56.4686 68.9563 56.6103 68.9563 56.7876C68.9563 57.003 68.819 57.2594 68.5446 57.5569L67.9586 58.1925H69.0569V58.4194ZM70.7233 57.4863C70.7233 57.8119 70.6677 58.0538 70.5565 58.2121C70.4453 58.3703 70.2715 58.4495 70.0351 58.4495C69.8017 58.4495 69.6289 58.3724 69.5167 58.2181C69.4045 58.0628 69.3464 57.8314 69.3424 57.5239V57.1527C69.3424 56.8312 69.398 56.5923 69.5092 56.436C69.6204 56.2797 69.7947 56.2016 70.0321 56.2016C70.2675 56.2016 70.4408 56.2772 70.552 56.4285C70.6632 56.5788 70.7203 56.8112 70.7233 57.1257V57.4863ZM70.4453 57.1062C70.4453 56.8708 70.4123 56.6995 70.3462 56.5923C70.2801 56.4841 70.1754 56.43 70.0321 56.43C69.8899 56.43 69.7862 56.4836 69.7211 56.5908C69.656 56.698 69.6224 56.8627 69.6204 57.0851V57.5299C69.6204 57.7663 69.6545 57.9411 69.7226 58.0543C69.7917 58.1665 69.8959 58.2226 70.0351 58.2226C70.1724 58.2226 70.2741 58.1695 70.3402 58.0633C70.4073 57.9571 70.4423 57.7898 70.4453 57.5615V57.1062Z" fill="#F5F7F6"/>
<path d="M76.0604 58.4194H74.6269V58.2196L75.3842 57.3781C75.4964 57.2509 75.5736 57.1477 75.6156 57.0686C75.6587 56.9885 75.6802 56.9058 75.6802 56.8207C75.6802 56.7065 75.6457 56.6128 75.5766 56.5397C75.5074 56.4666 75.4153 56.43 75.3001 56.43C75.1618 56.43 75.0542 56.4696 74.977 56.5487C74.9009 56.6268 74.8628 56.736 74.8628 56.8763H74.5848C74.5848 56.6749 74.6495 56.5121 74.7787 56.3879C74.9089 56.2637 75.0827 56.2016 75.3001 56.2016C75.5034 56.2016 75.6642 56.2552 75.7824 56.3624C75.9006 56.4686 75.9597 56.6103 75.9597 56.7876C75.9597 57.003 75.8225 57.2594 75.548 57.5569L74.962 58.1925H76.0604V58.4194ZM77.7268 57.4863C77.7268 57.8119 77.6712 58.0538 77.56 58.2121C77.4488 58.3703 77.275 58.4495 77.0386 58.4495C76.8052 58.4495 76.6324 58.3724 76.5202 58.2181C76.408 58.0628 76.3499 57.8314 76.3459 57.5239V57.1527C76.3459 56.8312 76.4015 56.5923 76.5127 56.436C76.6239 56.2797 76.7982 56.2016 77.0356 56.2016C77.271 56.2016 77.4443 56.2772 77.5555 56.4285C77.6667 56.5788 77.7238 56.8112 77.7268 57.1257V57.4863ZM77.4488 57.1062C77.4488 56.8708 77.4157 56.6995 77.3496 56.5923C77.2835 56.4841 77.1788 56.43 77.0356 56.43C76.8933 56.43 76.7897 56.4836 76.7245 56.5908C76.6594 56.698 76.6259 56.8627 76.6239 57.0851V57.5299C76.6239 57.7663 76.6579 57.9411 76.726 58.0543C76.7952 58.1665 76.8993 58.2226 77.0386 58.2226C77.1758 58.2226 77.2775 58.1695 77.3436 58.0633C77.4107 57.9571 77.4458 57.7898 77.4488 57.5615V57.1062ZM79.5164 58.4194H78.0829V58.2196L78.8402 57.3781C78.9524 57.2509 79.0295 57.1477 79.0716 57.0686C79.1147 56.9885 79.1362 56.9058 79.1362 56.8207C79.1362 56.7065 79.1016 56.6128 79.0325 56.5397C78.9634 56.4666 78.8712 56.43 78.756 56.43C78.6178 56.43 78.5101 56.4696 78.433 56.5487C78.3569 56.6268 78.3188 56.736 78.3188 56.8763H78.0408C78.0408 56.6749 78.1054 56.5121 78.2346 56.3879C78.3649 56.2637 78.5387 56.2016 78.756 56.2016C78.9594 56.2016 79.1202 56.2552 79.2384 56.3624C79.3566 56.4686 79.4157 56.6103 79.4157 56.7876C79.4157 57.003 79.2785 57.2594 79.004 57.5569L78.418 58.1925H79.5164V58.4194ZM80.7244 58.4194H80.445V56.5667L79.8845 56.7726V56.5202L80.6809 56.2211H80.7244V58.4194Z" fill="#F5F7F6"/>
<path d="M85.9713 58.4194H84.5378V58.2196L85.2951 57.3781C85.4073 57.2509 85.4845 57.1477 85.5265 57.0686C85.5696 56.9885 85.5912 56.9058 85.5912 56.8207C85.5912 56.7065 85.5566 56.6128 85.4875 56.5397C85.4184 56.4666 85.3262 56.43 85.211 56.43C85.0728 56.43 84.9651 56.4696 84.8879 56.5487C84.8118 56.6268 84.7737 56.736 84.7737 56.8763H84.4958C84.4958 56.6749 84.5604 56.5121 84.6896 56.3879C84.8198 56.2637 84.9936 56.2016 85.211 56.2016C85.4144 56.2016 85.5751 56.2552 85.6933 56.3624C85.8115 56.4686 85.8706 56.6103 85.8706 56.7876C85.8706 57.003 85.7334 57.2594 85.4589 57.5569L84.8729 58.1925H85.9713V58.4194ZM87.6377 57.4863C87.6377 57.8119 87.5821 58.0538 87.4709 58.2121C87.3597 58.3703 87.1859 58.4495 86.9495 58.4495C86.7161 58.4495 86.5433 58.3724 86.4311 58.2181C86.3189 58.0628 86.2608 57.8314 86.2568 57.5239V57.1527C86.2568 56.8312 86.3124 56.5923 86.4236 56.436C86.5348 56.2797 86.7091 56.2016 86.9465 56.2016C87.1819 56.2016 87.3552 56.2772 87.4664 56.4285C87.5776 56.5788 87.6347 56.8112 87.6377 57.1257V57.4863ZM87.3597 57.1062C87.3597 56.8708 87.3267 56.6995 87.2605 56.5923C87.1944 56.4841 87.0897 56.43 86.9465 56.43C86.8043 56.43 86.7006 56.4836 86.6355 56.5908C86.5703 56.698 86.5368 56.8627 86.5348 57.0851V57.5299C86.5348 57.7663 86.5688 57.9411 86.637 58.0543C86.7061 58.1665 86.8103 58.2226 86.9495 58.2226C87.0867 58.2226 87.1884 58.1695 87.2545 58.0633C87.3216 57.9571 87.3567 57.7898 87.3597 57.5615V57.1062ZM89.4273 58.4194H87.9938V58.2196L88.7511 57.3781C88.8633 57.2509 88.9404 57.1477 88.9825 57.0686C89.0256 56.9885 89.0471 56.9058 89.0471 56.8207C89.0471 56.7065 89.0126 56.6128 88.9434 56.5397C88.8743 56.4666 88.7822 56.43 88.667 56.43C88.5287 56.43 88.421 56.4696 88.3439 56.5487C88.2678 56.6268 88.2297 56.736 88.2297 56.8763H87.9517C87.9517 56.6749 88.0163 56.5121 88.1456 56.3879C88.2758 56.2637 88.4496 56.2016 88.667 56.2016C88.8703 56.2016 89.0311 56.2552 89.1493 56.3624C89.2675 56.4686 89.3266 56.6103 89.3266 56.7876C89.3266 57.003 89.1894 57.2594 88.9149 57.5569L88.3289 58.1925H89.4273V58.4194ZM91.1553 58.4194H89.7218V58.2196L90.4791 57.3781C90.5913 57.2509 90.6684 57.1477 90.7105 57.0686C90.7536 56.9885 90.7751 56.9058 90.7751 56.8207C90.7751 56.7065 90.7405 56.6128 90.6714 56.5397C90.6023 56.4666 90.5101 56.43 90.395 56.43C90.2567 56.43 90.149 56.4696 90.0719 56.5487C89.9958 56.6268 89.9577 56.736 89.9577 56.8763H89.6797C89.6797 56.6749 89.7443 56.5121 89.8736 56.3879C90.0038 56.2637 90.1776 56.2016 90.395 56.2016C90.5983 56.2016 90.7591 56.2552 90.8773 56.3624C90.9955 56.4686 91.0546 56.6103 91.0546 56.7876C91.0546 57.003 90.9174 57.2594 90.6429 57.5569L90.0569 58.1925H91.1553V58.4194Z" fill="#F5F7F6"/>
<path d="M95.9043 58.4194H94.4708V58.2196L95.2281 57.3781C95.3403 57.2509 95.4175 57.1477 95.4595 57.0686C95.5026 56.9885 95.5241 56.9058 95.5241 56.8207C95.5241 56.7065 95.4896 56.6128 95.4205 56.5397C95.3514 56.4666 95.2592 56.43 95.144 56.43C95.0058 56.43 94.8981 56.4696 94.8209 56.5487C94.7448 56.6268 94.7067 56.736 94.7067 56.8763H94.4288C94.4288 56.6749 94.4934 56.5121 94.6226 56.3879C94.7528 56.2637 94.9266 56.2016 95.144 56.2016C95.3473 56.2016 95.5081 56.2552 95.6263 56.3624C95.7445 56.4686 95.8036 56.6103 95.8036 56.7876C95.8036 57.003 95.6664 57.2594 95.3919 57.5569L94.8059 58.1925H95.9043V58.4194ZM97.5707 57.4863C97.5707 57.8119 97.5151 58.0538 97.4039 58.2121C97.2927 58.3703 97.1189 58.4495 96.8825 58.4495C96.6491 58.4495 96.4763 58.3724 96.3641 58.2181C96.2519 58.0628 96.1938 57.8314 96.1898 57.5239V57.1527C96.1898 56.8312 96.2454 56.5923 96.3566 56.436C96.4678 56.2797 96.6421 56.2016 96.8795 56.2016C97.1149 56.2016 97.2882 56.2772 97.3994 56.4285C97.5106 56.5788 97.5677 56.8112 97.5707 57.1257V57.4863ZM97.2927 57.1062C97.2927 56.8708 97.2596 56.6995 97.1935 56.5923C97.1274 56.4841 97.0227 56.43 96.8795 56.43C96.7372 56.43 96.6336 56.4836 96.5685 56.5908C96.5033 56.698 96.4698 56.8627 96.4678 57.0851V57.5299C96.4678 57.7663 96.5018 57.9411 96.57 58.0543C96.6391 58.1665 96.7433 58.2226 96.8825 58.2226C97.0197 58.2226 97.1214 58.1695 97.1875 58.0633C97.2546 57.9571 97.2897 57.7898 97.2927 57.5615V57.1062ZM99.3603 58.4194H97.9268V58.2196L98.6841 57.3781C98.7963 57.2509 98.8734 57.1477 98.9155 57.0686C98.9586 56.9885 98.9801 56.9058 98.9801 56.8207C98.9801 56.7065 98.9456 56.6128 98.8764 56.5397C98.8073 56.4666 98.7152 56.43 98.6 56.43C98.4617 56.43 98.354 56.4696 98.2769 56.5487C98.2008 56.6268 98.1627 56.736 98.1627 56.8763H97.8847C97.8847 56.6749 97.9493 56.5121 98.0786 56.3879C98.2088 56.2637 98.3826 56.2016 98.6 56.2016C98.8033 56.2016 98.9641 56.2552 99.0823 56.3624C99.2005 56.4686 99.2596 56.6103 99.2596 56.7876C99.2596 57.003 99.1224 57.2594 98.8479 57.5569L98.2619 58.1925H99.3603V58.4194ZM100.059 57.1903H100.268C100.399 57.1883 100.502 57.1537 100.577 57.0866C100.653 57.0195 100.69 56.9289 100.69 56.8147C100.69 56.5582 100.562 56.43 100.307 56.43C100.187 56.43 100.091 56.4646 100.018 56.5337C99.9473 56.6018 99.9117 56.6925 99.9117 56.8056H99.6337C99.6337 56.6323 99.6969 56.4886 99.8231 56.3744C99.9503 56.2592 100.112 56.2016 100.307 56.2016C100.513 56.2016 100.675 56.2562 100.792 56.3654C100.909 56.4746 100.968 56.6263 100.968 56.8207C100.968 56.9158 100.937 57.008 100.875 57.0972C100.814 57.1863 100.73 57.2529 100.624 57.297C100.744 57.3351 100.837 57.3982 100.902 57.4863C100.968 57.5745 101.001 57.6822 101.001 57.8094C101.001 58.0057 100.937 58.1615 100.809 58.2767C100.681 58.3919 100.514 58.4495 100.308 58.4495C100.103 58.4495 99.9358 58.3939 99.8065 58.2827C99.6783 58.1715 99.6142 58.0248 99.6142 57.8424H99.8937C99.8937 57.9576 99.9313 58.0498 100.006 58.1189C100.082 58.188 100.182 58.2226 100.308 58.2226C100.443 58.2226 100.545 58.1875 100.616 58.1174C100.688 58.0473 100.723 57.9466 100.723 57.8154C100.723 57.6882 100.684 57.5905 100.606 57.5224C100.528 57.4543 100.415 57.4192 100.268 57.4172H100.059V57.1903Z" fill="#F5F7F6"/>
<path d="M106.123 58.4194H104.69V58.2196L105.447 57.3781C105.559 57.2509 105.636 57.1477 105.678 57.0686C105.721 56.9885 105.743 56.9058 105.743 56.8207C105.743 56.7065 105.708 56.6128 105.639 56.5397C105.57 56.4666 105.478 56.43 105.363 56.43C105.224 56.43 105.117 56.4696 105.04 56.5487C104.964 56.6268 104.925 56.736 104.925 56.8763H104.647C104.647 56.6749 104.712 56.5121 104.841 56.3879C104.972 56.2637 105.145 56.2016 105.363 56.2016C105.566 56.2016 105.727 56.2552 105.845 56.3624C105.963 56.4686 106.022 56.6103 106.022 56.7876C106.022 57.003 105.885 57.2594 105.611 57.5569L105.025 58.1925H106.123V58.4194ZM107.789 57.4863C107.789 57.8119 107.734 58.0538 107.623 58.2121C107.511 58.3703 107.338 58.4495 107.101 58.4495C106.868 58.4495 106.695 58.3724 106.583 58.2181C106.471 58.0628 106.413 57.8314 106.409 57.5239V57.1527C106.409 56.8312 106.464 56.5923 106.575 56.436C106.686 56.2797 106.861 56.2016 107.098 56.2016C107.334 56.2016 107.507 56.2772 107.618 56.4285C107.729 56.5788 107.786 56.8112 107.789 57.1257V57.4863ZM107.511 57.1062C107.511 56.8708 107.478 56.6995 107.412 56.5923C107.346 56.4841 107.241 56.43 107.098 56.43C106.956 56.43 106.852 56.4836 106.787 56.5908C106.722 56.698 106.689 56.8627 106.686 57.0851V57.5299C106.686 57.7663 106.721 57.9411 106.789 58.0543C106.858 58.1665 106.962 58.2226 107.101 58.2226C107.238 58.2226 107.34 58.1695 107.406 58.0633C107.473 57.9571 107.508 57.7898 107.511 57.5615V57.1062ZM109.579 58.4194H108.146V58.2196L108.903 57.3781C109.015 57.2509 109.092 57.1477 109.134 57.0686C109.177 56.9885 109.199 56.9058 109.199 56.8207C109.199 56.7065 109.164 56.6128 109.095 56.5397C109.026 56.4666 108.934 56.43 108.819 56.43C108.68 56.43 108.573 56.4696 108.496 56.5487C108.419 56.6268 108.381 56.736 108.381 56.8763H108.103C108.103 56.6749 108.168 56.5121 108.297 56.3879C108.428 56.2637 108.601 56.2016 108.819 56.2016C109.022 56.2016 109.183 56.2552 109.301 56.3624C109.419 56.4686 109.478 56.6103 109.478 56.7876C109.478 57.003 109.341 57.2594 109.067 57.5569L108.481 58.1925H109.579V58.4194ZM111.047 57.6847H111.351V57.9116H111.047V58.4194H110.768V57.9116H109.771V57.7478L110.751 56.2317H111.047V57.6847ZM110.087 57.6847H110.768V56.6118L110.734 56.6719L110.087 57.6847Z" fill="#F5F7F6"/>
<path d="M4.77973 57.6116C4.77973 57.9371 4.72413 58.179 4.61294 58.3373C4.50175 58.4956 4.32795 58.5747 4.09154 58.5747C3.85813 58.5747 3.68534 58.4976 3.57314 58.3433C3.46095 58.1881 3.40285 57.9567 3.39884 57.6491V57.278C3.39884 56.9564 3.45444 56.7175 3.56563 56.5613C3.67682 56.405 3.85112 56.3268 4.08853 56.3268C4.32394 56.3268 4.49724 56.4025 4.60843 56.5537C4.71962 56.704 4.77672 56.9364 4.77973 57.2509V57.6116ZM4.50175 57.2314C4.50175 56.996 4.46869 56.8247 4.40257 56.7175C4.33646 56.6093 4.23178 56.5552 4.08853 56.5552C3.94629 56.5552 3.84261 56.6088 3.7775 56.716C3.71238 56.8232 3.67883 56.988 3.67682 57.2104V57.6551C3.67682 57.8916 3.71088 58.0664 3.779 58.1795C3.84812 58.2917 3.9523 58.3478 4.09154 58.3478C4.22877 58.3478 4.33045 58.2947 4.39656 58.1886C4.46368 58.0824 4.49874 57.9151 4.50175 57.6867V57.2314Z" fill="#F5F7F6"/>
<path d="M2.0413 49.4236H1.76182V47.5709L1.20135 47.7767V47.5243L1.99772 47.2253H2.0413V49.4236ZM4.22757 48.4905C4.22757 48.816 4.17198 49.058 4.06078 49.2162C3.94959 49.3745 3.77579 49.4536 3.53938 49.4536C3.30598 49.4536 3.13318 49.3765 3.02099 49.2222C2.9088 49.067 2.8507 48.8356 2.84669 48.528V48.1569C2.84669 47.8353 2.90228 47.5964 3.01348 47.4402C3.12467 47.2839 3.29897 47.2058 3.53638 47.2058C3.77179 47.2058 3.94508 47.2814 4.05628 47.4326C4.16747 47.5829 4.22457 47.8153 4.22757 48.1299V48.4905ZM3.94959 48.1103C3.94959 47.8749 3.91654 47.7036 3.85042 47.5964C3.78431 47.4882 3.67963 47.4341 3.53638 47.4341C3.39413 47.4341 3.29045 47.4877 3.22534 47.5949C3.16023 47.7021 3.12667 47.8669 3.12467 48.0893V48.534C3.12467 48.7705 3.15873 48.9453 3.22685 49.0585C3.29596 49.1706 3.40014 49.2267 3.53938 49.2267C3.67662 49.2267 3.7783 49.1737 3.84441 49.0675C3.91153 48.9613 3.94659 48.794 3.94959 48.5656V48.1103Z" fill="#F5F7F6"/>
<path d="M2.5612 41.8799H1.12772V41.68L1.88503 40.8386C1.99722 40.7114 2.07436 40.6082 2.11643 40.5291C2.1595 40.4489 2.18104 40.3663 2.18104 40.2811C2.18104 40.1669 2.14648 40.0733 2.07736 40.0001C2.00824 39.927 1.91608 39.8904 1.80088 39.8904C1.66264 39.8904 1.55496 39.93 1.47783 40.0092C1.40169 40.0873 1.36363 40.1965 1.36363 40.3367H1.08565C1.08565 40.1354 1.15026 39.9726 1.27948 39.8484C1.40971 39.7242 1.58351 39.6621 1.80088 39.6621C2.00423 39.6621 2.16501 39.7156 2.28322 39.8228C2.40142 39.929 2.46052 40.0708 2.46052 40.2481C2.46052 40.4634 2.32329 40.7199 2.04881 41.0174L1.4628 41.653H2.5612V41.8799ZM4.22757 40.9468C4.22757 41.2723 4.17198 41.5143 4.06078 41.6725C3.94959 41.8308 3.77579 41.9099 3.53938 41.9099C3.30598 41.9099 3.13318 41.8328 3.02099 41.6785C2.9088 41.5233 2.8507 41.2919 2.84669 40.9843V40.6132C2.84669 40.2916 2.90228 40.0527 3.01348 39.8965C3.12467 39.7402 3.29897 39.6621 3.53638 39.6621C3.77179 39.6621 3.94508 39.7377 4.05628 39.8889C4.16747 40.0392 4.22457 40.2716 4.22757 40.5861V40.9468ZM3.94959 40.5666C3.94959 40.3312 3.91654 40.1599 3.85042 40.0527C3.78431 39.9445 3.67963 39.8904 3.53638 39.8904C3.39413 39.8904 3.29045 39.944 3.22534 40.0512C3.16023 40.1584 3.12667 40.3232 3.12467 40.5456V40.9903C3.12467 41.2268 3.15873 41.4016 3.22685 41.5148C3.29596 41.6269 3.40014 41.683 3.53938 41.683C3.67662 41.683 3.7783 41.63 3.84441 41.5238C3.91153 41.4176 3.94659 41.2503 3.94959 41.0219V40.5666Z" fill="#F5F7F6"/>
<path d="M1.53192 32.8449H1.74078C1.87201 32.8428 1.97518 32.8083 2.05031 32.7412C2.12544 32.6741 2.16301 32.5834 2.16301 32.4692C2.16301 32.2128 2.03529 32.0845 1.77985 32.0845C1.65964 32.0845 1.56347 32.1191 1.49135 32.1882C1.42023 32.2563 1.38467 32.347 1.38467 32.4602H1.10669C1.10669 32.2869 1.16979 32.1431 1.29601 32.0289C1.42323 31.9137 1.58451 31.8561 1.77985 31.8561C1.9862 31.8561 2.14798 31.9107 2.26519 32.0199C2.38239 32.1291 2.44099 32.2809 2.44099 32.4752C2.44099 32.5704 2.40993 32.6625 2.34783 32.7517C2.28672 32.8408 2.20308 32.9075 2.09689 32.9515C2.2171 32.9896 2.30976 33.0527 2.37487 33.1409C2.44099 33.229 2.47405 33.3367 2.47405 33.4639C2.47405 33.6603 2.40993 33.816 2.28171 33.9312C2.15349 34.0464 1.9867 34.104 1.78135 34.104C1.576 34.104 1.40871 34.0484 1.27948 33.9372C1.15126 33.826 1.08715 33.6793 1.08715 33.497H1.36663C1.36663 33.6122 1.4042 33.7043 1.47933 33.7735C1.55446 33.8426 1.65513 33.8771 1.78135 33.8771C1.91558 33.8771 2.01826 33.8421 2.08938 33.772C2.1605 33.7018 2.19607 33.6012 2.19607 33.4699C2.19607 33.3427 2.157 33.245 2.07886 33.1769C2.00073 33.1088 1.88803 33.0737 1.74078 33.0717H1.53192V32.8449ZM4.22757 33.1409C4.22757 33.4664 4.17198 33.7083 4.06078 33.8666C3.94959 34.0249 3.77579 34.104 3.53938 34.104C3.30598 34.104 3.13318 34.0269 3.02099 33.8726C2.9088 33.7174 2.8507 33.486 2.84669 33.1784V32.8073C2.84669 32.4857 2.90228 32.2468 3.01348 32.0906C3.12467 31.9343 3.29897 31.8561 3.53638 31.8561C3.77179 31.8561 3.94508 31.9318 4.05628 32.083C4.16747 32.2333 4.22457 32.4657 4.22757 32.7802V33.1409ZM3.94959 32.7607C3.94959 32.5253 3.91654 32.354 3.85042 32.2468C3.78431 32.1386 3.67963 32.0845 3.53638 32.0845C3.39413 32.0845 3.29045 32.1381 3.22534 32.2453C3.16023 32.3525 3.12667 32.5173 3.12467 32.7397V33.1844C3.12467 33.4208 3.15873 33.5956 3.22685 33.7088C3.29596 33.821 3.40014 33.8771 3.53938 33.8771C3.67662 33.8771 3.7783 33.824 3.84441 33.7179C3.91153 33.6117 3.94659 33.4444 3.94959 33.216V32.7607Z" fill="#F5F7F6"/>
<path d="M2.30125 25.7967H2.60477V26.0236H2.30125V26.5315H2.02176V26.0236H1.02555V25.8598L2.00524 24.3437H2.30125V25.7967ZM1.34109 25.7967H2.02176V24.7239L1.98871 24.784L1.34109 25.7967ZM4.22757 25.5984C4.22757 25.9239 4.17198 26.1659 4.06078 26.3241C3.94959 26.4824 3.77579 26.5615 3.53938 26.5615C3.30598 26.5615 3.13318 26.4844 3.02099 26.3301C2.9088 26.1749 2.8507 25.9435 2.84669 25.6359V25.2648C2.84669 24.9433 2.90228 24.7043 3.01348 24.5481C3.12467 24.3918 3.29897 24.3137 3.53638 24.3137C3.77179 24.3137 3.94508 24.3893 4.05628 24.5406C4.16747 24.6908 4.22457 24.9232 4.22757 25.2378V25.5984ZM3.94959 25.2182C3.94959 24.9828 3.91654 24.8115 3.85042 24.7043C3.78431 24.5962 3.67963 24.5421 3.53638 24.5421C3.39413 24.5421 3.29045 24.5957 3.22534 24.7028C3.16023 24.81 3.12667 24.9748 3.12467 25.1972V25.642C3.12467 25.8784 3.15873 26.0532 3.22685 26.1664C3.29596 26.2786 3.40014 26.3347 3.53938 26.3347C3.67662 26.3347 3.7783 26.2816 3.84441 26.1754C3.91153 26.0692 3.94659 25.9019 3.94959 25.6735V25.2182Z" fill="#F5F7F6"/>
<path d="M1.25544 18.1983L1.36663 17.1074H2.48757V17.3643H1.60254L1.53643 17.9609C1.64361 17.8978 1.76532 17.8662 1.90156 17.8662C2.1009 17.8662 2.25917 17.9323 2.37638 18.0645C2.49358 18.1958 2.55218 18.3736 2.55218 18.598C2.55218 18.8234 2.49107 19.0012 2.36886 19.1314C2.24765 19.2606 2.07786 19.3252 1.85948 19.3252C1.66615 19.3252 1.50838 19.2716 1.38617 19.1644C1.26396 19.0573 1.19434 18.909 1.17731 18.7197H1.44026C1.45729 18.8449 1.50187 18.9396 1.57399 19.0037C1.64612 19.0668 1.74128 19.0983 1.85948 19.0983C1.98871 19.0983 2.08988 19.0543 2.16301 18.9661C2.23714 18.8779 2.2742 18.7562 2.2742 18.601C2.2742 18.4547 2.23413 18.3375 2.15399 18.2494C2.07486 18.1602 1.96917 18.1156 1.83695 18.1156C1.71574 18.1156 1.62057 18.1422 1.55145 18.1953L1.47783 18.2554L1.25544 18.1983ZM4.22757 18.3621C4.22757 18.6876 4.17198 18.9295 4.06078 19.0878C3.94959 19.2461 3.77579 19.3252 3.53938 19.3252C3.30598 19.3252 3.13318 19.2481 3.02099 19.0938C2.9088 18.9386 2.8507 18.7072 2.84669 18.3996V18.0285C2.84669 17.7069 2.90228 17.468 3.01348 17.3117C3.12467 17.1555 3.29897 17.0773 3.53638 17.0773C3.77179 17.0773 3.94508 17.153 4.05628 17.3042C4.16747 17.4545 4.22457 17.6869 4.22757 18.0014V18.3621ZM3.94959 17.9819C3.94959 17.7465 3.91654 17.5752 3.85042 17.468C3.78431 17.3598 3.67963 17.3057 3.53638 17.3057C3.39413 17.3057 3.29045 17.3593 3.22534 17.4665C3.16023 17.5737 3.12667 17.7385 3.12467 17.9609V18.4056C3.12467 18.642 3.15873 18.8168 3.22685 18.93C3.29596 19.0422 3.40014 19.0983 3.53938 19.0983C3.67662 19.0983 3.7783 19.0452 3.84441 18.9391C3.91153 18.8329 3.94659 18.6656 3.94959 18.4372V17.9819Z" fill="#F5F7F6"/>
<path d="M2.2186 9.56292V9.79883H2.16752C1.95114 9.80283 1.77885 9.86694 1.65062 9.99116C1.5224 10.1154 1.44827 10.2902 1.42824 10.5156C1.54344 10.3833 1.70071 10.3172 1.90005 10.3172C2.09038 10.3172 2.24215 10.3843 2.35534 10.5186C2.46954 10.6528 2.52664 10.8261 2.52664 11.0385C2.52664 11.2639 2.46503 11.4442 2.34182 11.5794C2.21961 11.7146 2.05532 11.7822 1.84897 11.7822C1.63961 11.7822 1.46981 11.7021 1.33959 11.5418C1.20936 11.3806 1.14425 11.1732 1.14425 10.9198V10.8131C1.14425 10.4104 1.2299 10.1029 1.40119 9.89048C1.57349 9.67712 1.82943 9.56793 2.16902 9.56292H2.2186ZM1.85347 10.5486C1.75831 10.5486 1.67066 10.5772 1.59052 10.6343C1.51038 10.6914 1.45479 10.763 1.42373 10.8491V10.9513C1.42373 11.1316 1.4643 11.2769 1.54544 11.3871C1.62658 11.4973 1.72776 11.5524 1.84897 11.5524C1.97418 11.5524 2.07235 11.5063 2.14347 11.4141C2.2156 11.322 2.25166 11.2012 2.25166 11.052C2.25166 10.9017 2.2151 10.7805 2.14197 10.6884C2.06985 10.5952 1.97368 10.5486 1.85347 10.5486ZM4.22757 10.8191C4.22757 11.1446 4.17198 11.3866 4.06078 11.5448C3.94959 11.7031 3.77579 11.7822 3.53938 11.7822C3.30598 11.7822 3.13318 11.7051 3.02099 11.5508C2.9088 11.3956 2.8507 11.1642 2.84669 10.8567V10.4855C2.84669 10.164 2.90228 9.92504 3.01348 9.76877C3.12467 9.6125 3.29897 9.53437 3.53638 9.53437C3.77179 9.53437 3.94508 9.61 4.05628 9.76126C4.16747 9.91152 4.22457 10.1439 4.22757 10.4585V10.8191ZM3.94959 10.4389C3.94959 10.2035 3.91654 10.0322 3.85042 9.92504C3.78431 9.81686 3.67963 9.76276 3.53638 9.76276C3.39413 9.76276 3.29045 9.81636 3.22534 9.92354C3.16023 10.0307 3.12667 10.1955 3.12467 10.4179V10.8627C3.12467 11.0991 3.15873 11.2739 3.22685 11.3871C3.29596 11.4993 3.40014 11.5554 3.53938 11.5554C3.67662 11.5554 3.7783 11.5023 3.84441 11.3961C3.91153 11.2899 3.94659 11.1226 3.94959 10.8942V10.4389Z" fill="#F5F7F6"/>
<path d="M2.54023 1.91454L1.63416 3.94604H1.34266L2.24572 1.98666H1.06168V1.75827H2.54023V1.91454ZM4.22764 3.01293C4.22764 3.3385 4.17205 3.58041 4.06085 3.73869C3.94966 3.89696 3.77586 3.9761 3.53945 3.9761C3.30605 3.9761 3.13325 3.89896 3.02106 3.7447C2.90886 3.58943 2.85076 3.35803 2.84676 3.0505V2.67936C2.84676 2.3578 2.90235 2.11889 3.01355 1.96262C3.12474 1.80635 3.29904 1.72822 3.53645 1.72822C3.77185 1.72822 3.94515 1.80385 4.05635 1.95511C4.16754 2.10537 4.22464 2.33777 4.22764 2.65231V3.01293ZM3.94966 2.63278C3.94966 2.39737 3.9166 2.22608 3.85049 2.11889C3.78438 2.0107 3.6797 1.95661 3.53645 1.95661C3.3942 1.95661 3.29052 2.0102 3.22541 2.11739C3.1603 2.22457 3.12674 2.38936 3.12474 2.61174V3.05651C3.12474 3.29292 3.1588 3.46772 3.22691 3.58091C3.29603 3.69311 3.40021 3.74921 3.53945 3.74921C3.67669 3.74921 3.77837 3.69611 3.84448 3.58993C3.9116 3.48375 3.94666 3.31646 3.94966 3.08806V2.63278Z" fill="#F5F7F6"/>
<path d="M107.584 21.9868H97.1384L87.0508 14.6187L77.0516 22.5121L66.699 18.742L56.8764 33.6502H46.5285L36.362 41.1717L26.451 29.6849L16.3635 33.5433V52.8166H107.649L107.584 21.9868Z" fill="url(#paint0_linear)"/>
<path d="M36.32 41.5297L26.3719 29.9964L16.4563 33.7897L16.2704 33.2969L26.53 29.3734L36.399 40.8184L46.4401 33.3899H56.7369L66.5967 18.4212L77.005 22.2145L87.0414 14.2886L97.222 21.7218H107.584V22.2517H97.05L87.0554 14.9487L77.098 22.8095L66.8059 19.0581L57.0205 33.9152H46.6121L36.32 41.5297Z" fill="url(#paint1_linear)"/>
<path d="M17.4884 33.5432C17.4884 34.1661 16.9863 34.6682 16.3634 34.6682C15.7405 34.6682 15.2384 34.1661 15.2384 33.5432C15.2384 32.9203 15.7405 32.4182 16.3634 32.4182C16.9863 32.4182 17.4884 32.9203 17.4884 33.5432Z" fill="#F5F7F6"/>
<path d="M27.5759 29.6848C27.5759 30.3077 27.0738 30.8098 26.4509 30.8098C25.828 30.8098 25.3259 30.3077 25.3259 29.6848C25.3259 29.0619 25.828 28.5598 26.4509 28.5598C27.0738 28.5552 27.5759 29.0619 27.5759 29.6848Z" fill="#F5F7F6"/>
<path d="M37.4868 41.1719C37.4868 41.7948 36.9801 42.2968 36.3618 42.2968C35.7389 42.2968 35.2369 41.7901 35.2369 41.1719C35.2369 40.5489 35.7389 40.0469 36.3618 40.0469C36.9848 40.0469 37.4868 40.5489 37.4868 41.1719Z" fill="#F5F7F6"/>
<path d="M47.6533 33.6501C47.6533 34.273 47.1513 34.7751 46.5284 34.7751C45.9054 34.7751 45.4034 34.2684 45.4034 33.6501C45.4034 33.0272 45.9054 32.5251 46.5284 32.5251C47.1513 32.5251 47.6533 33.0318 47.6533 33.6501Z" fill="#F5F7F6"/>
<path d="M58.006 33.6501C58.006 34.273 57.5039 34.7751 56.881 34.7751C56.2581 34.7751 55.756 34.2684 55.756 33.6501C55.756 33.0272 56.2627 32.5251 56.881 32.5251C57.4993 32.5251 58.006 33.0318 58.006 33.6501Z" fill="#F5F7F6"/>
<path d="M67.8286 18.7419C67.8286 19.3648 67.3266 19.8669 66.7036 19.8669C66.0807 19.8669 65.5787 19.3602 65.5787 18.7419C65.5787 18.119 66.0807 17.6169 66.7036 17.6169C67.3219 17.6169 67.8286 18.119 67.8286 18.7419Z" fill="#F5F7F6"/>
<path d="M78.1765 22.5122C78.1765 23.1351 77.6744 23.6372 77.0515 23.6372C76.4286 23.6372 75.9265 23.1351 75.9265 22.5122C75.9265 21.8893 76.4286 21.3872 77.0515 21.3872C77.6744 21.3872 78.1765 21.8893 78.1765 22.5122Z" fill="#F5F7F6"/>
<path d="M88.1757 14.6186C88.1757 15.2415 87.669 15.7436 87.0507 15.7436C86.4278 15.7436 85.9257 15.2369 85.9257 14.6186C85.9257 13.9957 86.4278 13.4937 87.0507 13.4937C87.6736 13.4937 88.1757 13.9957 88.1757 14.6186Z" fill="#F5F7F6"/>
<path d="M98.2632 21.9868C98.2632 22.6097 97.7611 23.1118 97.1382 23.1118C96.5153 23.1118 96.0132 22.6097 96.0132 21.9868C96.0132 21.3639 96.5153 20.8618 97.1382 20.8618C97.7565 20.8618 98.2632 21.3639 98.2632 21.9868Z" fill="#F5F7F6"/>
<path d="M108.709 22.0285C108.709 22.6515 108.202 23.1535 107.584 23.1535C106.961 23.1535 106.459 22.6468 106.459 22.0285C106.459 21.4056 106.961 20.9036 107.584 20.9036C108.202 20.9036 108.709 21.4103 108.709 22.0285Z" fill="#F5F7F6"/>
<defs>
<linearGradient id="paint0_linear" x1="62.0057" y1="58.7372" x2="62.0057" y2="21.1957" gradientUnits="userSpaceOnUse">
<stop offset="0.0101" stop-color="white" stop-opacity="0"/>
<stop offset="1" stop-color="white"/>
</linearGradient>
<linearGradient id="paint1_linear" x1="16.4294" y1="27.9092" x2="87.8707" y2="27.9092" gradientUnits="userSpaceOnUse">
<stop stop-color="#00EAD1"/>
<stop offset="0.1291" stop-color="#00E0D1"/>
<stop offset="0.3516" stop-color="#00C4CF"/>
<stop offset="0.6406" stop-color="#0097CE"/>
<stop offset="0.9819" stop-color="#0058CB"/>
<stop offset="0.9999" stop-color="#0055CB"/>
</linearGradient>
</defs>
</svg>
